Mayek_Rounded-Bold.ufo
<glyph name="comma" format="1">
  <advance width="200"/>
  <unicode hex="002C"/>
  <outline>
    <contour>
      <point x="136" y="-140"/>
      <point x="199" y="-78"/>
      <point x="199" y="-3" type="curve" smooth="yes"/>
      <point x="199" y="63"/>
      <point x="149" y="101"/>
      <point x="102" y="101" type="curve" smooth="yes"/>
      <point x="62" y="101"/>
      <point x="35" y="74"/>
      <point x="35" y="41" type="curve" smooth="yes"/>
      <point x="35" y="7"/>
      <point x="62" y="-20"/>
      <point x="96" y="-20" type="curve" smooth="yes"/>
      <point x="121" y="-20"/>
      <point x="153" y="-5"/>
      <point x="153" y="34" type="curve"/>
      <point x="106" y="30" type="line"/>
      <point x="127" y="17"/>
      <point x="133" y="5"/>
      <point x="133" y="-13" type="curve" smooth="yes"/>
      <point x="133" y="-50"/>
      <point x="107" y="-64"/>
      <point x="72" y="-82" type="curve" smooth="yes"/>
      <point x="59" y="-89"/>
      <point x="44" y="-97"/>
      <point x="44" y="-113" type="curve" smooth="yes"/>
      <point x="44" y="-126"/>
      <point x="52" y="-140"/>
      <point x="75" y="-140" type="curve" smooth="yes"/>
    </contour>
  </outline>
</glyph>
<glyph name="uni0982" format="1">
  <advance width="342"/>
  <unicode hex="0982"/>
  <note>
	uni0982
  </note>
  <outline>
    <contour>
      <point x="352" y="-13"/>
      <point x="365" y="8"/>
      <point x="365" y="33" type="curve" smooth="yes"/>
      <point x="365" y="80"/>
      <point x="317" y="90"/>
      <point x="268" y="193" type="curve" smooth="yes"/>
      <point x="240" y="253"/>
      <point x="206" y="325"/>
      <point x="105" y="325" type="curve" smooth="yes"/>
      <point x="44" y="325"/>
      <point x="32" y="299"/>
      <point x="32" y="277" type="curve" smooth="yes"/>
      <point x="32" y="236"/>
      <point x="70" y="228"/>
      <point x="93" y="224" type="curve" smooth="yes"/>
      <point x="144" y="214"/>
      <point x="165" y="201"/>
      <point x="198" y="125" type="curve" smooth="yes"/>
      <point x="220" y="73"/>
      <point x="258" y="-13"/>
      <point x="321" y="-13" type="curve" smooth="yes"/>
    </contour>
    <contour>
      <point x="214" y="348"/>
      <point x="279" y="386"/>
      <point x="279" y="460" type="curve" smooth="yes"/>
      <point x="279" y="524"/>
      <point x="230" y="585"/>
      <point x="158" y="585" type="curve" smooth="yes"/>
      <point x="94" y="585"/>
      <point x="42" y="537"/>
      <point x="42" y="470" type="curve" smooth="yes"/>
      <point x="42" y="398"/>
      <point x="102" y="348"/>
      <point x="162" y="348" type="curve" smooth="yes"/>
    </contour>
    <contour>
      <point x="192" y="444"/>
      <point x="176" y="436"/>
      <point x="163" y="436" type="curve" smooth="yes"/>
      <point x="148" y="436"/>
      <point x="130" y="448"/>
      <point x="130" y="469" type="curve" smooth="yes"/>
      <point x="130" y="490"/>
      <point x="146" y="501"/>
      <point x="161" y="501" type="curve" smooth="yes"/>
      <point x="177" y="501"/>
      <point x="192" y="486"/>
      <point x="192" y="466" type="curve" smooth="yes"/>
    </contour>
  </outline>
</glyph>
<glyph name="uni0983" format="1">
  <advance width="407"/>
  <unicode hex="0983"/>
  <note>
	uni0983
  </note>
  <outline>
    <contour>
      <point x="258" y="338"/>
      <point x="326" y="377"/>
      <point x="326" y="458" type="curve" smooth="yes"/>
      <point x="326" y="522"/>
      <point x="276" y="587"/>
      <point x="199" y="587" type="curve" smooth="yes"/>
      <point x="134" y="587"/>
      <point x="79" y="538"/>
      <point x="79" y="467" type="curve" smooth="yes"/>
      <point x="79" y="391"/>
      <point x="139" y="338"/>
      <point x="205" y="338" type="curve" smooth="yes"/>
    </contour>
    <contour>
      <point x="236" y="438"/>
      <point x="219" y="429"/>
      <point x="205" y="429" type="curve" smooth="yes"/>
      <point x="189" y="429"/>
      <point x="170" y="442"/>
      <point x="170" y="464" type="curve" smooth="yes"/>
      <point x="170" y="486"/>
      <point x="187" y="497"/>
      <point x="203" y="497" type="curve" smooth="yes"/>
      <point x="220" y="497"/>
      <point x="236" y="482"/>
      <point x="236" y="461" type="curve" smooth="yes"/>
    </contour>
    <contour>
      <point x="258" y="50"/>
      <point x="326" y="89"/>
      <point x="326" y="170" type="curve" smooth="yes"/>
      <point x="326" y="234"/>
      <point x="276" y="299"/>
      <point x="199" y="299" type="curve" smooth="yes"/>
      <point x="134" y="299"/>
      <point x="79" y="250"/>
      <point x="79" y="179" type="curve" smooth="yes"/>
      <point x="79" y="103"/>
      <point x="139" y="50"/>
      <point x="205" y="50" type="curve" smooth="yes"/>
    </contour>
    <contour>
      <point x="236" y="150"/>
      <point x="219" y="141"/>
      <point x="205" y="141" type="curve" smooth="yes"/>
      <point x="189" y="141"/>
      <point x="170" y="154"/>
      <point x="170" y="176" type="curve" smooth="yes"/>
      <point x="170" y="198"/>
      <point x="187" y="209"/>
      <point x="203" y="209" type="curve" smooth="yes"/>
      <point x="220" y="209"/>
      <point x="236" y="194"/>
      <point x="236" y="173" type="curve" smooth="yes"/>
    </contour>
  </outline>
</glyph>
<glyph name="uni0985" format="1">
  <advance width="732"/>
  <unicode hex="0985"/>
  <note>
	uni0985
  </note>
  <outline>
    <contour>
      <point x="646" y="64" type="line"/>
      <point x="646" y="130"/>
      <point x="549" y="232"/>
      <point x="478" y="301" type="curve"/>
      <point x="456" y="204" type="line"/>
      <point x="508" y="152"/>
      <point x="559" y="104"/>
      <point x="559" y="64" type="curve"/>
    </contour>
    <contour>
      <point x="239" y="480"/>
      <point x="184" y="435"/>
      <point x="184" y="362" type="curve" smooth="yes"/>
      <point x="184" y="294"/>
      <point x="235" y="245"/>
      <point x="302" y="245" type="curve" smooth="yes"/>
      <point x="368" y="245"/>
      <point x="409" y="294"/>
      <point x="409" y="350" type="curve" smooth="yes"/>
      <point x="409" y="377"/>
      <point x="384" y="421"/>
      <point x="370" y="421" type="curve"/>
      <point x="352" y="376" type="line"/>
      <point x="374" y="376"/>
      <point x="417" y="332"/>
      <point x="417" y="271" type="curve" smooth="yes"/>
      <point x="417" y="203"/>
      <point x="360" y="165"/>
      <point x="299" y="165" type="curve" smooth="yes"/>
      <point x="172" y="165"/>
      <point x="131" y="293"/>
      <point x="92" y="412" type="curve" smooth="yes"/>
      <point x="81" y="446"/>
      <point x="65" y="453"/>
      <point x="44" y="453" type="curve" smooth="yes"/>
      <point x="12" y="453"/>
      <point x="-1" y="424"/>
      <point x="3" y="396" type="curve" smooth="yes"/>
      <point x="18" y="288"/>
      <point x="109" y="59"/>
      <point x="304" y="59" type="curve" smooth="yes"/>
      <point x="416" y="59"/>
      <point x="519" y="141"/>
      <point x="519" y="268" type="curve" smooth="yes"/>
      <point x="519" y="396"/>
      <point x="423" y="480"/>
      <point x="324" y="480" type="curve" smooth="yes"/>
    </contour>
    <contour>
      <point x="285" y="331"/>
      <point x="271" y="346"/>
      <point x="271" y="361" type="curve" smooth="yes"/>
      <point x="271" y="377"/>
      <point x="285" y="390"/>
      <point x="301" y="390" type="curve" smooth="yes"/>
      <point x="317" y="390"/>
      <point x="330" y="377"/>
      <point x="330" y="361" type="curve" smooth="yes"/>
      <point x="330" y="346"/>
      <point x="317" y="331"/>
      <point x="301" y="331" type="curve" smooth="yes"/>
    </contour>
    <contour>
      <point x="650" y="-12"/>
      <point x="665" y="17"/>
      <point x="665" y="64" type="curve" smooth="yes"/>
      <point x="666" y="335" type="line" smooth="yes"/>
      <point x="666" y="491"/>
      <point x="670" y="513"/>
      <point x="675" y="583" type="curve" smooth="yes"/>
      <point x="676" y="597"/>
      <point x="671" y="609"/>
      <point x="645" y="609" type="curve" smooth="yes"/>
      <point x="579" y="609"/>
      <point x="562" y="492"/>
      <point x="561" y="335" type="curve" smooth="yes"/>
      <point x="559" y="64" type="line" smooth="yes"/>
      <point x="559" y="13"/>
      <point x="581" y="-12"/>
      <point x="614" y="-12" type="curve" smooth="yes"/>
    </contour>
    <contour>
      <point x="603" y="492" type="line"/>
      <point x="604" y="540"/>
      <point x="570" y="587"/>
      <point x="488" y="587" type="curve" smooth="yes"/>
      <point x="0" y="587" type="line" smooth="yes"/>
      <point x="-18" y="587"/>
      <point x="-45" y="582"/>
      <point x="-45" y="546" type="curve" smooth="yes"/>
      <point x="-45" y="512"/>
      <point x="-18" y="502"/>
      <point x="0" y="502" type="curve" smooth="yes"/>
      <point x="473" y="502" type="line" smooth="yes"/>
      <point x="536" y="502"/>
      <point x="564" y="482"/>
      <point x="564" y="424" type="curve"/>
    </contour>
    <contour>
      <point x="781" y="577"/>
      <point x="760" y="587"/>
      <point x="732" y="587" type="curve" smooth="yes"/>
      <point x="708" y="587" type="line" smooth="yes"/>
      <point x="690" y="587"/>
      <point x="677" y="584"/>
      <point x="674" y="594" type="curve"/>
      <point x="660" y="582" type="line"/>
      <point x="660" y="557"/>
      <point x="669" y="502"/>
      <point x="720" y="502" type="curve" smooth="yes"/>
      <point x="732" y="502" type="line" smooth="yes"/>
      <point x="763" y="502"/>
      <point x="781" y="519"/>
      <point x="781" y="546" type="curve" smooth="yes"/>
    </contour>
  </outline>
</glyph>
<glyph name="uni0986" format="1">
  <advance width="965"/>
  <unicode hex="0986"/>
  <note>
	uni0986
  </note>
  <outline>
    <contour>
      <point x="839" y="482" type="line"/>
      <point x="839" y="519"/>
      <point x="832" y="587"/>
      <point x="763" y="587" type="curve" smooth="yes"/>
      <point x="746" y="587" type="line" smooth="yes"/>
      <point x="730" y="587"/>
      <point x="701" y="582"/>
      <point x="701" y="546" type="curve" smooth="yes"/>
      <point x="701" y="511"/>
      <point x="728" y="502"/>
      <point x="746" y="502" type="curve" smooth="yes"/>
      <point x="749" y="502" type="line" smooth="yes"/>
      <point x="795" y="502"/>
      <point x="799" y="495"/>
      <point x="799" y="436" type="curve"/>
    </contour>
    <contour>
      <point x="884" y="-12"/>
      <point x="899" y="17"/>
      <point x="899" y="64" type="curve" smooth="yes"/>
      <point x="900" y="335" type="line" smooth="yes"/>
      <point x="900" y="491"/>
      <point x="904" y="513"/>
      <point x="909" y="583" type="curve" smooth="yes"/>
      <point x="910" y="597"/>
      <point x="905" y="609"/>
      <point x="879" y="609" type="curve" smooth="yes"/>
      <point x="813" y="609"/>
      <point x="796" y="492"/>
      <point x="795" y="335" type="curve" smooth="yes"/>
      <point x="793" y="64" type="line" smooth="yes"/>
      <point x="793" y="13"/>
      <point x="815" y="-12"/>
      <point x="848" y="-12" type="curve" smooth="yes"/>
    </contour>
    <contour>
      <point x="1015" y="577"/>
      <point x="994" y="587"/>
      <point x="966" y="587" type="curve" smooth="yes"/>
      <point x="942" y="587" type="line" smooth="yes"/>
      <point x="924" y="587"/>
      <point x="911" y="585"/>
      <point x="908" y="595" type="curve"/>
      <point x="894" y="582" type="line"/>
      <point x="894" y="557"/>
      <point x="903" y="502"/>
      <point x="954" y="502" type="curve" smooth="yes"/>
      <point x="966" y="502" type="line" smooth="yes"/>
      <point x="997" y="502"/>
      <point x="1015" y="519"/>
      <point x="1015" y="546" type="curve" smooth="yes"/>
    </contour>
    <contour>
      <point x="646" y="64" type="line"/>
      <point x="646" y="130"/>
      <point x="549" y="232"/>
      <point x="478" y="301" type="curve"/>
      <point x="456" y="204" type="line"/>
      <point x="508" y="152"/>
      <point x="559" y="104"/>
      <point x="559" y="64" type="curve"/>
    </contour>
    <contour>
      <point x="239" y="480"/>
      <point x="184" y="435"/>
      <point x="184" y="362" type="curve" smooth="yes"/>
      <point x="184" y="294"/>
      <point x="235" y="245"/>
      <point x="302" y="245" type="curve" smooth="yes"/>
      <point x="368" y="245"/>
      <point x="409" y="294"/>
      <point x="409" y="350" type="curve" smooth="yes"/>
      <point x="409" y="377"/>
      <point x="384" y="421"/>
      <point x="370" y="421" type="curve"/>
      <point x="352" y="376" type="line"/>
      <point x="374" y="376"/>
      <point x="417" y="332"/>
      <point x="417" y="271" type="curve" smooth="yes"/>
      <point x="417" y="203"/>
      <point x="360" y="165"/>
      <point x="299" y="165" type="curve" smooth="yes"/>
      <point x="172" y="165"/>
      <point x="131" y="293"/>
      <point x="92" y="412" type="curve" smooth="yes"/>
      <point x="81" y="446"/>
      <point x="65" y="453"/>
      <point x="44" y="453" type="curve" smooth="yes"/>
      <point x="12" y="453"/>
      <point x="-1" y="424"/>
      <point x="3" y="396" type="curve" smooth="yes"/>
      <point x="18" y="288"/>
      <point x="109" y="59"/>
      <point x="304" y="59" type="curve" smooth="yes"/>
      <point x="416" y="59"/>
      <point x="519" y="141"/>
      <point x="519" y="268" type="curve" smooth="yes"/>
      <point x="519" y="396"/>
      <point x="423" y="480"/>
      <point x="324" y="480" type="curve" smooth="yes"/>
    </contour>
    <contour>
      <point x="285" y="331"/>
      <point x="271" y="346"/>
      <point x="271" y="361" type="curve" smooth="yes"/>
      <point x="271" y="377"/>
      <point x="285" y="390"/>
      <point x="301" y="390" type="curve" smooth="yes"/>
      <point x="317" y="390"/>
      <point x="330" y="377"/>
      <point x="330" y="361" type="curve" smooth="yes"/>
      <point x="330" y="346"/>
      <point x="317" y="331"/>
      <point x="301" y="331" type="curve" smooth="yes"/>
    </contour>
    <contour>
      <point x="650" y="-12"/>
      <point x="665" y="17"/>
      <point x="665" y="64" type="curve" smooth="yes"/>
      <point x="666" y="335" type="line" smooth="yes"/>
      <point x="666" y="491"/>
      <point x="670" y="513"/>
      <point x="675" y="583" type="curve" smooth="yes"/>
      <point x="676" y="597"/>
      <point x="671" y="609"/>
      <point x="645" y="609" type="curve" smooth="yes"/>
      <point x="579" y="609"/>
      <point x="562" y="492"/>
      <point x="561" y="335" type="curve" smooth="yes"/>
      <point x="559" y="64" type="line" smooth="yes"/>
      <point x="559" y="13"/>
      <point x="581" y="-12"/>
      <point x="614" y="-12" type="curve" smooth="yes"/>
    </contour>
    <contour>
      <point x="603" y="492" type="line"/>
      <point x="604" y="540"/>
      <point x="570" y="587"/>
      <point x="488" y="587" type="curve" smooth="yes"/>
      <point x="0" y="587" type="line" smooth="yes"/>
      <point x="-18" y="587"/>
      <point x="-45" y="582"/>
      <point x="-45" y="546" type="curve" smooth="yes"/>
      <point x="-45" y="512"/>
      <point x="-18" y="502"/>
      <point x="0" y="502" type="curve" smooth="yes"/>
      <point x="473" y="502" type="line" smooth="yes"/>
      <point x="536" y="502"/>
      <point x="564" y="482"/>
      <point x="564" y="424" type="curve"/>
    </contour>
    <contour>
      <point x="781" y="577"/>
      <point x="760" y="587"/>
      <point x="732" y="587" type="curve" smooth="yes"/>
      <point x="708" y="587" type="line" smooth="yes"/>
      <point x="690" y="587"/>
      <point x="677" y="584"/>
      <point x="674" y="594" type="curve"/>
      <point x="660" y="582" type="line"/>
      <point x="660" y="557"/>
      <point x="669" y="502"/>
      <point x="720" y="502" type="curve" smooth="yes"/>
      <point x="732" y="502" type="line" smooth="yes"/>
      <point x="763" y="502"/>
      <point x="781" y="519"/>
      <point x="781" y="546" type="curve" smooth="yes"/>
    </contour>
  </outline>
</glyph>
<glyph name="uni0987" format="1">
  <advance width="488"/>
  <unicode hex="0987"/>
  <note>
	uni0987
  </note>
  <outline>
    <contour>
      <point x="447" y="-40"/>
      <point x="468" y="-20"/>
      <point x="468" y="-3" type="curve" smooth="yes"/>
      <point x="468" y="11"/>
      <point x="460" y="41"/>
      <point x="412" y="41" type="curve" smooth="yes"/>
      <point x="321" y="41"/>
      <point x="286" y="248"/>
      <point x="151" y="248" type="curve" smooth="yes"/>
      <point x="94" y="248"/>
      <point x="56" y="206"/>
      <point x="56" y="159" type="curve" smooth="yes"/>
      <point x="56" y="102"/>
      <point x="103" y="60"/>
      <point x="181" y="60" type="curve" smooth="yes"/>
      <point x="306" y="60"/>
      <point x="416" y="169"/>
      <point x="416" y="283" type="curve" smooth="yes"/>
      <point x="416" y="398"/>
      <point x="332" y="480"/>
      <point x="232" y="480" type="curve" smooth="yes"/>
      <point x="150" y="480"/>
      <point x="62" y="443"/>
      <point x="62" y="359" type="curve" smooth="yes"/>
      <point x="62" y="308"/>
      <point x="102" y="265"/>
      <point x="165" y="265" type="curve" smooth="yes"/>
      <point x="224" y="265"/>
      <point x="257" y="310"/>
      <point x="257" y="356" type="curve" smooth="yes"/>
      <point x="257" y="405"/>
      <point x="224" y="439"/>
      <point x="190" y="439" type="curve"/>
      <point x="205" y="404" type="line"/>
      <point x="260" y="404"/>
      <point x="321" y="365"/>
      <point x="321" y="287" type="curve" smooth="yes"/>
      <point x="321" y="206"/>
      <point x="260" y="144"/>
      <point x="168" y="144" type="curve" smooth="yes"/>
      <point x="150" y="144"/>
      <point x="134" y="149"/>
      <point x="134" y="159" type="curve" smooth="yes"/>
      <point x="134" y="165"/>
      <point x="140" y="169"/>
      <point x="150" y="169" type="curve" smooth="yes"/>
      <point x="196" y="169"/>
      <point x="276" y="-40"/>
      <point x="417" y="-40" type="curve" smooth="yes"/>
    </contour>
    <contour>
      <point x="147" y="334"/>
      <point x="133" y="348"/>
      <point x="133" y="365" type="curve" smooth="yes"/>
      <point x="134" y="384"/>
      <point x="150" y="392"/>
      <point x="163" y="392" type="curve" smooth="yes"/>
      <point x="181" y="392"/>
      <point x="191" y="378"/>
      <point x="191" y="363" type="curve" smooth="yes"/>
      <point x="191" y="343"/>
      <point x="174" y="334"/>
      <point x="163" y="334" type="curve" smooth="yes"/>
    </contour>
    <contour>
      <point x="488" y="502" type="line" smooth="yes"/>
      <point x="499" y="502"/>
      <point x="529" y="509"/>
      <point x="529" y="545" type="curve" smooth="yes"/>
      <point x="529" y="578"/>
      <point x="501" y="587"/>
      <point x="488" y="587" type="curve" smooth="yes"/>
      <point x="0" y="587" type="line" smooth="yes"/>
      <point x="-18" y="587"/>
      <point x="-45" y="578"/>
      <point x="-45" y="545" type="curve" smooth="yes"/>
      <point x="-45" y="509"/>
      <point x="-18" y="502"/>
      <point x="0" y="502" type="curve" smooth="yes"/>
    </contour>
    <contour>
      <point x="412" y="544" type="line"/>
      <point x="412" y="678"/>
      <point x="369" y="739"/>
      <point x="281" y="739" type="curve" smooth="yes"/>
      <point x="224" y="739"/>
      <point x="169" y="711"/>
      <point x="123" y="711" type="curve" smooth="yes"/>
      <point x="79" y="711"/>
      <point x="63" y="742"/>
      <point x="58" y="779" type="curve" smooth="yes"/>
      <point x="53" y="813"/>
      <point x="37" y="826"/>
      <point x="18" y="826" type="curve" smooth="yes"/>
      <point x="-8" y="826"/>
      <point x="-17" y="805"/>
      <point x="-17" y="782" type="curve" smooth="yes"/>
      <point x="-17" y="705"/>
      <point x="25" y="624"/>
      <point x="128" y="624" type="curve" smooth="yes"/>
      <point x="196" y="624"/>
      <point x="233" y="648"/>
      <point x="278" y="648" type="curve" smooth="yes"/>
      <point x="326" y="648"/>
      <point x="326" y="607"/>
      <point x="326" y="544" type="curve"/>
    </contour>
  </outline>
</glyph>
<glyph name="uni0988" format="1">
  <advance width="538"/>
  <unicode hex="0988"/>
  <note>
	uni0988
  </note>
  <outline>
    <contour>
      <point x="116" y="335"/>
      <point x="102" y="349"/>
      <point x="102" y="366" type="curve" smooth="yes"/>
      <point x="103" y="385"/>
      <point x="117" y="393"/>
      <point x="131" y="393" type="curve" smooth="yes"/>
      <point x="149" y="393"/>
      <point x="160" y="379"/>
      <point x="160" y="364" type="curve" smooth="yes"/>
      <point x="160" y="344"/>
      <point x="145" y="335"/>
      <point x="131" y="335" type="curve" smooth="yes"/>
    </contour>
    <contour>
      <point x="317" y="235" type="line"/>
      <point x="324" y="244"/>
      <point x="357" y="273"/>
      <point x="357" y="341" type="curve" smooth="yes"/>
      <point x="357" y="396"/>
      <point x="300" y="483"/>
      <point x="185" y="483" type="curve" smooth="yes"/>
      <point x="104" y="483"/>
      <point x="32" y="436"/>
      <point x="32" y="359" type="curve" smooth="yes"/>
      <point x="32" y="317"/>
      <point x="64" y="258"/>
      <point x="131" y="258" type="curve" smooth="yes"/>
      <point x="206" y="258"/>
      <point x="232" y="317"/>
      <point x="232" y="362" type="curve" smooth="yes"/>
      <point x="232" y="406"/>
      <point x="199" y="439"/>
      <point x="157" y="439" type="curve"/>
      <point x="169" y="406" type="line"/>
      <point x="260" y="406"/>
      <point x="287" y="347"/>
      <point x="287" y="305" type="curve" smooth="yes"/>
      <point x="287" y="281"/>
      <point x="282" y="235"/>
      <point x="235" y="204" type="curve"/>
    </contour>
    <contour>
      <point x="322" y="216" type="move"/>
    </contour>
    <contour>
      <point x="487" y="8"/>
      <point x="501" y="22"/>
      <point x="501" y="44" type="curve" smooth="yes"/>
      <point x="501" y="86"/>
      <point x="427" y="134"/>
      <point x="427" y="235" type="curve" smooth="yes"/>
      <point x="427" y="342"/>
      <point x="519" y="359"/>
      <point x="519" y="411" type="curve" smooth="yes"/>
      <point x="519" y="436"/>
      <point x="501" y="451"/>
      <point x="477" y="451" type="curve" smooth="yes"/>
      <point x="394" y="451"/>
      <point x="289" y="180"/>
      <point x="172" y="180" type="curve" smooth="yes"/>
      <point x="127" y="180"/>
      <point x="122" y="220"/>
      <point x="90" y="220" type="curve" smooth="yes"/>
      <point x="64" y="220"/>
      <point x="54" y="200"/>
      <point x="54" y="185" type="curve" smooth="yes"/>
      <point x="54" y="139"/>
      <point x="115" y="91"/>
      <point x="173" y="91" type="curve" smooth="yes"/>
      <point x="287" y="91"/>
      <point x="359" y="201"/>
      <point x="406" y="267" type="curve"/>
      <point x="342" y="251" type="line"/>
      <point x="342" y="213"/>
      <point x="358" y="106"/>
      <point x="403" y="48" type="curve" smooth="yes"/>
      <point x="430" y="13"/>
      <point x="451" y="8"/>
      <point x="467" y="8" type="curve" smooth="yes"/>
    </contour>
    <contour>
      <point x="462" y="544" type="line"/>
      <point x="462" y="678"/>
      <point x="419" y="739"/>
      <point x="331" y="739" type="curve" smooth="yes"/>
      <point x="274" y="739"/>
      <point x="219" y="711"/>
      <point x="173" y="711" type="curve" smooth="yes"/>
      <point x="119" y="711"/>
      <point x="103" y="742"/>
      <point x="98" y="779" type="curve" smooth="yes"/>
      <point x="93" y="813"/>
      <point x="77" y="826"/>
      <point x="54" y="826" type="curve" smooth="yes"/>
      <point x="32" y="826"/>
      <point x="23" y="805"/>
      <point x="23" y="782" type="curve" smooth="yes"/>
      <point x="23" y="678"/>
      <point x="77" y="622"/>
      <point x="178" y="622" type="curve" smooth="yes"/>
      <point x="246" y="622"/>
      <point x="283" y="646"/>
      <point x="328" y="646" type="curve" smooth="yes"/>
      <point x="376" y="646"/>
      <point x="376" y="607"/>
      <point x="376" y="544" type="curve"/>
    </contour>
    <contour>
      <point x="538" y="502" type="line" smooth="yes"/>
      <point x="549" y="502"/>
      <point x="579" y="509"/>
      <point x="579" y="545" type="curve" smooth="yes"/>
      <point x="579" y="578"/>
      <point x="551" y="587"/>
      <point x="538" y="587" type="curve" smooth="yes"/>
      <point x="0" y="587" type="line" smooth="yes"/>
      <point x="-18" y="587"/>
      <point x="-45" y="578"/>
      <point x="-45" y="545" type="curve" smooth="yes"/>
      <point x="-45" y="509"/>
      <point x="-18" y="502"/>
      <point x="0" y="502" type="curve" smooth="yes"/>
    </contour>
  </outline>
</glyph>
<glyph name="uni0989" format="1">
  <advance width="593"/>
  <unicode hex="0989"/>
  <note>
	uni0989
  </note>
  <outline>
    <contour>
      <point x="533" y="564" type="line"/>
      <point x="533" y="703"/>
      <point x="470" y="752"/>
      <point x="380" y="752" type="curve" smooth="yes"/>
      <point x="282" y="752"/>
      <point x="211" y="706"/>
      <point x="140" y="706" type="curve" smooth="yes"/>
      <point x="92" y="706"/>
      <point x="74" y="732"/>
      <point x="65" y="781" type="curve" smooth="yes"/>
      <point x="62" y="799"/>
      <point x="56" y="827"/>
      <point x="25" y="827" type="curve" smooth="yes"/>
      <point x="5" y="827"/>
      <point x="-15" y="815"/>
      <point x="-15" y="775" type="curve" smooth="yes"/>
      <point x="-15" y="710"/>
      <point x="36" y="617"/>
      <point x="153" y="617" type="curve" smooth="yes"/>
      <point x="229" y="617"/>
      <point x="308" y="657"/>
      <point x="372" y="657" type="curve" smooth="yes"/>
      <point x="437" y="657"/>
      <point x="443" y="617"/>
      <point x="443" y="564" type="curve"/>
    </contour>
    <contour>
      <point x="475" y="13"/>
      <point x="562" y="102"/>
      <point x="562" y="224" type="curve" smooth="yes"/>
      <point x="562" y="321"/>
      <point x="507" y="405"/>
      <point x="465" y="405" type="curve" smooth="yes"/>
      <point x="416" y="405"/>
      <point x="442" y="307"/>
      <point x="367" y="307" type="curve" smooth="yes"/>
      <point x="326" y="307"/>
      <point x="306" y="341"/>
      <point x="306" y="380" type="curve" smooth="yes"/>
      <point x="306" y="448"/>
      <point x="333" y="502"/>
      <point x="397" y="502" type="curve" smooth="yes"/>
      <point x="593" y="502" type="line" smooth="yes"/>
      <point x="603" y="502"/>
      <point x="630" y="508"/>
      <point x="630" y="545" type="curve" smooth="yes"/>
      <point x="630" y="581"/>
      <point x="600" y="587"/>
      <point x="593" y="587" type="curve" smooth="yes"/>
      <point x="379" y="587" type="line" smooth="yes"/>
      <point x="274" y="587"/>
      <point x="220" y="504"/>
      <point x="220" y="393" type="curve" smooth="yes"/>
      <point x="220" y="284"/>
      <point x="273" y="205"/>
      <point x="363" y="205" type="curve" smooth="yes"/>
      <point x="455" y="205"/>
      <point x="479" y="287"/>
      <point x="479" y="306" type="curve"/>
      <point x="449" y="306" type="line"/>
      <point x="460" y="289"/>
      <point x="470" y="257"/>
      <point x="470" y="228" type="curve" smooth="yes"/>
      <point x="470" y="159"/>
      <point x="423" y="118"/>
      <point x="352" y="118" type="curve" smooth="yes"/>
      <point x="232" y="118"/>
      <point x="134" y="234"/>
      <point x="104" y="422" type="curve" smooth="yes"/>
      <point x="100" y="446"/>
      <point x="97" y="468"/>
      <point x="66" y="468" type="curve" smooth="yes"/>
      <point x="29" y="468"/>
      <point x="25" y="435"/>
      <point x="25" y="412" type="curve" smooth="yes"/>
      <point x="25" y="289"/>
      <point x="142" y="13"/>
      <point x="354" y="13" type="curve" smooth="yes"/>
    </contour>
    <contour>
      <point x="288" y="512" type="line"/>
      <point x="288" y="553"/>
      <point x="237" y="587"/>
      <point x="173" y="587" type="curve" smooth="yes"/>
      <point x="0" y="587" type="line" smooth="yes"/>
      <point x="-7" y="587"/>
      <point x="-38" y="582"/>
      <point x="-38" y="545" type="curve" smooth="yes"/>
      <point x="-38" y="511"/>
      <point x="-9" y="502"/>
      <point x="0" y="502" type="curve" smooth="yes"/>
      <point x="174" y="502" type="line" smooth="yes"/>
      <point x="246" y="502"/>
      <point x="222" y="452"/>
      <point x="222" y="426" type="curve"/>
    </contour>
  </outline>
</glyph>
<glyph name="uni098A" format="1">
  <advance width="643"/>
  <unicode hex="098A"/>
  <note>
	uni098A
  </note>
  <outline>
    <contour>
      <point x="583" y="564" type="line"/>
      <point x="583" y="703"/>
      <point x="520" y="752"/>
      <point x="430" y="752" type="curve" smooth="yes"/>
      <point x="332" y="752"/>
      <point x="251" y="706"/>
      <point x="180" y="706" type="curve" smooth="yes"/>
      <point x="132" y="706"/>
      <point x="114" y="732"/>
      <point x="105" y="781" type="curve" smooth="yes"/>
      <point x="102" y="799"/>
      <point x="96" y="827"/>
      <point x="65" y="827" type="curve" smooth="yes"/>
      <point x="45" y="827"/>
      <point x="25" y="815"/>
      <point x="25" y="775" type="curve" smooth="yes"/>
      <point x="25" y="710"/>
      <point x="76" y="617"/>
      <point x="193" y="617" type="curve" smooth="yes"/>
      <point x="269" y="617"/>
      <point x="358" y="657"/>
      <point x="422" y="657" type="curve" smooth="yes"/>
      <point x="487" y="657"/>
      <point x="493" y="617"/>
      <point x="493" y="564" type="curve"/>
    </contour>
    <contour>
      <point x="515" y="12"/>
      <point x="612" y="98"/>
      <point x="612" y="234" type="curve" smooth="yes"/>
      <point x="612" y="337"/>
      <point x="557" y="405"/>
      <point x="515" y="405" type="curve" smooth="yes"/>
      <point x="466" y="405"/>
      <point x="492" y="307"/>
      <point x="417" y="307" type="curve" smooth="yes"/>
      <point x="376" y="307"/>
      <point x="356" y="337"/>
      <point x="356" y="387" type="curve" smooth="yes"/>
      <point x="356" y="445"/>
      <point x="383" y="502"/>
      <point x="447" y="502" type="curve" smooth="yes"/>
      <point x="643" y="502" type="line" smooth="yes"/>
      <point x="653" y="502"/>
      <point x="680" y="508"/>
      <point x="680" y="545" type="curve" smooth="yes"/>
      <point x="680" y="581"/>
      <point x="650" y="587"/>
      <point x="643" y="587" type="curve" smooth="yes"/>
      <point x="429" y="587" type="line" smooth="yes"/>
      <point x="324" y="587"/>
      <point x="270" y="504"/>
      <point x="270" y="393" type="curve" smooth="yes"/>
      <point x="270" y="284"/>
      <point x="323" y="205"/>
      <point x="413" y="205" type="curve" smooth="yes"/>
      <point x="505" y="205"/>
      <point x="532" y="287"/>
      <point x="532" y="306" type="curve"/>
      <point x="493" y="299" type="line"/>
      <point x="505" y="289"/>
      <point x="520" y="255"/>
      <point x="520" y="229" type="curve" smooth="yes"/>
      <point x="520" y="191"/>
      <point x="489" y="118"/>
      <point x="376" y="118" type="curve" smooth="yes"/>
      <point x="232" y="118"/>
      <point x="126" y="201"/>
      <point x="94" y="422" type="curve" smooth="yes"/>
      <point x="91" y="444"/>
      <point x="87" y="468"/>
      <point x="56" y="468" type="curve" smooth="yes"/>
      <point x="19" y="468"/>
      <point x="15" y="435"/>
      <point x="15" y="413" type="curve" smooth="yes"/>
      <point x="15" y="289"/>
      <point x="143" y="12"/>
      <point x="382" y="12" type="curve" smooth="yes"/>
    </contour>
    <contour>
      <point x="338" y="512" type="line"/>
      <point x="338" y="553"/>
      <point x="287" y="587"/>
      <point x="223" y="587" type="curve" smooth="yes"/>
      <point x="0" y="587" type="line" smooth="yes"/>
      <point x="-7" y="587"/>
      <point x="-38" y="582"/>
      <point x="-38" y="545" type="curve" smooth="yes"/>
      <point x="-38" y="511"/>
      <point x="-9" y="502"/>
      <point x="0" y="502" type="curve" smooth="yes"/>
      <point x="224" y="502" type="line" smooth="yes"/>
      <point x="296" y="502"/>
      <point x="272" y="452"/>
      <point x="272" y="426" type="curve"/>
    </contour>
    <contour>
      <point x="386" y="118" type="line"/>
      <point x="251" y="118"/>
      <point x="195" y="220"/>
      <point x="195" y="440" type="curve" smooth="yes"/>
      <point x="195" y="459"/>
      <point x="185" y="480"/>
      <point x="161" y="480" type="curve" smooth="yes"/>
      <point x="136" y="480"/>
      <point x="126" y="455"/>
      <point x="126" y="422" type="curve" smooth="yes"/>
      <point x="126" y="256"/>
      <point x="163" y="130"/>
      <point x="326" y="52" type="curve"/>
    </contour>
    <contour>
      <point x="532" y="306" type="move"/>
    </contour>
  </outline>
</glyph>
<glyph name="uni098B" format="1">
  <advance width="665"/>
  <unicode hex="098B"/>
  <note>
	uni098B
  </note>
  <outline>
    <contour>
      <point x="436" y="234" type="line"/>
      <point x="436" y="196"/>
      <point x="492" y="154"/>
      <point x="492" y="104" type="curve"/>
      <point x="556" y="114" type="line"/>
      <point x="556" y="208"/>
      <point x="462" y="260"/>
      <point x="462" y="322" type="curve"/>
    </contour>
    <contour>
      <point x="131" y="523"/>
      <point x="140" y="508"/>
      <point x="140" y="494" type="curve" smooth="yes"/>
      <point x="140" y="473"/>
      <point x="124" y="465"/>
      <point x="111" y="465" type="curve" smooth="yes"/>
      <point x="96" y="465"/>
      <point x="82" y="474"/>
      <point x="82" y="494" type="curve" smooth="yes"/>
      <point x="82" y="511"/>
      <point x="95" y="523"/>
      <point x="111" y="523" type="curve" smooth="yes"/>
    </contour>
    <contour>
      <point x="356" y="329"/>
      <point x="399" y="374"/>
      <point x="399" y="486" type="curve" smooth="yes"/>
      <point x="399" y="543"/>
      <point x="351" y="587"/>
      <point x="301" y="587" type="curve" smooth="yes"/>
      <point x="227" y="587"/>
      <point x="200" y="510"/>
      <point x="189" y="510" type="curve"/>
      <point x="192" y="490" type="line"/>
      <point x="212" y="539"/>
      <point x="174" y="597"/>
      <point x="110" y="597" type="curve" smooth="yes"/>
      <point x="49" y="597"/>
      <point x="14" y="551"/>
      <point x="14" y="500" type="curve" smooth="yes"/>
      <point x="14" y="442"/>
      <point x="55" y="388"/>
      <point x="128" y="388" type="curve" smooth="yes"/>
      <point x="248" y="388"/>
      <point x="276" y="502"/>
      <point x="306" y="502" type="curve" smooth="yes"/>
      <point x="317" y="502"/>
      <point x="327" y="492"/>
      <point x="327" y="476" type="curve" smooth="yes"/>
      <point x="327" y="444"/>
      <point x="292" y="410"/>
      <point x="89" y="324" type="curve" smooth="yes"/>
      <point x="63" y="313"/>
      <point x="51" y="293"/>
      <point x="51" y="274" type="curve" smooth="yes"/>
      <point x="51" y="238"/>
      <point x="77" y="216"/>
      <point x="116" y="205" type="curve" smooth="yes"/>
      <point x="162" y="192"/>
      <point x="355" y="164"/>
      <point x="355" y="64" type="curve"/>
      <point x="436" y="72" type="line"/>
      <point x="436" y="182"/>
      <point x="322" y="245"/>
      <point x="209" y="266" type="curve"/>
    </contour>
    <contour>
      <point x="446" y="-12"/>
      <point x="461" y="17"/>
      <point x="461" y="64" type="curve" smooth="yes"/>
      <point x="462" y="335" type="line" smooth="yes"/>
      <point x="462" y="491"/>
      <point x="466" y="513"/>
      <point x="471" y="583" type="curve" smooth="yes"/>
      <point x="472" y="597"/>
      <point x="467" y="609"/>
      <point x="441" y="609" type="curve" smooth="yes"/>
      <point x="375" y="609"/>
      <point x="358" y="492"/>
      <point x="357" y="335" type="curve" smooth="yes"/>
      <point x="355" y="64" type="line" smooth="yes"/>
      <point x="355" y="13"/>
      <point x="377" y="-12"/>
      <point x="410" y="-12" type="curve" smooth="yes"/>
    </contour>
    <contour>
      <point x="583" y="28"/>
      <point x="598" y="57"/>
      <point x="598" y="104" type="curve" smooth="yes"/>
      <point x="599" y="335" type="line" smooth="yes"/>
      <point x="600" y="491"/>
      <point x="603" y="513"/>
      <point x="608" y="583" type="curve" smooth="yes"/>
      <point x="609" y="597"/>
      <point x="604" y="609"/>
      <point x="578" y="609" type="curve" smooth="yes"/>
      <point x="512" y="609"/>
      <point x="495" y="492"/>
      <point x="494" y="335" type="curve" smooth="yes"/>
      <point x="492" y="104" type="line" smooth="yes"/>
      <point x="492" y="53"/>
      <point x="514" y="28"/>
      <point x="547" y="28" type="curve" smooth="yes"/>
    </contour>
    <contour>
      <point x="714" y="577"/>
      <point x="693" y="587"/>
      <point x="665" y="587" type="curve" smooth="yes"/>
      <point x="641" y="587" type="line" smooth="yes"/>
      <point x="623" y="587"/>
      <point x="610" y="585"/>
      <point x="607" y="595" type="curve"/>
      <point x="593" y="582" type="line"/>
      <point x="593" y="557"/>
      <point x="602" y="502"/>
      <point x="653" y="502" type="curve" smooth="yes"/>
      <point x="665" y="502" type="line" smooth="yes"/>
      <point x="696" y="502"/>
      <point x="714" y="519"/>
      <point x="714" y="546" type="curve" smooth="yes"/>
    </contour>
  </outline>
</glyph>
<glyph name="uni098C" format="1">
  <advance width="562"/>
  <unicode hex="098C"/>
  <note>
	uni098C
  </note>
  <outline>
    <contour>
      <point x="400" y="-12"/>
      <point x="534" y="82"/>
      <point x="534" y="248" type="curve" smooth="yes"/>
      <point x="534" y="418"/>
      <point x="395" y="464"/>
      <point x="269" y="510" type="curve" smooth="yes"/>
      <point x="199" y="536"/>
      <point x="128" y="555"/>
      <point x="115" y="638" type="curve" smooth="yes"/>
      <point x="111" y="666"/>
      <point x="106" y="693"/>
      <point x="73" y="693" type="curve" smooth="yes"/>
      <point x="47" y="693"/>
      <point x="32" y="675"/>
      <point x="32" y="630" type="curve" smooth="yes"/>
      <point x="32" y="493"/>
      <point x="168" y="450"/>
      <point x="244" y="418" type="curve" smooth="yes"/>
      <point x="347" y="375"/>
      <point x="444" y="348"/>
      <point x="444" y="243" type="curve" smooth="yes"/>
      <point x="444" y="142"/>
      <point x="362" y="76"/>
      <point x="320" y="52" type="curve"/>
      <point x="329" y="21" type="line"/>
      <point x="334" y="21"/>
      <point x="405" y="90"/>
      <point x="405" y="178" type="curve" smooth="yes"/>
      <point x="405" y="272"/>
      <point x="325" y="364"/>
      <point x="210" y="364" type="curve" smooth="yes"/>
      <point x="90" y="364"/>
      <point x="24" y="263"/>
      <point x="24" y="168" type="curve" smooth="yes"/>
      <point x="24" y="69"/>
      <point x="95" y="-3"/>
      <point x="169" y="-3" type="curve" smooth="yes"/>
      <point x="231" y="-3"/>
      <point x="272" y="47"/>
      <point x="272" y="96" type="curve" smooth="yes"/>
      <point x="272" y="141"/>
      <point x="237" y="188"/>
      <point x="181" y="188" type="curve" smooth="yes"/>
      <point x="119" y="188"/>
      <point x="84" y="132"/>
      <point x="84" y="75" type="curve"/>
      <point x="148" y="50" type="line"/>
      <point x="114" y="83"/>
      <point x="105" y="122"/>
      <point x="105" y="148" type="curve" smooth="yes"/>
      <point x="105" y="209"/>
      <point x="154" y="258"/>
      <point x="215" y="258" type="curve" smooth="yes"/>
      <point x="273" y="258"/>
      <point x="320" y="213"/>
      <point x="320" y="152" type="curve" smooth="yes"/>
      <point x="320" y="89"/>
      <point x="269" y="49"/>
      <point x="269" y="18" type="curve" smooth="yes"/>
      <point x="269" y="0"/>
      <point x="287" y="-12"/>
      <point x="317" y="-12" type="curve" smooth="yes"/>
    </contour>
    <contour>
      <point x="153" y="62"/>
      <point x="141" y="75"/>
      <point x="141" y="90" type="curve" smooth="yes"/>
      <point x="141" y="104"/>
      <point x="152" y="120"/>
      <point x="170" y="120" type="curve" smooth="yes"/>
      <point x="187" y="120"/>
      <point x="200" y="107"/>
      <point x="200" y="90" type="curve" smooth="yes"/>
      <point x="200" y="76"/>
      <point x="190" y="62"/>
      <point x="170" y="62" type="curve"/>
    </contour>
  </outline>
</glyph>
<glyph name="uni098F" format="1">
  <advance width="598"/>
  <unicode hex="098F"/>
  <note>
	uni098F
  </note>
  <outline>
    <contour>
      <point x="515" y="-12"/>
      <point x="529" y="17"/>
      <point x="529" y="46" type="curve" smooth="yes"/>
      <point x="534" y="468" type="line" smooth="yes"/>
      <point x="535" y="545"/>
      <point x="511" y="595"/>
      <point x="435" y="595" type="curve" smooth="yes"/>
      <point x="305" y="595"/>
      <point x="162" y="447"/>
      <point x="162" y="329" type="curve" smooth="yes"/>
      <point x="162" y="262"/>
      <point x="208" y="213"/>
      <point x="278" y="213" type="curve" smooth="yes"/>
      <point x="350" y="213"/>
      <point x="388" y="264"/>
      <point x="388" y="313" type="curve" smooth="yes"/>
      <point x="388" y="356"/>
      <point x="358" y="414"/>
      <point x="287" y="414" type="curve" smooth="yes"/>
      <point x="248" y="414"/>
      <point x="225" y="396"/>
      <point x="210" y="379" type="curve"/>
      <point x="278" y="367" type="line"/>
      <point x="278" y="432"/>
      <point x="369" y="492"/>
      <point x="404" y="492" type="curve" smooth="yes"/>
      <point x="430" y="492"/>
      <point x="427" y="463"/>
      <point x="427" y="423" type="curve" smooth="yes"/>
      <point x="426" y="97" type="line"/>
      <point x="469" y="130" type="line"/>
      <point x="444" y="162"/>
      <point x="404" y="180"/>
      <point x="364" y="180" type="curve" smooth="yes"/>
      <point x="302" y="180"/>
      <point x="242" y="139"/>
      <point x="195" y="139" type="curve" smooth="yes"/>
      <point x="161" y="139"/>
      <point x="103" y="161"/>
      <point x="103" y="242" type="curve" smooth="yes"/>
      <point x="103" y="281"/>
      <point x="116" y="317"/>
      <point x="116" y="342" type="curve" smooth="yes"/>
      <point x="116" y="372"/>
      <point x="97" y="380"/>
      <point x="82" y="380" type="curve" smooth="yes"/>
      <point x="39" y="380"/>
      <point x="13" y="309"/>
      <point x="13" y="242" type="curve" smooth="yes"/>
      <point x="13" y="139"/>
      <point x="75" y="34"/>
      <point x="193" y="34" type="curve" smooth="yes"/>
      <point x="268" y="34"/>
      <point x="315" y="76"/>
      <point x="370" y="76" type="curve" smooth="yes"/>
      <point x="379" y="76"/>
      <point x="410" y="75"/>
      <point x="427" y="37" type="curve" smooth="yes"/>
      <point x="436" y="16"/>
      <point x="450" y="-12"/>
      <point x="483" y="-12" type="curve" smooth="yes"/>
    </contour>
    <contour>
      <point x="267" y="287"/>
      <point x="253" y="297"/>
      <point x="253" y="316" type="curve" smooth="yes"/>
      <point x="253" y="332"/>
      <point x="266" y="345"/>
      <point x="282" y="345" type="curve" smooth="yes"/>
      <point x="300" y="345"/>
      <point x="311" y="332"/>
      <point x="311" y="316" type="curve" smooth="yes"/>
      <point x="311" y="297"/>
      <point x="297" y="287"/>
      <point x="283" y="287" type="curve" smooth="yes"/>
    </contour>
  </outline>
</glyph>
<glyph name="uni0990" format="1">
  <advance width="700"/>
  <unicode hex="0990"/>
  <note>
	uni0990
  </note>
  <outline>
    <contour>
      <point x="573" y="273"/>
      <point x="680" y="355"/>
      <point x="680" y="490" type="curve" smooth="yes"/>
      <point x="680" y="642"/>
      <point x="578" y="684"/>
      <point x="476" y="728" type="curve" smooth="yes"/>
      <point x="388" y="766"/>
      <point x="326" y="785"/>
      <point x="308" y="844" type="curve" smooth="yes"/>
      <point x="300" y="870"/>
      <point x="296" y="910"/>
      <point x="253" y="910" type="curve" smooth="yes"/>
      <point x="230" y="910"/>
      <point x="212" y="891"/>
      <point x="212" y="853" type="curve" smooth="yes"/>
      <point x="212" y="763"/>
      <point x="298" y="700"/>
      <point x="399" y="659" type="curve" smooth="yes"/>
      <point x="521" y="609"/>
      <point x="597" y="575"/>
      <point x="597" y="489" type="curve" smooth="yes"/>
      <point x="597" y="442"/>
      <point x="569" y="383"/>
      <point x="478" y="355" type="curve"/>
      <point x="478" y="243" type="line"/>
    </contour>
    <contour>
      <point x="515" y="-12"/>
      <point x="529" y="17"/>
      <point x="529" y="46" type="curve" smooth="yes"/>
      <point x="534" y="468" type="line" smooth="yes"/>
      <point x="535" y="545"/>
      <point x="511" y="595"/>
      <point x="435" y="595" type="curve" smooth="yes"/>
      <point x="305" y="595"/>
      <point x="162" y="447"/>
      <point x="162" y="329" type="curve" smooth="yes"/>
      <point x="162" y="262"/>
      <point x="208" y="213"/>
      <point x="278" y="213" type="curve" smooth="yes"/>
      <point x="350" y="213"/>
      <point x="388" y="264"/>
      <point x="388" y="313" type="curve" smooth="yes"/>
      <point x="388" y="356"/>
      <point x="358" y="414"/>
      <point x="287" y="414" type="curve" smooth="yes"/>
      <point x="248" y="414"/>
      <point x="225" y="396"/>
      <point x="210" y="379" type="curve"/>
      <point x="278" y="367" type="line"/>
      <point x="278" y="432"/>
      <point x="369" y="492"/>
      <point x="404" y="492" type="curve" smooth="yes"/>
      <point x="430" y="492"/>
      <point x="427" y="463"/>
      <point x="427" y="423" type="curve" smooth="yes"/>
      <point x="426" y="97" type="line"/>
      <point x="469" y="130" type="line"/>
      <point x="444" y="162"/>
      <point x="404" y="180"/>
      <point x="364" y="180" type="curve" smooth="yes"/>
      <point x="302" y="180"/>
      <point x="242" y="139"/>
      <point x="195" y="139" type="curve" smooth="yes"/>
      <point x="161" y="139"/>
      <point x="103" y="161"/>
      <point x="103" y="242" type="curve" smooth="yes"/>
      <point x="103" y="281"/>
      <point x="116" y="317"/>
      <point x="116" y="342" type="curve" smooth="yes"/>
      <point x="116" y="372"/>
      <point x="97" y="380"/>
      <point x="82" y="380" type="curve" smooth="yes"/>
      <point x="39" y="380"/>
      <point x="13" y="309"/>
      <point x="13" y="242" type="curve" smooth="yes"/>
      <point x="13" y="139"/>
      <point x="75" y="34"/>
      <point x="193" y="34" type="curve" smooth="yes"/>
      <point x="268" y="34"/>
      <point x="315" y="76"/>
      <point x="370" y="76" type="curve" smooth="yes"/>
      <point x="379" y="76"/>
      <point x="410" y="75"/>
      <point x="427" y="37" type="curve" smooth="yes"/>
      <point x="436" y="16"/>
      <point x="450" y="-12"/>
      <point x="483" y="-12" type="curve" smooth="yes"/>
    </contour>
    <contour>
      <point x="267" y="287"/>
      <point x="253" y="297"/>
      <point x="253" y="316" type="curve" smooth="yes"/>
      <point x="253" y="332"/>
      <point x="266" y="345"/>
      <point x="282" y="345" type="curve" smooth="yes"/>
      <point x="300" y="345"/>
      <point x="311" y="332"/>
      <point x="311" y="316" type="curve" smooth="yes"/>
      <point x="311" y="297"/>
      <point x="297" y="287"/>
      <point x="283" y="287" type="curve" smooth="yes"/>
    </contour>
  </outline>
</glyph>
<glyph name="uni0993" format="1">
  <advance width="577"/>
  <unicode hex="0993"/>
  <note>
	uni0993
  </note>
  <outline>
    <contour>
      <point x="451" y="39"/>
      <point x="546" y="117"/>
      <point x="546" y="221" type="curve" smooth="yes"/>
      <point x="546" y="308"/>
      <point x="476" y="396"/>
      <point x="379" y="396" type="curve" smooth="yes"/>
      <point x="303" y="396"/>
      <point x="271" y="342"/>
      <point x="271" y="299" type="curve" smooth="yes"/>
      <point x="271" y="251"/>
      <point x="312" y="217"/>
      <point x="360" y="217" type="curve" smooth="yes"/>
      <point x="444" y="217"/>
      <point x="519" y="324"/>
      <point x="519" y="425" type="curve" smooth="yes"/>
      <point x="519" y="532"/>
      <point x="438" y="607"/>
      <point x="321" y="607" type="curve" smooth="yes"/>
      <point x="185" y="607"/>
      <point x="103" y="510"/>
      <point x="103" y="428" type="curve" smooth="yes"/>
      <point x="103" y="368"/>
      <point x="148" y="321"/>
      <point x="208" y="321" type="curve" smooth="yes"/>
      <point x="271" y="321"/>
      <point x="303" y="372"/>
      <point x="303" y="417" type="curve" smooth="yes"/>
      <point x="303" y="466"/>
      <point x="265" y="510"/>
      <point x="203" y="510" type="curve"/>
      <point x="218" y="466" type="line"/>
      <point x="254" y="493"/>
      <point x="294" y="508"/>
      <point x="330" y="508" type="curve" smooth="yes"/>
      <point x="394" y="508"/>
      <point x="433" y="460"/>
      <point x="433" y="407" type="curve" smooth="yes"/>
      <point x="433" y="355"/>
      <point x="405" y="292"/>
      <point x="364" y="292" type="curve" smooth="yes"/>
      <point x="353" y="292"/>
      <point x="341" y="297"/>
      <point x="341" y="305" type="curve" smooth="yes"/>
      <point x="341" y="312"/>
      <point x="352" y="321"/>
      <point x="369" y="321" type="curve" smooth="yes"/>
      <point x="407" y="321"/>
      <point x="445" y="278"/>
      <point x="445" y="239" type="curve" smooth="yes"/>
      <point x="445" y="192"/>
      <point x="400" y="141"/>
      <point x="316" y="141" type="curve" smooth="yes"/>
      <point x="194" y="141"/>
      <point x="103" y="267"/>
      <point x="77" y="435" type="curve" smooth="yes"/>
      <point x="73" y="458"/>
      <point x="65" y="485"/>
      <point x="35" y="485" type="curve" smooth="yes"/>
      <point x="19" y="485"/>
      <point x="-1" y="477"/>
      <point x="-1" y="430" type="curve" smooth="yes"/>
      <point x="-1" y="323"/>
      <point x="86" y="39"/>
      <point x="327" y="39" type="curve" smooth="yes"/>
    </contour>
    <contour>
      <point x="198" y="393"/>
      <point x="180" y="401"/>
      <point x="180" y="422" type="curve" smooth="yes"/>
      <point x="180" y="443"/>
      <point x="198" y="451"/>
      <point x="210" y="451" type="curve" smooth="yes"/>
      <point x="222" y="451"/>
      <point x="238" y="443"/>
      <point x="238" y="421" type="curve" smooth="yes"/>
      <point x="238" y="401"/>
      <point x="223" y="393"/>
      <point x="210" y="393" type="curve" smooth="yes"/>
    </contour>
  </outline>
</glyph>
<glyph name="uni0994" format="1">
  <advance width="660"/>
  <unicode hex="0994"/>
  <note>
	uni0994
  </note>
  <outline>
    <contour>
      <point x="451" y="39"/>
      <point x="546" y="117"/>
      <point x="546" y="221" type="curve" smooth="yes"/>
      <point x="546" y="308"/>
      <point x="476" y="396"/>
      <point x="379" y="396" type="curve" smooth="yes"/>
      <point x="303" y="396"/>
      <point x="271" y="342"/>
      <point x="271" y="299" type="curve" smooth="yes"/>
      <point x="271" y="251"/>
      <point x="312" y="217"/>
      <point x="360" y="217" type="curve" smooth="yes"/>
      <point x="444" y="217"/>
      <point x="519" y="324"/>
      <point x="519" y="425" type="curve" smooth="yes"/>
      <point x="519" y="532"/>
      <point x="438" y="607"/>
      <point x="321" y="607" type="curve" smooth="yes"/>
      <point x="185" y="607"/>
      <point x="103" y="510"/>
      <point x="103" y="428" type="curve" smooth="yes"/>
      <point x="103" y="368"/>
      <point x="148" y="321"/>
      <point x="208" y="321" type="curve" smooth="yes"/>
      <point x="271" y="321"/>
      <point x="303" y="372"/>
      <point x="303" y="417" type="curve" smooth="yes"/>
      <point x="303" y="466"/>
      <point x="265" y="510"/>
      <point x="203" y="510" type="curve"/>
      <point x="218" y="466" type="line"/>
      <point x="254" y="493"/>
      <point x="294" y="508"/>
      <point x="330" y="508" type="curve" smooth="yes"/>
      <point x="394" y="508"/>
      <point x="433" y="460"/>
      <point x="433" y="407" type="curve" smooth="yes"/>
      <point x="433" y="355"/>
      <point x="405" y="292"/>
      <point x="364" y="292" type="curve" smooth="yes"/>
      <point x="353" y="292"/>
      <point x="341" y="297"/>
      <point x="341" y="305" type="curve" smooth="yes"/>
      <point x="341" y="312"/>
      <point x="352" y="321"/>
      <point x="369" y="321" type="curve" smooth="yes"/>
      <point x="407" y="321"/>
      <point x="445" y="278"/>
      <point x="445" y="239" type="curve" smooth="yes"/>
      <point x="445" y="192"/>
      <point x="400" y="141"/>
      <point x="316" y="141" type="curve" smooth="yes"/>
      <point x="194" y="141"/>
      <point x="103" y="267"/>
      <point x="77" y="435" type="curve" smooth="yes"/>
      <point x="73" y="458"/>
      <point x="65" y="485"/>
      <point x="35" y="485" type="curve" smooth="yes"/>
      <point x="19" y="485"/>
      <point x="-1" y="477"/>
      <point x="-1" y="430" type="curve" smooth="yes"/>
      <point x="-1" y="323"/>
      <point x="86" y="39"/>
      <point x="327" y="39" type="curve" smooth="yes"/>
    </contour>
    <contour>
      <point x="198" y="393"/>
      <point x="180" y="401"/>
      <point x="180" y="422" type="curve" smooth="yes"/>
      <point x="180" y="443"/>
      <point x="198" y="451"/>
      <point x="210" y="451" type="curve" smooth="yes"/>
      <point x="222" y="451"/>
      <point x="238" y="443"/>
      <point x="238" y="421" type="curve" smooth="yes"/>
      <point x="238" y="401"/>
      <point x="223" y="393"/>
      <point x="210" y="393" type="curve" smooth="yes"/>
    </contour>
    <contour>
      <point x="543" y="273"/>
      <point x="650" y="355"/>
      <point x="650" y="490" type="curve" smooth="yes"/>
      <point x="650" y="642"/>
      <point x="548" y="684"/>
      <point x="446" y="728" type="curve" smooth="yes"/>
      <point x="358" y="766"/>
      <point x="296" y="785"/>
      <point x="278" y="844" type="curve" smooth="yes"/>
      <point x="270" y="870"/>
      <point x="266" y="910"/>
      <point x="223" y="910" type="curve" smooth="yes"/>
      <point x="200" y="910"/>
      <point x="182" y="891"/>
      <point x="182" y="853" type="curve" smooth="yes"/>
      <point x="182" y="763"/>
      <point x="268" y="700"/>
      <point x="369" y="659" type="curve" smooth="yes"/>
      <point x="491" y="609"/>
      <point x="567" y="575"/>
      <point x="567" y="489" type="curve" smooth="yes"/>
      <point x="567" y="442"/>
      <point x="539" y="383"/>
      <point x="448" y="355" type="curve"/>
      <point x="448" y="243" type="line"/>
    </contour>
  </outline>
</glyph>
<glyph name="uni0995" format="1">
  <advance width="660"/>
  <unicode hex="0995"/>
  <note>
	uni0995
  </note>
  <outline>
    <contour>
      <point x="352" y="54" type="line"/>
      <point x="352" y="193"/>
      <point x="178" y="322"/>
      <point x="47" y="322" type="curve"/>
      <point x="70" y="270" type="line"/>
      <point x="222" y="342"/>
      <point x="336" y="374"/>
      <point x="336" y="495" type="curve" smooth="yes"/>
      <point x="336" y="560"/>
      <point x="307" y="587"/>
      <point x="230" y="587" type="curve" smooth="yes"/>
      <point x="0" y="587" type="line" smooth="yes"/>
      <point x="-17" y="587"/>
      <point x="-40" y="574"/>
      <point x="-40" y="546" type="curve" smooth="yes"/>
      <point x="-40" y="516"/>
      <point x="-19" y="502"/>
      <point x="0" y="502" type="curve" smooth="yes"/>
      <point x="226" y="502" type="line" smooth="yes"/>
      <point x="259" y="502"/>
      <point x="273" y="498"/>
      <point x="273" y="490" type="curve" smooth="yes"/>
      <point x="273" y="467"/>
      <point x="157" y="428"/>
      <point x="36" y="364" type="curve" smooth="yes"/>
      <point x="7" y="349"/>
      <point x="-5" y="328"/>
      <point x="-5" y="308" type="curve" smooth="yes"/>
      <point x="-5" y="282"/>
      <point x="14" y="258"/>
      <point x="45" y="249" type="curve" smooth="yes"/>
      <point x="94" y="235"/>
      <point x="272" y="164"/>
      <point x="272" y="54" type="curve"/>
    </contour>
    <contour>
      <point x="472" y="451"/>
      <point x="385" y="458"/>
      <point x="385" y="544" type="curve"/>
      <point x="340" y="489" type="line"/>
      <point x="340" y="386"/>
      <point x="425" y="367"/>
      <point x="486" y="350" type="curve" smooth="yes"/>
      <point x="556" y="331"/>
      <point x="554" y="314"/>
      <point x="555" y="257" type="curve"/>
      <point x="594" y="250" type="line"/>
      <point x="594" y="283"/>
      <point x="557" y="318"/>
      <point x="506" y="318" type="curve" smooth="yes"/>
      <point x="453" y="318"/>
      <point x="409" y="275"/>
      <point x="409" y="223" type="curve" smooth="yes"/>
      <point x="409" y="158"/>
      <point x="469" y="129"/>
      <point x="515" y="129" type="curve" smooth="yes"/>
      <point x="600" y="129"/>
      <point x="642" y="205"/>
      <point x="642" y="272" type="curve" smooth="yes"/>
      <point x="642" y="332"/>
      <point x="627" y="394"/>
      <point x="532" y="429" type="curve" smooth="yes"/>
    </contour>
    <contour>
      <point x="489" y="240"/>
      <point x="500" y="255"/>
      <point x="518" y="255" type="curve" smooth="yes"/>
      <point x="533" y="255"/>
      <point x="547" y="244"/>
      <point x="547" y="226" type="curve" smooth="yes"/>
      <point x="547" y="214"/>
      <point x="540" y="197"/>
      <point x="519" y="197" type="curve" smooth="yes"/>
      <point x="497" y="197"/>
      <point x="489" y="213"/>
      <point x="489" y="225" type="curve" smooth="yes"/>
    </contour>
    <contour>
      <point x="709" y="576"/>
      <point x="688" y="587"/>
      <point x="660" y="587" type="curve" smooth="yes"/>
      <point x="431" y="587" type="line" smooth="yes"/>
      <point x="403" y="587"/>
      <point x="390" y="585"/>
      <point x="387" y="595" type="curve"/>
      <point x="373" y="582" type="line"/>
      <point x="373" y="557"/>
      <point x="394" y="502"/>
      <point x="455" y="502" type="curve" smooth="yes"/>
      <point x="660" y="502" type="line" smooth="yes"/>
      <point x="691" y="502"/>
      <point x="709" y="516"/>
      <point x="709" y="546" type="curve" smooth="yes"/>
    </contour>
    <contour>
      <point x="363" y="-12"/>
      <point x="378" y="17"/>
      <point x="378" y="54" type="curve" smooth="yes"/>
      <point x="379" y="335" type="line" smooth="yes"/>
      <point x="379" y="491"/>
      <point x="383" y="513"/>
      <point x="388" y="583" type="curve" smooth="yes"/>
      <point x="389" y="597"/>
      <point x="384" y="609"/>
      <point x="358" y="609" type="curve" smooth="yes"/>
      <point x="292" y="609"/>
      <point x="275" y="492"/>
      <point x="274" y="335" type="curve" smooth="yes"/>
      <point x="272" y="54" type="line" smooth="yes"/>
      <point x="272" y="13"/>
      <point x="294" y="-12"/>
      <point x="327" y="-12" type="curve" smooth="yes"/>
    </contour>
  </outline>
</glyph>
<glyph name="uni0996" format="1">
  <advance width="542"/>
  <unicode hex="0996"/>
  <note>
	uni0996
  </note>
  <outline>
    <contour>
      <point x="446" y="69" type="line"/>
      <point x="446" y="202"/>
      <point x="255" y="268"/>
      <point x="162" y="268" type="curve"/>
      <point x="171" y="227" type="line"/>
      <point x="251" y="227"/>
      <point x="358" y="275"/>
      <point x="358" y="420" type="curve" smooth="yes"/>
      <point x="358" y="516"/>
      <point x="324" y="596"/>
      <point x="279" y="596" type="curve" smooth="yes"/>
      <point x="254" y="596"/>
      <point x="233" y="577"/>
      <point x="245" y="543" type="curve" smooth="yes"/>
      <point x="268" y="476"/>
      <point x="201" y="442"/>
      <point x="135" y="442" type="curve"/>
      <point x="133" y="395" type="line"/>
      <point x="187" y="395"/>
      <point x="212" y="440"/>
      <point x="212" y="477" type="curve" smooth="yes"/>
      <point x="212" y="523"/>
      <point x="182" y="573"/>
      <point x="110" y="573" type="curve" smooth="yes"/>
      <point x="42" y="573"/>
      <point x="2" y="519"/>
      <point x="2" y="467" type="curve" smooth="yes"/>
      <point x="2" y="402"/>
      <point x="54" y="348"/>
      <point x="129" y="348" type="curve" smooth="yes"/>
      <point x="242" y="348"/>
      <point x="306" y="422"/>
      <point x="306" y="489" type="curve"/>
      <point x="250" y="427" type="line"/>
      <point x="280" y="347"/>
      <point x="201" y="315"/>
      <point x="143" y="315" type="curve" smooth="yes"/>
      <point x="91" y="315"/>
      <point x="71" y="287"/>
      <point x="71" y="265" type="curve" smooth="yes"/>
      <point x="71" y="240"/>
      <point x="77" y="214"/>
      <point x="122" y="201" type="curve" smooth="yes"/>
      <point x="171" y="187"/>
      <point x="369" y="145"/>
      <point x="369" y="61" type="curve"/>
    </contour>
    <contour>
      <point x="95" y="440"/>
      <point x="81" y="452"/>
      <point x="81" y="469" type="curve" smooth="yes"/>
      <point x="81" y="486"/>
      <point x="95" y="498"/>
      <point x="111" y="498" type="curve" smooth="yes"/>
      <point x="125" y="498"/>
      <point x="139" y="485"/>
      <point x="139" y="470" type="curve" smooth="yes"/>
      <point x="139" y="452"/>
      <point x="127" y="440"/>
      <point x="110" y="440" type="curve" smooth="yes"/>
    </contour>
    <contour>
      <point x="122" y="201" type="move"/>
    </contour>
    <contour>
      <point x="460" y="-12"/>
      <point x="475" y="17"/>
      <point x="475" y="64" type="curve" smooth="yes"/>
      <point x="476" y="335" type="line" smooth="yes"/>
      <point x="476" y="491"/>
      <point x="480" y="513"/>
      <point x="485" y="583" type="curve" smooth="yes"/>
      <point x="486" y="597"/>
      <point x="481" y="609"/>
      <point x="455" y="609" type="curve" smooth="yes"/>
      <point x="389" y="609"/>
      <point x="372" y="492"/>
      <point x="371" y="335" type="curve" smooth="yes"/>
      <point x="369" y="64" type="line" smooth="yes"/>
      <point x="369" y="13"/>
      <point x="391" y="-12"/>
      <point x="424" y="-12" type="curve" smooth="yes"/>
    </contour>
    <contour>
      <point x="591" y="577"/>
      <point x="570" y="587"/>
      <point x="542" y="587" type="curve" smooth="yes"/>
      <point x="518" y="587" type="line" smooth="yes"/>
      <point x="500" y="587"/>
      <point x="487" y="585"/>
      <point x="484" y="595" type="curve"/>
      <point x="470" y="582" type="line"/>
      <point x="470" y="557"/>
      <point x="479" y="502"/>
      <point x="530" y="502" type="curve" smooth="yes"/>
      <point x="542" y="502" type="line" smooth="yes"/>
      <point x="573" y="502"/>
      <point x="591" y="519"/>
      <point x="591" y="546" type="curve" smooth="yes"/>
    </contour>
  </outline>
</glyph>
<glyph name="uni0997" format="1">
  <advance width="548"/>
  <unicode hex="0997"/>
  <note>
	uni0997
  </note>
  <outline>
    <contour>
      <point x="215" y="67"/>
      <point x="343" y="201"/>
      <point x="343" y="300" type="curve" smooth="yes"/>
      <point x="343" y="348"/>
      <point x="313" y="410"/>
      <point x="251" y="410" type="curve" smooth="yes"/>
      <point x="217" y="410"/>
      <point x="193" y="391"/>
      <point x="164" y="391" type="curve" smooth="yes"/>
      <point x="130" y="391"/>
      <point x="119" y="418"/>
      <point x="119" y="436" type="curve" smooth="yes"/>
      <point x="119" y="469"/>
      <point x="152" y="498"/>
      <point x="216" y="498" type="curve" smooth="yes"/>
      <point x="302" y="498"/>
      <point x="376" y="430"/>
      <point x="377" y="250" type="curve"/>
      <point x="451" y="342" type="line"/>
      <point x="451" y="500"/>
      <point x="333" y="593"/>
      <point x="203" y="593" type="curve" smooth="yes"/>
      <point x="80" y="593"/>
      <point x="10" y="511"/>
      <point x="10" y="425" type="curve" smooth="yes"/>
      <point x="10" y="358"/>
      <point x="53" y="301"/>
      <point x="133" y="301" type="curve" smooth="yes"/>
      <point x="179" y="301"/>
      <point x="213" y="320"/>
      <point x="232" y="320" type="curve" smooth="yes"/>
      <point x="245" y="320"/>
      <point x="251" y="310"/>
      <point x="251" y="299" type="curve" smooth="yes"/>
      <point x="251" y="248"/>
      <point x="167" y="195"/>
      <point x="125" y="168" type="curve" smooth="yes"/>
      <point x="101" y="152"/>
      <point x="83" y="135"/>
      <point x="83" y="114" type="curve" smooth="yes"/>
      <point x="83" y="90"/>
      <point x="101" y="67"/>
      <point x="131" y="67" type="curve" smooth="yes"/>
    </contour>
    <contour>
      <point x="466" y="-12"/>
      <point x="481" y="17"/>
      <point x="481" y="64" type="curve" smooth="yes"/>
      <point x="482" y="335" type="line" smooth="yes"/>
      <point x="482" y="491"/>
      <point x="486" y="513"/>
      <point x="491" y="583" type="curve" smooth="yes"/>
      <point x="492" y="597"/>
      <point x="487" y="609"/>
      <point x="461" y="609" type="curve" smooth="yes"/>
      <point x="395" y="609"/>
      <point x="378" y="492"/>
      <point x="377" y="335" type="curve" smooth="yes"/>
      <point x="375" y="64" type="line" smooth="yes"/>
      <point x="375" y="13"/>
      <point x="397" y="-12"/>
      <point x="430" y="-12" type="curve" smooth="yes"/>
    </contour>
    <contour>
      <point x="597" y="577"/>
      <point x="576" y="587"/>
      <point x="548" y="587" type="curve" smooth="yes"/>
      <point x="524" y="587" type="line" smooth="yes"/>
      <point x="506" y="587"/>
      <point x="493" y="585"/>
      <point x="490" y="595" type="curve"/>
      <point x="476" y="582" type="line"/>
      <point x="476" y="557"/>
      <point x="485" y="502"/>
      <point x="536" y="502" type="curve" smooth="yes"/>
      <point x="548" y="502" type="line" smooth="yes"/>
      <point x="579" y="502"/>
      <point x="597" y="519"/>
      <point x="597" y="546" type="curve" smooth="yes"/>
    </contour>
  </outline>
</glyph>
<glyph name="uni0998" format="1">
  <advance width="524"/>
  <unicode hex="0998"/>
  <note>
	uni0998
  </note>
  <outline>
    <contour>
      <point x="424" y="67" type="line"/>
      <point x="424" y="196"/>
      <point x="234" y="265"/>
      <point x="140" y="265" type="curve"/>
      <point x="145" y="214" type="line"/>
      <point x="282" y="301" type="line" smooth="yes"/>
      <point x="304" y="315"/>
      <point x="333" y="332"/>
      <point x="333" y="367" type="curve" smooth="yes"/>
      <point x="333" y="394"/>
      <point x="312" y="406"/>
      <point x="286" y="406" type="curve" smooth="yes"/>
      <point x="272" y="406"/>
      <point x="252" y="397"/>
      <point x="217" y="397" type="curve" smooth="yes"/>
      <point x="197" y="397"/>
      <point x="149" y="396"/>
      <point x="149" y="446" type="curve" smooth="yes"/>
      <point x="149" y="477"/>
      <point x="177" y="502"/>
      <point x="209" y="502" type="curve"/>
      <point x="150" y="562" type="line"/>
      <point x="99" y="562"/>
      <point x="45" y="512"/>
      <point x="45" y="440" type="curve" smooth="yes"/>
      <point x="45" y="348"/>
      <point x="139" y="321"/>
      <point x="192" y="321" type="curve"/>
      <point x="206" y="364" type="line"/>
      <point x="85" y="289" type="line" smooth="yes"/>
      <point x="66" y="277"/>
      <point x="46" y="259"/>
      <point x="46" y="237" type="curve" smooth="yes"/>
      <point x="46" y="210"/>
      <point x="66" y="192"/>
      <point x="85" y="190" type="curve" smooth="yes"/>
      <point x="154" y="184"/>
      <point x="351" y="135"/>
      <point x="351" y="53" type="curve"/>
    </contour>
    <contour>
      <point x="442" y="-12"/>
      <point x="457" y="17"/>
      <point x="457" y="55" type="curve" smooth="yes"/>
      <point x="458" y="335" type="line" smooth="yes"/>
      <point x="458" y="491"/>
      <point x="462" y="513"/>
      <point x="467" y="583" type="curve" smooth="yes"/>
      <point x="468" y="597"/>
      <point x="463" y="609"/>
      <point x="437" y="609" type="curve" smooth="yes"/>
      <point x="371" y="609"/>
      <point x="354" y="492"/>
      <point x="353" y="335" type="curve" smooth="yes"/>
      <point x="351" y="55" type="line" smooth="yes"/>
      <point x="351" y="13"/>
      <point x="373" y="-12"/>
      <point x="406" y="-12" type="curve" smooth="yes"/>
    </contour>
    <contour>
      <point x="395" y="492" type="line"/>
      <point x="396" y="540"/>
      <point x="362" y="587"/>
      <point x="280" y="587" type="curve" smooth="yes"/>
      <point x="0" y="587" type="line" smooth="yes"/>
      <point x="-18" y="587"/>
      <point x="-45" y="582"/>
      <point x="-45" y="546" type="curve" smooth="yes"/>
      <point x="-45" y="512"/>
      <point x="-18" y="502"/>
      <point x="0" y="502" type="curve" smooth="yes"/>
      <point x="265" y="502" type="line" smooth="yes"/>
      <point x="328" y="502"/>
      <point x="356" y="482"/>
      <point x="356" y="424" type="curve"/>
    </contour>
    <contour>
      <point x="573" y="577"/>
      <point x="552" y="587"/>
      <point x="524" y="587" type="curve" smooth="yes"/>
      <point x="500" y="587" type="line" smooth="yes"/>
      <point x="482" y="587"/>
      <point x="469" y="584"/>
      <point x="466" y="594" type="curve"/>
      <point x="452" y="582" type="line"/>
      <point x="452" y="557"/>
      <point x="461" y="502"/>
      <point x="512" y="502" type="curve" smooth="yes"/>
      <point x="524" y="502" type="line" smooth="yes"/>
      <point x="555" y="502"/>
      <point x="573" y="519"/>
      <point x="573" y="546" type="curve" smooth="yes"/>
    </contour>
  </outline>
</glyph>
<glyph name="uni0999" format="1">
  <advance width="555"/>
  <unicode hex="0999"/>
  <note>
	uni0999
  </note>
  <outline>
    <contour>
      <point x="440" y="12"/>
      <point x="530" y="93"/>
      <point x="530" y="219" type="curve" smooth="yes"/>
      <point x="530" y="310"/>
      <point x="483" y="380"/>
      <point x="446" y="380" type="curve" smooth="yes"/>
      <point x="395" y="380"/>
      <point x="414" y="296"/>
      <point x="343" y="296" type="curve" smooth="yes"/>
      <point x="303" y="296"/>
      <point x="278" y="325"/>
      <point x="278" y="370" type="curve" smooth="yes"/>
      <point x="278" y="445"/>
      <point x="325" y="528"/>
      <point x="365" y="528" type="curve" smooth="yes"/>
      <point x="381" y="528"/>
      <point x="389" y="518"/>
      <point x="389" y="507" type="curve" smooth="yes"/>
      <point x="389" y="485"/>
      <point x="369" y="465"/>
      <point x="321" y="465" type="curve" smooth="yes"/>
      <point x="216" y="465"/>
      <point x="208" y="587"/>
      <point x="62" y="587" type="curve" smooth="yes"/>
      <point x="0" y="587" type="line" smooth="yes"/>
      <point x="-13" y="587"/>
      <point x="-40" y="575"/>
      <point x="-40" y="545" type="curve" smooth="yes"/>
      <point x="-40" y="514"/>
      <point x="-12" y="502"/>
      <point x="0" y="502" type="curve" smooth="yes"/>
      <point x="62" y="502" type="line" smooth="yes"/>
      <point x="137" y="502"/>
      <point x="193" y="380"/>
      <point x="318" y="380" type="curve" smooth="yes"/>
      <point x="410" y="380"/>
      <point x="467" y="435"/>
      <point x="467" y="503" type="curve" smooth="yes"/>
      <point x="467" y="574"/>
      <point x="409" y="595"/>
      <point x="369" y="595" type="curve" smooth="yes"/>
      <point x="264" y="595"/>
      <point x="192" y="467"/>
      <point x="192" y="373" type="curve" smooth="yes"/>
      <point x="192" y="291"/>
      <point x="249" y="196"/>
      <point x="344" y="196" type="curve" smooth="yes"/>
      <point x="435" y="196"/>
      <point x="467" y="289"/>
      <point x="467" y="311" type="curve"/>
      <point x="414" y="303" type="line"/>
      <point x="423" y="292"/>
      <point x="444" y="263"/>
      <point x="444" y="224" type="curve" smooth="yes"/>
      <point x="444" y="149"/>
      <point x="381" y="117"/>
      <point x="318" y="117" type="curve" smooth="yes"/>
      <point x="168" y="117"/>
      <point x="115" y="303"/>
      <point x="109" y="403" type="curve" smooth="yes"/>
      <point x="108" y="423"/>
      <point x="99" y="451"/>
      <point x="68" y="451" type="curve" smooth="yes"/>
      <point x="37" y="451"/>
      <point x="23" y="421"/>
      <point x="23" y="400" type="curve" smooth="yes"/>
      <point x="23" y="273"/>
      <point x="105" y="12"/>
      <point x="318" y="12" type="curve" smooth="yes"/>
    </contour>
  </outline>
</glyph>
<glyph name="uni099A" format="1">
  <advance width="465"/>
  <unicode hex="099A"/>
  <note>
	uni099A
  </note>
  <outline>
    <contour>
      <point x="317" y="-12"/>
      <point x="449" y="205"/>
      <point x="449" y="281" type="curve" smooth="yes"/>
      <point x="449" y="339"/>
      <point x="413" y="359"/>
      <point x="365" y="370" type="curve" smooth="yes"/>
      <point x="252" y="397"/>
      <point x="200" y="418"/>
      <point x="200" y="463" type="curve" smooth="yes"/>
      <point x="200" y="505"/>
      <point x="237" y="502"/>
      <point x="261" y="502" type="curve" smooth="yes"/>
      <point x="465" y="502" type="line" smooth="yes"/>
      <point x="474" y="502"/>
      <point x="505" y="509"/>
      <point x="505" y="546" type="curve" smooth="yes"/>
      <point x="505" y="580"/>
      <point x="473" y="587"/>
      <point x="465" y="587" type="curve" smooth="yes"/>
      <point x="189" y="587" type="line" smooth="yes"/>
      <point x="141" y="587"/>
      <point x="109" y="554"/>
      <point x="109" y="525" type="curve"/>
      <point x="127" y="525" type="line"/>
      <point x="127" y="554"/>
      <point x="90" y="587"/>
      <point x="38" y="587" type="curve" smooth="yes"/>
      <point x="0" y="587" type="line" smooth="yes"/>
      <point x="-14" y="587"/>
      <point x="-43" y="582"/>
      <point x="-43" y="546" type="curve" smooth="yes"/>
      <point x="-43" y="507"/>
      <point x="-14" y="502"/>
      <point x="0" y="502" type="curve" smooth="yes"/>
      <point x="36" y="502" type="line" smooth="yes"/>
      <point x="83" y="502"/>
      <point x="94" y="485"/>
      <point x="92" y="369" type="curve" smooth="yes"/>
      <point x="92" y="138" type="line" smooth="yes"/>
      <point x="90" y="52"/>
      <point x="105" y="-12"/>
      <point x="189" y="-12" type="curve" smooth="yes"/>
    </contour>
    <contour>
      <point x="201" y="103"/>
      <point x="198" y="123"/>
      <point x="198" y="157" type="curve" smooth="yes"/>
      <point x="197" y="386" type="line"/>
      <point x="148" y="344" type="line"/>
      <point x="205" y="298"/>
      <point x="280" y="285"/>
      <point x="312" y="280" type="curve" smooth="yes"/>
      <point x="339" y="276"/>
      <point x="343" y="264"/>
      <point x="343" y="254" type="curve" smooth="yes"/>
      <point x="343" y="209"/>
      <point x="269" y="103"/>
      <point x="224" y="103" type="curve" smooth="yes"/>
    </contour>
  </outline>
</glyph>
<glyph name="uni099B" format="1">
  <advance width="528"/>
  <unicode hex="099B"/>
  <note>
	uni099B
  </note>
  <outline>
    <contour>
      <point x="515" y="-82"/>
      <point x="533" y="-72"/>
      <point x="533" y="-42" type="curve" smooth="yes"/>
      <point x="533" y="-19"/>
      <point x="515" y="-5"/>
      <point x="482" y="3" type="curve" smooth="yes"/>
      <point x="407" y="21"/>
      <point x="343" y="170"/>
      <point x="226" y="170" type="curve" smooth="yes"/>
      <point x="157" y="170"/>
      <point x="124" y="127"/>
      <point x="124" y="81" type="curve" smooth="yes"/>
      <point x="124" y="31"/>
      <point x="172" y="-4"/>
      <point x="229" y="-4" type="curve" smooth="yes"/>
      <point x="347" y="-4"/>
      <point x="480" y="98"/>
      <point x="480" y="246" type="curve" smooth="yes"/>
      <point x="480" y="352"/>
      <point x="425" y="451"/>
      <point x="292" y="451" type="curve" smooth="yes"/>
      <point x="257" y="451"/>
      <point x="210" y="443"/>
      <point x="210" y="481" type="curve" smooth="yes"/>
      <point x="210" y="496"/>
      <point x="223" y="502"/>
      <point x="247" y="502" type="curve" smooth="yes"/>
      <point x="528" y="502" type="line" smooth="yes"/>
      <point x="537" y="502"/>
      <point x="564" y="509"/>
      <point x="564" y="545" type="curve" smooth="yes"/>
      <point x="564" y="580"/>
      <point x="536" y="587"/>
      <point x="528" y="587" type="curve" smooth="yes"/>
      <point x="206" y="587" type="line" smooth="yes"/>
      <point x="157" y="587"/>
      <point x="128" y="569"/>
      <point x="128" y="532" type="curve"/>
      <point x="142" y="532" type="line"/>
      <point x="142" y="569"/>
      <point x="107" y="587"/>
      <point x="54" y="587" type="curve" smooth="yes"/>
      <point x="0" y="587" type="line" smooth="yes"/>
      <point x="-12" y="587"/>
      <point x="-38" y="580"/>
      <point x="-38" y="546" type="curve" smooth="yes"/>
      <point x="-38" y="510"/>
      <point x="-12" y="502"/>
      <point x="0" y="502" type="curve" smooth="yes"/>
      <point x="36" y="502" type="line" smooth="yes"/>
      <point x="98" y="502"/>
      <point x="102" y="490"/>
      <point x="102" y="453" type="curve" smooth="yes"/>
      <point x="100" y="281" type="line" smooth="yes"/>
      <point x="100" y="230"/>
      <point x="119" y="184"/>
      <point x="198" y="184" type="curve" smooth="yes"/>
      <point x="304" y="184"/>
      <point x="379" y="287"/>
      <point x="379" y="362" type="curve" smooth="yes"/>
      <point x="379" y="374"/>
      <point x="377" y="384"/>
      <point x="373" y="394" type="curve"/>
      <point x="302" y="372" type="line"/>
      <point x="331" y="372"/>
      <point x="385" y="330"/>
      <point x="385" y="251" type="curve" smooth="yes"/>
      <point x="385" y="152"/>
      <point x="282" y="76"/>
      <point x="226" y="76" type="curve" smooth="yes"/>
      <point x="204" y="76"/>
      <point x="195" y="84"/>
      <point x="195" y="90" type="curve" smooth="yes"/>
      <point x="195" y="95"/>
      <point x="200" y="98"/>
      <point x="208" y="98" type="curve" smooth="yes"/>
      <point x="271" y="98"/>
      <point x="378" y="-82"/>
      <point x="486" y="-82" type="curve" smooth="yes"/>
    </contour>
    <contour>
      <point x="203" y="268"/>
      <point x="206" y="293"/>
      <point x="206" y="325" type="curve" smooth="yes"/>
      <point x="206" y="432" type="line"/>
      <point x="146" y="430" type="line"/>
      <point x="146" y="408"/>
      <point x="188" y="382"/>
      <point x="235" y="382" type="curve" smooth="yes"/>
      <point x="279" y="382"/>
      <point x="292" y="371"/>
      <point x="292" y="344" type="curve" smooth="yes"/>
      <point x="292" y="317"/>
      <point x="257" y="268"/>
      <point x="229" y="268" type="curve" smooth="yes"/>
    </contour>
  </outline>
</glyph>
<glyph name="uni099C" format="1">
  <advance width="645"/>
  <unicode hex="099C"/>
  <note>
	uni099C
  </note>
  <outline>
    <contour>
      <point x="591" y="-12"/>
      <point x="613" y="5"/>
      <point x="613" y="51" type="curve" smooth="yes"/>
      <point x="613" y="125"/>
      <point x="601" y="216"/>
      <point x="601" y="279" type="curve" smooth="yes"/>
      <point x="601" y="365"/>
      <point x="638" y="408"/>
      <point x="638" y="439" type="curve" smooth="yes"/>
      <point x="638" y="454"/>
      <point x="620" y="474"/>
      <point x="587" y="474" type="curve" smooth="yes"/>
      <point x="555" y="474"/>
      <point x="519" y="442"/>
      <point x="454" y="442" type="curve" smooth="yes"/>
      <point x="396" y="442"/>
      <point x="342" y="474"/>
      <point x="342" y="525" type="curve"/>
      <point x="324" y="502" type="line"/>
      <point x="392" y="502"/>
      <point x="602" y="502"/>
      <point x="645" y="502" type="curve" smooth="yes"/>
      <point x="654" y="502"/>
      <point x="679" y="509"/>
      <point x="679" y="547" type="curve" smooth="yes"/>
      <point x="679" y="580"/>
      <point x="653" y="587"/>
      <point x="645" y="587" type="curve" smooth="yes"/>
      <point x="348" y="587" type="line" smooth="yes"/>
      <point x="289" y="587"/>
      <point x="246" y="547"/>
      <point x="235" y="520" type="curve"/>
      <point x="260" y="532" type="line"/>
      <point x="260" y="559"/>
      <point x="232" y="587"/>
      <point x="174" y="587" type="curve" smooth="yes"/>
      <point x="0" y="587" type="line" smooth="yes"/>
      <point x="-8" y="587"/>
      <point x="-35" y="581"/>
      <point x="-35" y="546" type="curve" smooth="yes"/>
      <point x="-35" y="509"/>
      <point x="-8" y="502"/>
      <point x="0" y="502" type="curve" smooth="yes"/>
      <point x="139" y="502" type="line" smooth="yes"/>
      <point x="174" y="502"/>
      <point x="202" y="504"/>
      <point x="202" y="486" type="curve" smooth="yes"/>
      <point x="202" y="466"/>
      <point x="159" y="431"/>
      <point x="158" y="344" type="curve" smooth="yes"/>
      <point x="157" y="291"/>
      <point x="194" y="192"/>
      <point x="302" y="192" type="curve" smooth="yes"/>
      <point x="369" y="192"/>
      <point x="407" y="242"/>
      <point x="420" y="285" type="curve"/>
      <point x="369" y="285" type="line"/>
      <point x="379" y="271"/>
      <point x="397" y="242"/>
      <point x="397" y="204" type="curve" smooth="yes"/>
      <point x="397" y="161"/>
      <point x="363" y="120"/>
      <point x="290" y="120" type="curve" smooth="yes"/>
      <point x="171" y="120"/>
      <point x="106" y="244"/>
      <point x="97" y="418" type="curve" smooth="yes"/>
      <point x="95" y="458"/>
      <point x="70" y="466"/>
      <point x="55" y="466" type="curve" smooth="yes"/>
      <point x="36" y="466"/>
      <point x="13" y="450"/>
      <point x="13" y="414" type="curve" smooth="yes"/>
      <point x="13" y="262"/>
      <point x="95" y="14"/>
      <point x="297" y="14" type="curve" smooth="yes"/>
      <point x="420" y="14"/>
      <point x="487" y="112"/>
      <point x="487" y="196" type="curve" smooth="yes"/>
      <point x="487" y="290"/>
      <point x="435" y="338"/>
      <point x="396" y="338" type="curve" smooth="yes"/>
      <point x="362" y="338"/>
      <point x="357" y="291"/>
      <point x="302" y="291" type="curve" smooth="yes"/>
      <point x="264" y="291"/>
      <point x="242" y="325"/>
      <point x="242" y="360" type="curve" smooth="yes"/>
      <point x="242" y="423"/>
      <point x="282" y="486"/>
      <point x="337" y="536" type="curve"/>
      <point x="271" y="519" type="line"/>
      <point x="271" y="422"/>
      <point x="353" y="356"/>
      <point x="451" y="356" type="curve" smooth="yes"/>
      <point x="519" y="356"/>
      <point x="562" y="386"/>
      <point x="583" y="404" type="curve"/>
      <point x="555" y="415" type="line"/>
      <point x="474" y="338"/>
      <point x="517" y="155"/>
      <point x="517" y="51" type="curve" smooth="yes"/>
      <point x="517" y="5"/>
      <point x="541" y="-12"/>
      <point x="571" y="-12" type="curve" smooth="yes"/>
    </contour>
  </outline>
</glyph>
<glyph name="uni099D" format="1">
  <advance width="655"/>
  <unicode hex="099D"/>
  <note>
	uni099D
  </note>
  <outline>
    <contour>
      <point x="422" y="74" type="line"/>
      <point x="422" y="205"/>
      <point x="208" y="317"/>
      <point x="71" y="317" type="curve"/>
      <point x="80" y="263" type="line"/>
      <point x="225" y="336"/>
      <point x="381" y="391"/>
      <point x="381" y="482" type="curve" smooth="yes"/>
      <point x="381" y="532"/>
      <point x="350" y="587"/>
      <point x="273" y="587" type="curve" smooth="yes"/>
      <point x="0" y="587" type="line" smooth="yes"/>
      <point x="-17" y="587"/>
      <point x="-30" y="575"/>
      <point x="-30" y="551" type="curve" smooth="yes"/>
      <point x="-30" y="517"/>
      <point x="-19" y="502"/>
      <point x="0" y="502" type="curve" smooth="yes"/>
      <point x="235" y="502" type="line" smooth="yes"/>
      <point x="268" y="502"/>
      <point x="301" y="502"/>
      <point x="301" y="492" type="curve" smooth="yes"/>
      <point x="301" y="471"/>
      <point x="175" y="424"/>
      <point x="50" y="358" type="curve" smooth="yes"/>
      <point x="25" y="345"/>
      <point x="13" y="325"/>
      <point x="13" y="306" type="curve" smooth="yes"/>
      <point x="12" y="267"/>
      <point x="38" y="250"/>
      <point x="77" y="239" type="curve" smooth="yes"/>
      <point x="123" y="226"/>
      <point x="346" y="164"/>
      <point x="346" y="64" type="curve"/>
    </contour>
    <contour>
      <point x="426" y="234" type="line"/>
      <point x="426" y="196"/>
      <point x="482" y="154"/>
      <point x="482" y="104" type="curve"/>
      <point x="546" y="114" type="line"/>
      <point x="546" y="208"/>
      <point x="452" y="260"/>
      <point x="452" y="322" type="curve"/>
    </contour>
    <contour>
      <point x="436" y="-12"/>
      <point x="451" y="17"/>
      <point x="451" y="64" type="curve" smooth="yes"/>
      <point x="452" y="335" type="line" smooth="yes"/>
      <point x="452" y="491"/>
      <point x="456" y="513"/>
      <point x="461" y="583" type="curve" smooth="yes"/>
      <point x="462" y="597"/>
      <point x="457" y="609"/>
      <point x="431" y="609" type="curve" smooth="yes"/>
      <point x="365" y="609"/>
      <point x="348" y="492"/>
      <point x="347" y="335" type="curve" smooth="yes"/>
      <point x="345" y="64" type="line" smooth="yes"/>
      <point x="345" y="13"/>
      <point x="367" y="-12"/>
      <point x="400" y="-12" type="curve" smooth="yes"/>
    </contour>
    <contour>
      <point x="573" y="28"/>
      <point x="588" y="57"/>
      <point x="588" y="104" type="curve" smooth="yes"/>
      <point x="589" y="335" type="line" smooth="yes"/>
      <point x="590" y="491"/>
      <point x="593" y="513"/>
      <point x="598" y="583" type="curve" smooth="yes"/>
      <point x="599" y="597"/>
      <point x="594" y="609"/>
      <point x="568" y="609" type="curve" smooth="yes"/>
      <point x="502" y="609"/>
      <point x="485" y="492"/>
      <point x="484" y="335" type="curve" smooth="yes"/>
      <point x="482" y="104" type="line" smooth="yes"/>
      <point x="482" y="53"/>
      <point x="504" y="28"/>
      <point x="537" y="28" type="curve" smooth="yes"/>
    </contour>
    <contour>
      <point x="704" y="577"/>
      <point x="683" y="587"/>
      <point x="655" y="587" type="curve" smooth="yes"/>
      <point x="631" y="587" type="line" smooth="yes"/>
      <point x="613" y="587"/>
      <point x="600" y="585"/>
      <point x="597" y="595" type="curve"/>
      <point x="583" y="582" type="line"/>
      <point x="583" y="557"/>
      <point x="592" y="502"/>
      <point x="643" y="502" type="curve" smooth="yes"/>
      <point x="655" y="502" type="line" smooth="yes"/>
      <point x="686" y="502"/>
      <point x="704" y="519"/>
      <point x="704" y="546" type="curve" smooth="yes"/>
    </contour>
  </outline>
</glyph>
<glyph name="uni099E" format="1">
  <advance width="804"/>
  <unicode hex="099E"/>
  <note>
	uni099E
  </note>
  <outline>
    <contour>
      <point x="707" y="104"/>
      <point x="777" y="151"/>
      <point x="777" y="238" type="curve" smooth="yes"/>
      <point x="777" y="307"/>
      <point x="707" y="381"/>
      <point x="646" y="381" type="curve" smooth="yes"/>
      <point x="608" y="381"/>
      <point x="564" y="357"/>
      <point x="564" y="305" type="curve" smooth="yes"/>
      <point x="564" y="254"/>
      <point x="608" y="233"/>
      <point x="642" y="233" type="curve" smooth="yes"/>
      <point x="707" y="233"/>
      <point x="774" y="322"/>
      <point x="774" y="397" type="curve" smooth="yes"/>
      <point x="774" y="456"/>
      <point x="728" y="525"/>
      <point x="638" y="525" type="curve" smooth="yes"/>
      <point x="522" y="525"/>
      <point x="454" y="395"/>
      <point x="454" y="335" type="curve"/>
      <point x="515" y="312" type="line"/>
      <point x="515" y="374"/>
      <point x="572" y="436"/>
      <point x="635" y="436" type="curve" smooth="yes"/>
      <point x="662" y="436"/>
      <point x="695" y="418"/>
      <point x="695" y="375" type="curve" smooth="yes"/>
      <point x="695" y="340"/>
      <point x="666" y="296"/>
      <point x="644" y="296" type="curve" smooth="yes"/>
      <point x="636" y="296"/>
      <point x="627" y="301"/>
      <point x="627" y="309" type="curve" smooth="yes"/>
      <point x="627" y="317"/>
      <point x="636" y="322"/>
      <point x="644" y="322" type="curve" smooth="yes"/>
      <point x="663" y="322"/>
      <point x="700" y="298"/>
      <point x="700" y="260" type="curve" smooth="yes"/>
      <point x="700" y="211"/>
      <point x="662" y="189"/>
      <point x="624" y="189" type="curve" smooth="yes"/>
      <point x="578" y="189"/>
      <point x="515" y="210"/>
      <point x="515" y="300" type="curve"/>
      <point x="455" y="284" type="line"/>
      <point x="455" y="169"/>
      <point x="566" y="104"/>
      <point x="639" y="104" type="curve" smooth="yes"/>
    </contour>
    <contour>
      <point x="498" y="-12"/>
      <point x="512" y="17"/>
      <point x="512" y="46" type="curve" smooth="yes"/>
      <point x="517" y="468" type="line" smooth="yes"/>
      <point x="518" y="545"/>
      <point x="494" y="595"/>
      <point x="418" y="595" type="curve" smooth="yes"/>
      <point x="288" y="595"/>
      <point x="145" y="447"/>
      <point x="145" y="329" type="curve" smooth="yes"/>
      <point x="145" y="262"/>
      <point x="191" y="213"/>
      <point x="261" y="213" type="curve" smooth="yes"/>
      <point x="333" y="213"/>
      <point x="371" y="264"/>
      <point x="371" y="313" type="curve" smooth="yes"/>
      <point x="371" y="356"/>
      <point x="341" y="414"/>
      <point x="270" y="414" type="curve" smooth="yes"/>
      <point x="231" y="414"/>
      <point x="208" y="396"/>
      <point x="193" y="379" type="curve"/>
      <point x="261" y="367" type="line"/>
      <point x="261" y="432"/>
      <point x="352" y="492"/>
      <point x="387" y="492" type="curve" smooth="yes"/>
      <point x="413" y="492"/>
      <point x="410" y="463"/>
      <point x="410" y="423" type="curve" smooth="yes"/>
      <point x="409" y="97" type="line"/>
      <point x="452" y="130" type="line"/>
      <point x="427" y="162"/>
      <point x="387" y="180"/>
      <point x="347" y="180" type="curve" smooth="yes"/>
      <point x="285" y="180"/>
      <point x="225" y="139"/>
      <point x="178" y="139" type="curve" smooth="yes"/>
      <point x="144" y="139"/>
      <point x="86" y="161"/>
      <point x="86" y="242" type="curve" smooth="yes"/>
      <point x="86" y="281"/>
      <point x="99" y="317"/>
      <point x="99" y="342" type="curve" smooth="yes"/>
      <point x="99" y="372"/>
      <point x="80" y="380"/>
      <point x="65" y="380" type="curve" smooth="yes"/>
      <point x="22" y="380"/>
      <point x="-4" y="309"/>
      <point x="-4" y="242" type="curve" smooth="yes"/>
      <point x="-4" y="139"/>
      <point x="58" y="34"/>
      <point x="176" y="34" type="curve" smooth="yes"/>
      <point x="251" y="34"/>
      <point x="298" y="76"/>
      <point x="353" y="76" type="curve" smooth="yes"/>
      <point x="362" y="76"/>
      <point x="393" y="75"/>
      <point x="410" y="37" type="curve" smooth="yes"/>
      <point x="419" y="16"/>
      <point x="433" y="-12"/>
      <point x="466" y="-12" type="curve" smooth="yes"/>
    </contour>
    <contour>
      <point x="250" y="287"/>
      <point x="236" y="297"/>
      <point x="236" y="316" type="curve" smooth="yes"/>
      <point x="236" y="332"/>
      <point x="249" y="345"/>
      <point x="265" y="345" type="curve" smooth="yes"/>
      <point x="283" y="345"/>
      <point x="294" y="332"/>
      <point x="294" y="316" type="curve" smooth="yes"/>
      <point x="294" y="297"/>
      <point x="280" y="287"/>
      <point x="266" y="287" type="curve" smooth="yes"/>
    </contour>
  </outline>
</glyph>
<glyph name="uni099F" format="1">
  <advance width="488"/>
  <unicode hex="099F"/>
  <note>
	uni099F
  </note>
  <outline>
    <contour>
      <point x="312" y="-12"/>
      <point x="440" y="181"/>
      <point x="440" y="318" type="curve" smooth="yes"/>
      <point x="440" y="374"/>
      <point x="407" y="442"/>
      <point x="325" y="442" type="curve" smooth="yes"/>
      <point x="262" y="442"/>
      <point x="207" y="400"/>
      <point x="207" y="331" type="curve" smooth="yes"/>
      <point x="207" y="247"/>
      <point x="270" y="218"/>
      <point x="331" y="218" type="curve" smooth="yes"/>
      <point x="354" y="218"/>
      <point x="391" y="233"/>
      <point x="403" y="262" type="curve"/>
      <point x="323" y="272" type="line"/>
      <point x="323" y="200"/>
      <point x="257" y="88"/>
      <point x="208" y="88" type="curve" smooth="yes"/>
      <point x="176" y="88"/>
      <point x="171" y="112"/>
      <point x="171" y="164" type="curve" smooth="yes"/>
      <point x="171" y="445" type="line" smooth="yes"/>
      <point x="171" y="501"/>
      <point x="196" y="502"/>
      <point x="221" y="502" type="curve" smooth="yes"/>
      <point x="488" y="502" type="line" smooth="yes"/>
      <point x="499" y="502"/>
      <point x="529" y="508"/>
      <point x="529" y="545" type="curve" smooth="yes"/>
      <point x="529" y="581"/>
      <point x="499" y="587"/>
      <point x="488" y="587" type="curve" smooth="yes"/>
      <point x="152" y="587" type="line" smooth="yes"/>
      <point x="122" y="587"/>
      <point x="91" y="572"/>
      <point x="90" y="539" type="curve"/>
      <point x="97" y="539" type="line"/>
      <point x="97" y="567"/>
      <point x="61" y="587"/>
      <point x="25" y="587" type="curve" smooth="yes"/>
      <point x="0" y="587" type="line" smooth="yes"/>
      <point x="-12" y="587"/>
      <point x="-46" y="582"/>
      <point x="-46" y="545" type="curve" smooth="yes"/>
      <point x="-46" y="508"/>
      <point x="-12" y="502"/>
      <point x="0" y="502" type="curve" smooth="yes"/>
      <point x="25" y="502" type="line" smooth="yes"/>
      <point x="61" y="502"/>
      <point x="66" y="481"/>
      <point x="66" y="434" type="curve" smooth="yes"/>
      <point x="66" y="118" type="line" smooth="yes"/>
      <point x="66" y="74"/>
      <point x="80" y="-12"/>
      <point x="185" y="-12" type="curve" smooth="yes"/>
    </contour>
    <contour>
      <point x="302" y="295"/>
      <point x="289" y="308"/>
      <point x="289" y="323" type="curve" smooth="yes"/>
      <point x="289" y="340"/>
      <point x="300" y="353"/>
      <point x="316" y="353" type="curve" smooth="yes"/>
      <point x="336" y="353"/>
      <point x="347" y="337"/>
      <point x="347" y="322" type="curve" smooth="yes"/>
      <point x="347" y="308"/>
      <point x="338" y="295"/>
      <point x="319" y="295" type="curve" smooth="yes"/>
    </contour>
    <contour>
      <point x="444" y="544" type="line"/>
      <point x="444" y="678"/>
      <point x="401" y="739"/>
      <point x="313" y="739" type="curve" smooth="yes"/>
      <point x="256" y="739"/>
      <point x="149" y="711"/>
      <point x="103" y="711" type="curve" smooth="yes"/>
      <point x="59" y="711"/>
      <point x="43" y="742"/>
      <point x="38" y="779" type="curve" smooth="yes"/>
      <point x="33" y="813"/>
      <point x="17" y="826"/>
      <point x="-2" y="826" type="curve" smooth="yes"/>
      <point x="-28" y="826"/>
      <point x="-37" y="805"/>
      <point x="-37" y="782" type="curve" smooth="yes"/>
      <point x="-37" y="705"/>
      <point x="5" y="624"/>
      <point x="108" y="624" type="curve" smooth="yes"/>
      <point x="176" y="624"/>
      <point x="265" y="648"/>
      <point x="310" y="648" type="curve" smooth="yes"/>
      <point x="358" y="648"/>
      <point x="358" y="607"/>
      <point x="358" y="544" type="curve"/>
    </contour>
  </outline>
</glyph>
<glyph name="uni09A0" format="1">
  <advance width="420"/>
  <unicode hex="09A0"/>
  <note>
	uni09A0
  </note>
  <outline>
    <contour>
      <point x="341" y="-12"/>
      <point x="394" y="108"/>
      <point x="394" y="210" type="curve" smooth="yes"/>
      <point x="394" y="359"/>
      <point x="291" y="478"/>
      <point x="227" y="551" type="curve"/>
      <point x="187" y="529" type="line"/>
      <point x="203" y="518"/>
      <point x="222" y="502"/>
      <point x="248" y="502" type="curve" smooth="yes"/>
      <point x="420" y="502" type="line" smooth="yes"/>
      <point x="434" y="502"/>
      <point x="463" y="508"/>
      <point x="463" y="546" type="curve" smooth="yes"/>
      <point x="463" y="584"/>
      <point x="433" y="587"/>
      <point x="420" y="587" type="curve" smooth="yes"/>
      <point x="242" y="587" type="line" smooth="yes"/>
      <point x="193" y="587"/>
      <point x="173" y="653"/>
      <point x="173" y="700" type="curve" smooth="yes"/>
      <point x="173" y="807"/>
      <point x="297" y="812"/>
      <point x="297" y="866" type="curve" smooth="yes"/>
      <point x="297" y="883"/>
      <point x="284" y="894"/>
      <point x="261" y="894" type="curve" smooth="yes"/>
      <point x="226" y="894"/>
      <point x="86" y="830"/>
      <point x="86" y="700" type="curve" smooth="yes"/>
      <point x="86" y="640"/>
      <point x="112" y="559"/>
      <point x="153" y="537" type="curve"/>
      <point x="150" y="555" type="line"/>
      <point x="129" y="568"/>
      <point x="95" y="587"/>
      <point x="54" y="587" type="curve" smooth="yes"/>
      <point x="0" y="587" type="line" smooth="yes"/>
      <point x="-14" y="587"/>
      <point x="-42" y="582"/>
      <point x="-42" y="545" type="curve" smooth="yes"/>
      <point x="-42" y="510"/>
      <point x="-15" y="502"/>
      <point x="0" y="502" type="curve" smooth="yes"/>
      <point x="81" y="502" type="line" smooth="yes"/>
      <point x="148" y="502"/>
      <point x="173" y="474"/>
      <point x="173" y="435" type="curve" smooth="yes"/>
      <point x="173" y="342"/>
      <point x="29" y="298"/>
      <point x="29" y="167" type="curve" smooth="yes"/>
      <point x="29" y="69"/>
      <point x="109" y="-12"/>
      <point x="214" y="-12" type="curve" smooth="yes"/>
    </contour>
    <contour>
      <point x="168" y="79"/>
      <point x="134" y="108"/>
      <point x="134" y="164" type="curve" smooth="yes"/>
      <point x="134" y="274"/>
      <point x="273" y="287"/>
      <point x="273" y="462" type="curve"/>
      <point x="183" y="455" type="line"/>
      <point x="255" y="374"/>
      <point x="288" y="308"/>
      <point x="288" y="218" type="curve" smooth="yes"/>
      <point x="288" y="127"/>
      <point x="255" y="79"/>
      <point x="206" y="79" type="curve" smooth="yes"/>
    </contour>
  </outline>
</glyph>
<glyph name="uni09A1" format="1">
  <advance width="593"/>
  <unicode hex="09A1"/>
  <note>
	uni09A1
  </note>
  <outline>
    <contour>
      <point x="475" y="13"/>
      <point x="562" y="102"/>
      <point x="562" y="224" type="curve" smooth="yes"/>
      <point x="562" y="321"/>
      <point x="507" y="405"/>
      <point x="465" y="405" type="curve" smooth="yes"/>
      <point x="416" y="405"/>
      <point x="442" y="307"/>
      <point x="367" y="307" type="curve" smooth="yes"/>
      <point x="326" y="307"/>
      <point x="306" y="341"/>
      <point x="306" y="380" type="curve" smooth="yes"/>
      <point x="306" y="448"/>
      <point x="333" y="502"/>
      <point x="397" y="502" type="curve" smooth="yes"/>
      <point x="593" y="502" type="line" smooth="yes"/>
      <point x="603" y="502"/>
      <point x="630" y="508"/>
      <point x="630" y="545" type="curve" smooth="yes"/>
      <point x="630" y="581"/>
      <point x="600" y="587"/>
      <point x="593" y="587" type="curve" smooth="yes"/>
      <point x="379" y="587" type="line" smooth="yes"/>
      <point x="274" y="587"/>
      <point x="220" y="504"/>
      <point x="220" y="393" type="curve" smooth="yes"/>
      <point x="220" y="284"/>
      <point x="273" y="205"/>
      <point x="363" y="205" type="curve" smooth="yes"/>
      <point x="455" y="205"/>
      <point x="479" y="287"/>
      <point x="479" y="306" type="curve"/>
      <point x="449" y="306" type="line"/>
      <point x="460" y="289"/>
      <point x="470" y="257"/>
      <point x="470" y="228" type="curve" smooth="yes"/>
      <point x="470" y="159"/>
      <point x="423" y="118"/>
      <point x="352" y="118" type="curve" smooth="yes"/>
      <point x="232" y="118"/>
      <point x="144" y="234"/>
      <point x="114" y="422" type="curve" smooth="yes"/>
      <point x="110" y="446"/>
      <point x="97" y="468"/>
      <point x="66" y="468" type="curve" smooth="yes"/>
      <point x="29" y="468"/>
      <point x="25" y="435"/>
      <point x="25" y="412" type="curve" smooth="yes"/>
      <point x="25" y="289"/>
      <point x="142" y="13"/>
      <point x="354" y="13" type="curve" smooth="yes"/>
    </contour>
    <contour>
      <point x="288" y="512" type="line"/>
      <point x="288" y="553"/>
      <point x="237" y="587"/>
      <point x="173" y="587" type="curve" smooth="yes"/>
      <point x="0" y="587" type="line" smooth="yes"/>
      <point x="-7" y="587"/>
      <point x="-38" y="582"/>
      <point x="-38" y="545" type="curve" smooth="yes"/>
      <point x="-38" y="511"/>
      <point x="-9" y="502"/>
      <point x="0" y="502" type="curve" smooth="yes"/>
      <point x="174" y="502" type="line" smooth="yes"/>
      <point x="246" y="502"/>
      <point x="222" y="452"/>
      <point x="222" y="426" type="curve"/>
    </contour>
  </outline>
</glyph>
<glyph name="uni09A2" format="1">
  <advance width="488"/>
  <unicode hex="09A2"/>
  <note>
	uni09A2
  </note>
  <outline>
    <contour>
      <point x="312" y="-12"/>
      <point x="440" y="181"/>
      <point x="440" y="318" type="curve" smooth="yes"/>
      <point x="440" y="374"/>
      <point x="407" y="442"/>
      <point x="325" y="442" type="curve" smooth="yes"/>
      <point x="262" y="442"/>
      <point x="207" y="400"/>
      <point x="207" y="331" type="curve" smooth="yes"/>
      <point x="207" y="247"/>
      <point x="270" y="218"/>
      <point x="331" y="218" type="curve" smooth="yes"/>
      <point x="354" y="218"/>
      <point x="391" y="233"/>
      <point x="403" y="262" type="curve"/>
      <point x="323" y="272" type="line"/>
      <point x="323" y="200"/>
      <point x="257" y="88"/>
      <point x="208" y="88" type="curve" smooth="yes"/>
      <point x="176" y="88"/>
      <point x="171" y="112"/>
      <point x="171" y="164" type="curve" smooth="yes"/>
      <point x="171" y="445" type="line" smooth="yes"/>
      <point x="171" y="501"/>
      <point x="196" y="502"/>
      <point x="221" y="502" type="curve" smooth="yes"/>
      <point x="488" y="502" type="line" smooth="yes"/>
      <point x="499" y="502"/>
      <point x="529" y="508"/>
      <point x="529" y="545" type="curve" smooth="yes"/>
      <point x="529" y="581"/>
      <point x="499" y="587"/>
      <point x="488" y="587" type="curve" smooth="yes"/>
      <point x="152" y="587" type="line" smooth="yes"/>
      <point x="122" y="587"/>
      <point x="91" y="572"/>
      <point x="90" y="539" type="curve"/>
      <point x="97" y="539" type="line"/>
      <point x="97" y="567"/>
      <point x="61" y="587"/>
      <point x="25" y="587" type="curve" smooth="yes"/>
      <point x="0" y="587" type="line" smooth="yes"/>
      <point x="-12" y="587"/>
      <point x="-46" y="582"/>
      <point x="-46" y="545" type="curve" smooth="yes"/>
      <point x="-46" y="508"/>
      <point x="-12" y="502"/>
      <point x="0" y="502" type="curve" smooth="yes"/>
      <point x="25" y="502" type="line" smooth="yes"/>
      <point x="61" y="502"/>
      <point x="66" y="481"/>
      <point x="66" y="434" type="curve" smooth="yes"/>
      <point x="66" y="118" type="line" smooth="yes"/>
      <point x="66" y="74"/>
      <point x="80" y="-12"/>
      <point x="185" y="-12" type="curve" smooth="yes"/>
    </contour>
    <contour>
      <point x="302" y="295"/>
      <point x="289" y="308"/>
      <point x="289" y="323" type="curve" smooth="yes"/>
      <point x="289" y="340"/>
      <point x="300" y="353"/>
      <point x="316" y="353" type="curve" smooth="yes"/>
      <point x="336" y="353"/>
      <point x="347" y="337"/>
      <point x="347" y="322" type="curve" smooth="yes"/>
      <point x="347" y="308"/>
      <point x="338" y="295"/>
      <point x="319" y="295" type="curve" smooth="yes"/>
    </contour>
  </outline>
</glyph>
<glyph name="uni09A3" format="1">
  <advance width="522"/>
  <unicode hex="09A3"/>
  <note>
	uni09A3
  </note>
  <outline>
    <contour>
      <point x="94" y="590"/>
      <point x="25" y="500"/>
      <point x="25" y="400" type="curve" smooth="yes"/>
      <point x="25" y="291"/>
      <point x="106" y="221"/>
      <point x="188" y="221" type="curve" smooth="yes"/>
      <point x="262" y="221"/>
      <point x="305" y="277"/>
      <point x="305" y="329" type="curve" smooth="yes"/>
      <point x="305" y="381"/>
      <point x="262" y="436"/>
      <point x="197" y="436" type="curve" smooth="yes"/>
      <point x="143" y="436"/>
      <point x="100" y="398"/>
      <point x="100" y="351" type="curve" smooth="yes"/>
      <point x="100" y="323"/>
      <point x="115" y="305"/>
      <point x="121" y="295" type="curve"/>
      <point x="138" y="324" type="line"/>
      <point x="129" y="335"/>
      <point x="108" y="364"/>
      <point x="108" y="395" type="curve" smooth="yes"/>
      <point x="108" y="439"/>
      <point x="150" y="485"/>
      <point x="216" y="485" type="curve" smooth="yes"/>
      <point x="291" y="485"/>
      <point x="353" y="425"/>
      <point x="353" y="267" type="curve"/>
      <point x="433" y="321" type="line"/>
      <point x="433" y="483"/>
      <point x="341" y="590"/>
      <point x="212" y="590" type="curve" smooth="yes"/>
    </contour>
    <contour>
      <point x="204" y="351"/>
      <point x="216" y="339"/>
      <point x="216" y="322" type="curve" smooth="yes"/>
      <point x="216" y="302"/>
      <point x="201" y="293"/>
      <point x="187" y="293" type="curve" smooth="yes"/>
      <point x="172" y="293"/>
      <point x="158" y="304"/>
      <point x="158" y="321" type="curve" smooth="yes"/>
      <point x="158" y="340"/>
      <point x="174" y="351"/>
      <point x="189" y="351" type="curve" smooth="yes"/>
    </contour>
    <contour>
      <point x="442" y="-12"/>
      <point x="457" y="17"/>
      <point x="457" y="64" type="curve" smooth="yes"/>
      <point x="458" y="335" type="line" smooth="yes"/>
      <point x="458" y="491"/>
      <point x="462" y="513"/>
      <point x="467" y="583" type="curve" smooth="yes"/>
      <point x="468" y="597"/>
      <point x="463" y="609"/>
      <point x="437" y="609" type="curve" smooth="yes"/>
      <point x="371" y="609"/>
      <point x="354" y="492"/>
      <point x="353" y="335" type="curve" smooth="yes"/>
      <point x="351" y="64" type="line" smooth="yes"/>
      <point x="351" y="13"/>
      <point x="373" y="-12"/>
      <point x="406" y="-12" type="curve" smooth="yes"/>
    </contour>
    <contour>
      <point x="573" y="577"/>
      <point x="552" y="587"/>
      <point x="524" y="587" type="curve" smooth="yes"/>
      <point x="500" y="587" type="line" smooth="yes"/>
      <point x="482" y="587"/>
      <point x="469" y="585"/>
      <point x="466" y="595" type="curve"/>
      <point x="452" y="582" type="line"/>
      <point x="452" y="557"/>
      <point x="461" y="502"/>
      <point x="512" y="502" type="curve" smooth="yes"/>
      <point x="524" y="502" type="line" smooth="yes"/>
      <point x="555" y="502"/>
      <point x="573" y="519"/>
      <point x="573" y="546" type="curve" smooth="yes"/>
    </contour>
  </outline>
</glyph>
<glyph name="uni09A4" format="1">
  <advance width="567"/>
  <unicode hex="09A4"/>
  <note>
	uni09A4
  </note>
  <outline>
    <contour>
      <point x="250" y="466"/>
      <point x="185" y="421"/>
      <point x="185" y="340" type="curve" smooth="yes"/>
      <point x="185" y="283"/>
      <point x="233" y="224"/>
      <point x="303" y="224" type="curve" smooth="yes"/>
      <point x="376" y="224"/>
      <point x="418" y="283"/>
      <point x="418" y="340" type="curve" smooth="yes"/>
      <point x="418" y="381"/>
      <point x="395" y="405"/>
      <point x="380" y="419" type="curve"/>
      <point x="339" y="393" type="line"/>
      <point x="358" y="393"/>
      <point x="438" y="341"/>
      <point x="438" y="257" type="curve" smooth="yes"/>
      <point x="438" y="181"/>
      <point x="397" y="126"/>
      <point x="311" y="126" type="curve" smooth="yes"/>
      <point x="205" y="126"/>
      <point x="123" y="244"/>
      <point x="109" y="393" type="curve" smooth="yes"/>
      <point x="106" y="421"/>
      <point x="89" y="440"/>
      <point x="65" y="440" type="curve" smooth="yes"/>
      <point x="29" y="440"/>
      <point x="25" y="414"/>
      <point x="25" y="393" type="curve" smooth="yes"/>
      <point x="25" y="269"/>
      <point x="123" y="21"/>
      <point x="314" y="21" type="curve" smooth="yes"/>
      <point x="450" y="21"/>
      <point x="533" y="138"/>
      <point x="533" y="244" type="curve" smooth="yes"/>
      <point x="533" y="370"/>
      <point x="442" y="466"/>
      <point x="329" y="466" type="curve" smooth="yes"/>
    </contour>
    <contour>
      <point x="286" y="319"/>
      <point x="275" y="332"/>
      <point x="275" y="348" type="curve" smooth="yes"/>
      <point x="275" y="363"/>
      <point x="287" y="377"/>
      <point x="302" y="377" type="curve" smooth="yes"/>
      <point x="318" y="377"/>
      <point x="333" y="364"/>
      <point x="333" y="347" type="curve" smooth="yes"/>
      <point x="333" y="333"/>
      <point x="321" y="319"/>
      <point x="305" y="319" type="curve" smooth="yes"/>
    </contour>
    <contour>
      <point x="567" y="502" type="line" smooth="yes"/>
      <point x="578" y="502"/>
      <point x="608" y="509"/>
      <point x="608" y="545" type="curve" smooth="yes"/>
      <point x="608" y="578"/>
      <point x="580" y="587"/>
      <point x="567" y="587" type="curve" smooth="yes"/>
      <point x="0" y="587" type="line" smooth="yes"/>
      <point x="-18" y="587"/>
      <point x="-45" y="578"/>
      <point x="-45" y="545" type="curve" smooth="yes"/>
      <point x="-45" y="509"/>
      <point x="-18" y="502"/>
      <point x="0" y="502" type="curve" smooth="yes"/>
    </contour>
  </outline>
</glyph>
<glyph name="uni09A5" format="1">
  <advance width="522"/>
  <unicode hex="09A5"/>
  <note>
	uni09A5
  </note>
  <outline>
    <contour>
      <point x="214" y="236"/>
      <point x="332" y="296"/>
      <point x="332" y="437" type="curve" smooth="yes"/>
      <point x="332" y="540"/>
      <point x="236" y="589"/>
      <point x="162" y="589" type="curve" smooth="yes"/>
      <point x="67" y="589"/>
      <point x="7" y="523"/>
      <point x="7" y="457" type="curve" smooth="yes"/>
      <point x="7" y="407"/>
      <point x="49" y="358"/>
      <point x="110" y="358" type="curve" smooth="yes"/>
      <point x="178" y="358"/>
      <point x="206" y="407"/>
      <point x="206" y="451" type="curve" smooth="yes"/>
      <point x="206" y="492"/>
      <point x="173" y="540"/>
      <point x="102" y="540" type="curve"/>
      <point x="85" y="492" type="line"/>
      <point x="107" y="507"/>
      <point x="135" y="515"/>
      <point x="161" y="515" type="curve" smooth="yes"/>
      <point x="198" y="515"/>
      <point x="237" y="492"/>
      <point x="237" y="435" type="curve" smooth="yes"/>
      <point x="237" y="336"/>
      <point x="138" y="315"/>
      <point x="100" y="315" type="curve" smooth="yes"/>
      <point x="53" y="315"/>
      <point x="38" y="291"/>
      <point x="38" y="267" type="curve" smooth="yes"/>
      <point x="38" y="244"/>
      <point x="49" y="220"/>
      <point x="85" y="211" type="curve" smooth="yes"/>
      <point x="136" y="198"/>
      <point x="350" y="153"/>
      <point x="350" y="54" type="curve"/>
      <point x="418" y="54" type="line"/>
      <point x="418" y="255"/>
      <point x="195" y="280"/>
      <point x="146" y="280" type="curve"/>
      <point x="146" y="236" type="line"/>
    </contour>
    <contour>
      <point x="97" y="434"/>
      <point x="78" y="442"/>
      <point x="78" y="464" type="curve" smooth="yes"/>
      <point x="78" y="479"/>
      <point x="90" y="492"/>
      <point x="107" y="492" type="curve" smooth="yes"/>
      <point x="123" y="492"/>
      <point x="136" y="481"/>
      <point x="136" y="464" type="curve" smooth="yes"/>
      <point x="136" y="445"/>
      <point x="122" y="434"/>
      <point x="108" y="434" type="curve" smooth="yes"/>
    </contour>
    <contour>
      <point x="440" y="-12"/>
      <point x="455" y="17"/>
      <point x="455" y="64" type="curve" smooth="yes"/>
      <point x="456" y="335" type="line" smooth="yes"/>
      <point x="456" y="491"/>
      <point x="460" y="513"/>
      <point x="465" y="583" type="curve" smooth="yes"/>
      <point x="466" y="597"/>
      <point x="461" y="609"/>
      <point x="435" y="609" type="curve" smooth="yes"/>
      <point x="369" y="609"/>
      <point x="352" y="492"/>
      <point x="351" y="335" type="curve" smooth="yes"/>
      <point x="349" y="64" type="line" smooth="yes"/>
      <point x="349" y="13"/>
      <point x="371" y="-12"/>
      <point x="404" y="-12" type="curve" smooth="yes"/>
    </contour>
    <contour>
      <point x="571" y="577"/>
      <point x="550" y="587"/>
      <point x="522" y="587" type="curve" smooth="yes"/>
      <point x="498" y="587" type="line" smooth="yes"/>
      <point x="480" y="587"/>
      <point x="467" y="585"/>
      <point x="464" y="595" type="curve"/>
      <point x="450" y="582" type="line"/>
      <point x="450" y="557"/>
      <point x="459" y="502"/>
      <point x="510" y="502" type="curve" smooth="yes"/>
      <point x="522" y="502" type="line" smooth="yes"/>
      <point x="553" y="502"/>
      <point x="571" y="519"/>
      <point x="571" y="546" type="curve" smooth="yes"/>
    </contour>
  </outline>
</glyph>
<glyph name="uni09A6" format="1">
  <advance width="528"/>
  <unicode hex="09A6"/>
  <note>
	uni09A6
  </note>
  <outline>
    <contour>
      <point x="449" y="-12"/>
      <point x="461" y="15"/>
      <point x="461" y="73" type="curve" smooth="yes"/>
      <point x="461" y="131"/>
      <point x="445" y="177"/>
      <point x="445" y="223" type="curve" smooth="yes"/>
      <point x="445" y="313"/>
      <point x="474" y="380"/>
      <point x="474" y="420" type="curve" smooth="yes"/>
      <point x="474" y="438"/>
      <point x="466" y="466"/>
      <point x="430" y="466" type="curve" smooth="yes"/>
      <point x="380" y="466"/>
      <point x="224" y="372"/>
      <point x="128" y="254" type="curve"/>
      <point x="195" y="209" type="line"/>
      <point x="195" y="406" type="line" smooth="yes"/>
      <point x="195" y="455"/>
      <point x="193" y="502"/>
      <point x="243" y="502" type="curve" smooth="yes"/>
      <point x="528" y="502" type="line" smooth="yes"/>
      <point x="537" y="502"/>
      <point x="564" y="510"/>
      <point x="564" y="545" type="curve" smooth="yes"/>
      <point x="564" y="581"/>
      <point x="536" y="587"/>
      <point x="528" y="587" type="curve" smooth="yes"/>
      <point x="188" y="587" type="line" smooth="yes"/>
      <point x="148" y="587"/>
      <point x="122" y="575"/>
      <point x="122" y="532" type="curve"/>
      <point x="133" y="532" type="line"/>
      <point x="133" y="575"/>
      <point x="95" y="587"/>
      <point x="47" y="587" type="curve" smooth="yes"/>
      <point x="0" y="587" type="line" smooth="yes"/>
      <point x="-12" y="587"/>
      <point x="-40" y="580"/>
      <point x="-40" y="545" type="curve" smooth="yes"/>
      <point x="-40" y="510"/>
      <point x="-12" y="502"/>
      <point x="0" y="502" type="curve" smooth="yes"/>
      <point x="49" y="502" type="line" smooth="yes"/>
      <point x="96" y="502"/>
      <point x="90" y="463"/>
      <point x="90" y="425" type="curve" smooth="yes"/>
      <point x="90" y="167" type="line" smooth="yes"/>
      <point x="90" y="148"/>
      <point x="98" y="129"/>
      <point x="128" y="129" type="curve" smooth="yes"/>
      <point x="167" y="129"/>
      <point x="185" y="170"/>
      <point x="234" y="219" type="curve" smooth="yes"/>
      <point x="294" y="280"/>
      <point x="372" y="326"/>
      <point x="430" y="369" type="curve"/>
      <point x="375" y="399" type="line"/>
      <point x="352" y="348"/>
      <point x="343" y="297"/>
      <point x="343" y="223" type="curve" smooth="yes"/>
      <point x="343" y="177"/>
      <point x="355" y="131"/>
      <point x="355" y="73" type="curve" smooth="yes"/>
      <point x="355" y="15"/>
      <point x="370" y="-12"/>
      <point x="410" y="-12" type="curve" smooth="yes"/>
    </contour>
  </outline>
</glyph>
<glyph name="uni09A7" format="1">
  <advance width="489"/>
  <unicode hex="09A7"/>
  <note>
	uni09A7
  </note>
  <outline>
    <contour>
      <point x="407" y="-12"/>
      <point x="422" y="17"/>
      <point x="422" y="64" type="curve" smooth="yes"/>
      <point x="423" y="335" type="line" smooth="yes"/>
      <point x="423" y="448"/>
      <point x="425" y="491"/>
      <point x="428" y="532" type="curve"/>
      <point x="437" y="515"/>
      <point x="452" y="502"/>
      <point x="477" y="502" type="curve" smooth="yes"/>
      <point x="489" y="502" type="line" smooth="yes"/>
      <point x="520" y="502"/>
      <point x="538" y="519"/>
      <point x="538" y="546" type="curve" smooth="yes"/>
      <point x="538" y="577"/>
      <point x="517" y="587"/>
      <point x="489" y="587" type="curve" smooth="yes"/>
      <point x="465" y="587" type="line" smooth="yes"/>
      <point x="447" y="587"/>
      <point x="434" y="585"/>
      <point x="431" y="595" type="curve" smooth="yes"/>
      <point x="429" y="603"/>
      <point x="420" y="609"/>
      <point x="402" y="609" type="curve" smooth="yes"/>
      <point x="353" y="609"/>
      <point x="332" y="532"/>
      <point x="326" y="477" type="curve" smooth="yes"/>
      <point x="322" y="443"/>
      <point x="300" y="429"/>
      <point x="278" y="419" type="curve" smooth="yes"/>
      <point x="234" y="399"/>
      <point x="183" y="424"/>
      <point x="170" y="453" type="curve"/>
      <point x="150" y="424" type="line"/>
      <point x="206" y="408"/>
      <point x="275" y="441"/>
      <point x="275" y="517" type="curve" smooth="yes"/>
      <point x="275" y="587"/>
      <point x="210" y="611"/>
      <point x="163" y="611" type="curve" smooth="yes"/>
      <point x="115" y="611"/>
      <point x="49" y="575"/>
      <point x="49" y="498" type="curve" smooth="yes"/>
      <point x="49" y="425"/>
      <point x="92" y="383"/>
      <point x="135" y="362" type="curve"/>
      <point x="107" y="354"/>
      <point x="81" y="348"/>
      <point x="61" y="343" type="curve" smooth="yes"/>
      <point x="26" y="334"/>
      <point x="14" y="310"/>
      <point x="14" y="285" type="curve" smooth="yes"/>
      <point x="14" y="253"/>
      <point x="39" y="233"/>
      <point x="78" y="222" type="curve" smooth="yes"/>
      <point x="124" y="209"/>
      <point x="316" y="154"/>
      <point x="316" y="64" type="curve" smooth="yes"/>
      <point x="316" y="13"/>
      <point x="338" y="-12"/>
      <point x="371" y="-12" type="curve" smooth="yes"/>
    </contour>
    <contour>
      <point x="284" y="239"/>
      <point x="245" y="261"/>
      <point x="206" y="277" type="curve"/>
      <point x="244" y="290"/>
      <point x="284" y="306"/>
      <point x="318" y="327" type="curve"/>
      <point x="317" y="214" type="line"/>
    </contour>
    <contour>
      <point x="140" y="478"/>
      <point x="131" y="492"/>
      <point x="131" y="506" type="curve" smooth="yes"/>
      <point x="131" y="521"/>
      <point x="141" y="536"/>
      <point x="160" y="536" type="curve" smooth="yes"/>
      <point x="178" y="536"/>
      <point x="189" y="520"/>
      <point x="189" y="508" type="curve" smooth="yes"/>
      <point x="189" y="493"/>
      <point x="178" y="478"/>
      <point x="160" y="478" type="curve" smooth="yes"/>
    </contour>
  </outline>
</glyph>
<glyph name="uni09A8" format="1">
  <advance width="506"/>
  <unicode hex="09A8"/>
  <note>
	uni09A8
  </note>
  <outline>
    <contour>
      <point x="69" y="413"/>
      <point x="20" y="342"/>
      <point x="20" y="278" type="curve" smooth="yes"/>
      <point x="20" y="197"/>
      <point x="84" y="143"/>
      <point x="153" y="143" type="curve" smooth="yes"/>
      <point x="223" y="143"/>
      <point x="264" y="207"/>
      <point x="264" y="253" type="curve" smooth="yes"/>
      <point x="264" y="320"/>
      <point x="231" y="340"/>
      <point x="216" y="342" type="curve"/>
      <point x="206" y="301" type="line"/>
      <point x="239" y="301"/>
      <point x="333" y="238"/>
      <point x="333" y="64" type="curve"/>
      <point x="412" y="102" type="line"/>
      <point x="412" y="247"/>
      <point x="325" y="413"/>
      <point x="163" y="413" type="curve" smooth="yes"/>
    </contour>
    <contour>
      <point x="136" y="248"/>
      <point x="119" y="257"/>
      <point x="119" y="276" type="curve" smooth="yes"/>
      <point x="119" y="293"/>
      <point x="131" y="306"/>
      <point x="148" y="306" type="curve" smooth="yes"/>
      <point x="162" y="306"/>
      <point x="177" y="295"/>
      <point x="177" y="277" type="curve" smooth="yes"/>
      <point x="177" y="259"/>
      <point x="163" y="248"/>
      <point x="149" y="248" type="curve" smooth="yes"/>
    </contour>
    <contour>
      <point x="368" y="492" type="line"/>
      <point x="369" y="540"/>
      <point x="345" y="587"/>
      <point x="263" y="587" type="curve" smooth="yes"/>
      <point x="0" y="587" type="line" smooth="yes"/>
      <point x="-18" y="587"/>
      <point x="-35" y="582"/>
      <point x="-35" y="551" type="curve" smooth="yes"/>
      <point x="-35" y="512"/>
      <point x="-18" y="502"/>
      <point x="0" y="502" type="curve" smooth="yes"/>
      <point x="248" y="502" type="line" smooth="yes"/>
      <point x="311" y="502"/>
      <point x="338" y="482"/>
      <point x="338" y="424" type="curve"/>
    </contour>
    <contour>
      <point x="424" y="-12"/>
      <point x="439" y="17"/>
      <point x="439" y="64" type="curve" smooth="yes"/>
      <point x="440" y="335" type="line" smooth="yes"/>
      <point x="440" y="491"/>
      <point x="444" y="513"/>
      <point x="449" y="583" type="curve" smooth="yes"/>
      <point x="450" y="597"/>
      <point x="445" y="609"/>
      <point x="419" y="609" type="curve" smooth="yes"/>
      <point x="353" y="609"/>
      <point x="336" y="492"/>
      <point x="335" y="335" type="curve" smooth="yes"/>
      <point x="333" y="64" type="line" smooth="yes"/>
      <point x="333" y="13"/>
      <point x="355" y="-12"/>
      <point x="388" y="-12" type="curve" smooth="yes"/>
    </contour>
    <contour>
      <point x="555" y="577"/>
      <point x="534" y="587"/>
      <point x="506" y="587" type="curve" smooth="yes"/>
      <point x="482" y="587" type="line" smooth="yes"/>
      <point x="464" y="587"/>
      <point x="451" y="585"/>
      <point x="448" y="595" type="curve"/>
      <point x="434" y="582" type="line"/>
      <point x="434" y="557"/>
      <point x="443" y="502"/>
      <point x="494" y="502" type="curve" smooth="yes"/>
      <point x="506" y="502" type="line" smooth="yes"/>
      <point x="537" y="502"/>
      <point x="555" y="519"/>
      <point x="555" y="546" type="curve" smooth="yes"/>
    </contour>
  </outline>
</glyph>
<glyph name="uni09AA" format="1">
  <advance width="580"/>
  <unicode hex="09AA"/>
  <note>
	uni09AA
  </note>
  <outline>
    <contour>
      <point x="271" y="397" type="line"/>
      <point x="251" y="381"/>
      <point x="218" y="364"/>
      <point x="192" y="364" type="curve" smooth="yes"/>
      <point x="160" y="364"/>
      <point x="139" y="383"/>
      <point x="139" y="412" type="curve" smooth="yes"/>
      <point x="139" y="442"/>
      <point x="166" y="479"/>
      <point x="246" y="479" type="curve" smooth="yes"/>
      <point x="322" y="479"/>
      <point x="409" y="428"/>
      <point x="409" y="265" type="curve"/>
      <point x="475" y="361" type="line"/>
      <point x="475" y="500"/>
      <point x="347" y="575"/>
      <point x="234" y="575" type="curve" smooth="yes"/>
      <point x="128" y="575"/>
      <point x="44" y="509"/>
      <point x="44" y="414" type="curve" smooth="yes"/>
      <point x="44" y="353"/>
      <point x="94" y="295"/>
      <point x="177" y="295" type="curve" smooth="yes"/>
      <point x="230" y="295"/>
      <point x="258" y="311"/>
      <point x="273" y="317" type="curve"/>
    </contour>
    <contour>
      <point x="383" y="454"/>
      <point x="308" y="430"/>
      <point x="251" y="381" type="curve" smooth="yes"/>
      <point x="192" y="330"/>
      <point x="153" y="269"/>
      <point x="153" y="234" type="curve" smooth="yes"/>
      <point x="153" y="211"/>
      <point x="171" y="199"/>
      <point x="186" y="199" type="curve" smooth="yes"/>
      <point x="226" y="199"/>
      <point x="232" y="227"/>
      <point x="301" y="292" type="curve" smooth="yes"/>
      <point x="347" y="336"/>
      <point x="408" y="362"/>
      <point x="429" y="362" type="curve"/>
      <point x="407" y="454" type="line"/>
    </contour>
    <contour>
      <point x="498" y="-12"/>
      <point x="513" y="17"/>
      <point x="513" y="64" type="curve" smooth="yes"/>
      <point x="514" y="335" type="line" smooth="yes"/>
      <point x="514" y="491"/>
      <point x="518" y="513"/>
      <point x="523" y="583" type="curve" smooth="yes"/>
      <point x="524" y="597"/>
      <point x="519" y="609"/>
      <point x="493" y="609" type="curve" smooth="yes"/>
      <point x="427" y="609"/>
      <point x="410" y="492"/>
      <point x="409" y="335" type="curve" smooth="yes"/>
      <point x="407" y="64" type="line" smooth="yes"/>
      <point x="407" y="13"/>
      <point x="429" y="-12"/>
      <point x="462" y="-12" type="curve" smooth="yes"/>
    </contour>
    <contour>
      <point x="629" y="577"/>
      <point x="608" y="587"/>
      <point x="580" y="587" type="curve" smooth="yes"/>
      <point x="556" y="587" type="line" smooth="yes"/>
      <point x="538" y="587"/>
      <point x="525" y="585"/>
      <point x="522" y="595" type="curve"/>
      <point x="508" y="582" type="line"/>
      <point x="508" y="557"/>
      <point x="517" y="502"/>
      <point x="568" y="502" type="curve" smooth="yes"/>
      <point x="580" y="502" type="line" smooth="yes"/>
      <point x="611" y="502"/>
      <point x="629" y="519"/>
      <point x="629" y="546" type="curve" smooth="yes"/>
    </contour>
  </outline>
</glyph>
<glyph name="uni09AB" format="1">
  <advance width="698"/>
  <unicode hex="09AB"/>
  <note>
	uni09AB
  </note>
  <outline>
    <contour>
      <point x="549" y="210"/>
      <point x="538" y="223"/>
      <point x="538" y="241" type="curve" smooth="yes"/>
      <point x="538" y="254"/>
      <point x="549" y="268"/>
      <point x="568" y="268" type="curve" smooth="yes"/>
      <point x="584" y="268"/>
      <point x="596" y="256"/>
      <point x="596" y="241" type="curve" smooth="yes"/>
      <point x="596" y="220"/>
      <point x="581" y="210"/>
      <point x="567" y="210" type="curve" smooth="yes"/>
    </contour>
    <contour>
      <point x="49" y="554" type="line"/>
      <point x="50" y="474"/>
      <point x="61" y="444"/>
      <point x="136" y="414" type="curve" smooth="yes"/>
      <point x="187" y="394"/>
      <point x="217" y="390"/>
      <point x="217" y="379" type="curve" smooth="yes"/>
      <point x="217" y="358"/>
      <point x="118" y="328"/>
      <point x="94" y="317" type="curve" smooth="yes"/>
      <point x="66" y="304"/>
      <point x="64" y="277"/>
      <point x="64" y="269" type="curve" smooth="yes"/>
      <point x="64" y="253"/>
      <point x="73" y="236"/>
      <point x="96" y="228" type="curve" smooth="yes"/>
      <point x="236" y="179"/>
      <point x="349" y="144"/>
      <point x="347" y="53" type="curve" smooth="yes"/>
      <point x="346" y="24"/>
      <point x="361" y="-11"/>
      <point x="404" y="-11" type="curve" smooth="yes"/>
      <point x="441" y="-11"/>
      <point x="455" y="24"/>
      <point x="455" y="53" type="curve" smooth="yes"/>
      <point x="455" y="74"/>
      <point x="453" y="359"/>
      <point x="453" y="432" type="curve"/>
      <point x="410" y="399" type="line"/>
      <point x="451" y="356"/>
      <point x="492" y="359"/>
      <point x="541" y="353" type="curve" smooth="yes"/>
      <point x="581" y="348"/>
      <point x="605" y="334"/>
      <point x="605" y="284" type="curve" smooth="yes"/>
      <point x="605" y="273"/>
      <point x="604" y="264"/>
      <point x="603" y="254" type="curve"/>
      <point x="639" y="275" type="line"/>
      <point x="625" y="301"/>
      <point x="602" y="327"/>
      <point x="558" y="327" type="curve" smooth="yes"/>
      <point x="508" y="327"/>
      <point x="464" y="293"/>
      <point x="464" y="239" type="curve" smooth="yes"/>
      <point x="464" y="179"/>
      <point x="517" y="145"/>
      <point x="566" y="145" type="curve" smooth="yes"/>
      <point x="639" y="145"/>
      <point x="679" y="222"/>
      <point x="679" y="275" type="curve" smooth="yes"/>
      <point x="679" y="314"/>
      <point x="676" y="414"/>
      <point x="549" y="430" type="curve" smooth="yes"/>
      <point x="494" y="437"/>
      <point x="456" y="434"/>
      <point x="451" y="473" type="curve" smooth="yes"/>
      <point x="450" y="482"/>
      <point x="441" y="495"/>
      <point x="421" y="495" type="curve" smooth="yes"/>
      <point x="354" y="495"/>
      <point x="348" y="386"/>
      <point x="348" y="262" type="curve" smooth="yes"/>
      <point x="348" y="212"/>
      <point x="349" y="144"/>
      <point x="349" y="95" type="curve"/>
      <point x="423" y="119" type="line"/>
      <point x="376" y="208"/>
      <point x="285" y="261"/>
      <point x="181" y="293" type="curve"/>
      <point x="170" y="240" type="line"/>
      <point x="271" y="292" type="line" smooth="yes"/>
      <point x="315" y="315"/>
      <point x="324" y="344"/>
      <point x="324" y="366" type="curve" smooth="yes"/>
      <point x="324" y="411"/>
      <point x="299" y="428"/>
      <point x="237" y="451" type="curve" smooth="yes"/>
      <point x="179" y="473"/>
      <point x="150" y="471"/>
      <point x="150" y="554" type="curve"/>
    </contour>
    <contour>
      <point x="698" y="502" type="line" smooth="yes"/>
      <point x="709" y="502"/>
      <point x="739" y="509"/>
      <point x="739" y="545" type="curve" smooth="yes"/>
      <point x="739" y="578"/>
      <point x="711" y="587"/>
      <point x="698" y="587" type="curve" smooth="yes"/>
      <point x="0" y="587" type="line" smooth="yes"/>
      <point x="-18" y="587"/>
      <point x="-45" y="578"/>
      <point x="-45" y="545" type="curve" smooth="yes"/>
      <point x="-45" y="509"/>
      <point x="-18" y="502"/>
      <point x="0" y="502" type="curve" smooth="yes"/>
    </contour>
  </outline>
</glyph>
<glyph name="uni09AC" format="1">
  <advance width="485"/>
  <unicode hex="09AC"/>
  <note>
	uni09AC
  </note>
  <outline>
    <contour>
      <point x="387" y="74" type="line"/>
      <point x="387" y="205"/>
      <point x="195" y="317"/>
      <point x="58" y="317" type="curve"/>
      <point x="68" y="267" type="line"/>
      <point x="213" y="338"/>
      <point x="368" y="391"/>
      <point x="368" y="490" type="curve" smooth="yes"/>
      <point x="368" y="546"/>
      <point x="327" y="587"/>
      <point x="250" y="587" type="curve" smooth="yes"/>
      <point x="0" y="587" type="line" smooth="yes"/>
      <point x="-17" y="587"/>
      <point x="-40" y="575"/>
      <point x="-40" y="546" type="curve" smooth="yes"/>
      <point x="-40" y="517"/>
      <point x="-19" y="502"/>
      <point x="0" y="502" type="curve" smooth="yes"/>
      <point x="222" y="502" type="line" smooth="yes"/>
      <point x="255" y="502"/>
      <point x="288" y="502"/>
      <point x="288" y="492" type="curve" smooth="yes"/>
      <point x="288" y="471"/>
      <point x="162" y="429"/>
      <point x="37" y="358" type="curve" smooth="yes"/>
      <point x="12" y="344"/>
      <point x="0" y="325"/>
      <point x="0" y="306" type="curve" smooth="yes"/>
      <point x="-1" y="267"/>
      <point x="25" y="250"/>
      <point x="64" y="239" type="curve" smooth="yes"/>
      <point x="110" y="226"/>
      <point x="311" y="164"/>
      <point x="311" y="64" type="curve"/>
    </contour>
    <contour>
      <point x="402" y="-12"/>
      <point x="417" y="17"/>
      <point x="417" y="64" type="curve" smooth="yes"/>
      <point x="418" y="335" type="line" smooth="yes"/>
      <point x="418" y="491"/>
      <point x="422" y="513"/>
      <point x="427" y="583" type="curve" smooth="yes"/>
      <point x="428" y="597"/>
      <point x="423" y="609"/>
      <point x="397" y="609" type="curve" smooth="yes"/>
      <point x="331" y="609"/>
      <point x="314" y="492"/>
      <point x="313" y="335" type="curve" smooth="yes"/>
      <point x="311" y="64" type="line" smooth="yes"/>
      <point x="311" y="13"/>
      <point x="333" y="-12"/>
      <point x="366" y="-12" type="curve" smooth="yes"/>
    </contour>
    <contour>
      <point x="533" y="577"/>
      <point x="512" y="587"/>
      <point x="484" y="587" type="curve" smooth="yes"/>
      <point x="460" y="587" type="line" smooth="yes"/>
      <point x="442" y="587"/>
      <point x="429" y="584"/>
      <point x="426" y="594" type="curve"/>
      <point x="412" y="582" type="line"/>
      <point x="412" y="557"/>
      <point x="421" y="502"/>
      <point x="472" y="502" type="curve" smooth="yes"/>
      <point x="484" y="502" type="line" smooth="yes"/>
      <point x="515" y="502"/>
      <point x="533" y="519"/>
      <point x="533" y="546" type="curve" smooth="yes"/>
    </contour>
  </outline>
</glyph>
<glyph name="uni09AD" format="1">
  <advance width="571"/>
  <unicode hex="09AD"/>
  <note>
	uni09AD
  </note>
  <outline>
    <contour>
      <point x="449" y="409"/>
      <point x="437" y="392"/>
      <point x="431" y="368" type="curve" smooth="yes"/>
      <point x="423" y="337"/>
      <point x="389" y="285"/>
      <point x="346" y="285" type="curve" smooth="yes"/>
      <point x="302" y="285"/>
      <point x="284" y="297"/>
      <point x="264" y="320" type="curve"/>
      <point x="270" y="270" type="line"/>
      <point x="321" y="271"/>
      <point x="380" y="306"/>
      <point x="380" y="371" type="curve" smooth="yes"/>
      <point x="380" y="438"/>
      <point x="332" y="474"/>
      <point x="273" y="474" type="curve" smooth="yes"/>
      <point x="217" y="474"/>
      <point x="159" y="436"/>
      <point x="159" y="360" type="curve" smooth="yes"/>
      <point x="159" y="257"/>
      <point x="247" y="192"/>
      <point x="335" y="192" type="curve" smooth="yes"/>
      <point x="447" y="192"/>
      <point x="476" y="297"/>
      <point x="476" y="333" type="curve"/>
      <point x="429" y="327" type="line"/>
      <point x="441" y="303"/>
      <point x="447" y="283"/>
      <point x="447" y="257" type="curve" smooth="yes"/>
      <point x="447" y="188"/>
      <point x="412" y="126"/>
      <point x="321" y="126" type="curve" smooth="yes"/>
      <point x="209" y="126"/>
      <point x="115" y="255"/>
      <point x="90" y="388" type="curve" smooth="yes"/>
      <point x="84" y="421"/>
      <point x="65" y="440"/>
      <point x="40" y="440" type="curve" smooth="yes"/>
      <point x="15" y="440"/>
      <point x="5" y="414"/>
      <point x="5" y="393" type="curve" smooth="yes"/>
      <point x="5" y="288"/>
      <point x="138" y="21"/>
      <point x="324" y="21" type="curve" smooth="yes"/>
      <point x="455" y="21"/>
      <point x="543" y="138"/>
      <point x="543" y="244" type="curve" smooth="yes"/>
      <point x="543" y="319"/>
      <point x="519" y="409"/>
      <point x="467" y="409" type="curve" smooth="yes"/>
    </contour>
    <contour>
      <point x="242" y="379"/>
      <point x="258" y="389"/>
      <point x="271" y="389" type="curve" smooth="yes"/>
      <point x="285" y="389"/>
      <point x="300" y="378"/>
      <point x="300" y="359" type="curve" smooth="yes"/>
      <point x="300" y="339"/>
      <point x="281" y="331"/>
      <point x="271" y="331" type="curve" smooth="yes"/>
      <point x="257" y="331"/>
      <point x="242" y="343"/>
      <point x="242" y="361" type="curve" smooth="yes"/>
    </contour>
    <contour>
      <point x="571" y="502" type="line" smooth="yes"/>
      <point x="582" y="502"/>
      <point x="612" y="509"/>
      <point x="612" y="545" type="curve" smooth="yes"/>
      <point x="612" y="578"/>
      <point x="584" y="587"/>
      <point x="571" y="587" type="curve" smooth="yes"/>
      <point x="0" y="587" type="line" smooth="yes"/>
      <point x="-18" y="587"/>
      <point x="-45" y="578"/>
      <point x="-45" y="545" type="curve" smooth="yes"/>
      <point x="-45" y="509"/>
      <point x="-18" y="502"/>
      <point x="0" y="502" type="curve" smooth="yes"/>
    </contour>
  </outline>
</glyph>
<glyph name="uni09AE" format="1">
  <advance width="522"/>
  <unicode hex="09AE"/>
  <note>
	uni09AE
  </note>
  <outline>
    <contour>
      <point x="59" y="519"/>
      <point x="50" y="493"/>
      <point x="50" y="470" type="curve" smooth="yes"/>
      <point x="50" y="343"/>
      <point x="230" y="378"/>
      <point x="230" y="264" type="curve" smooth="yes"/>
      <point x="230" y="225"/>
      <point x="211" y="185"/>
      <point x="177" y="185" type="curve" smooth="yes"/>
      <point x="161" y="185"/>
      <point x="145" y="191"/>
      <point x="145" y="207" type="curve" smooth="yes"/>
      <point x="145" y="220"/>
      <point x="158" y="229"/>
      <point x="183" y="229" type="curve" smooth="yes"/>
      <point x="251" y="229"/>
      <point x="349" y="170"/>
      <point x="349" y="64" type="curve"/>
      <point x="426" y="64" type="line"/>
      <point x="426" y="206"/>
      <point x="301" y="329"/>
      <point x="183" y="329" type="curve" smooth="yes"/>
      <point x="114" y="329"/>
      <point x="63" y="286"/>
      <point x="63" y="217" type="curve" smooth="yes"/>
      <point x="63" y="153"/>
      <point x="118" y="105"/>
      <point x="183" y="105" type="curve" smooth="yes"/>
      <point x="273" y="105"/>
      <point x="317" y="186"/>
      <point x="317" y="270" type="curve" smooth="yes"/>
      <point x="317" y="412"/>
      <point x="161" y="409"/>
      <point x="161" y="471" type="curve" smooth="yes"/>
      <point x="161" y="487"/>
      <point x="171" y="502"/>
      <point x="196" y="502" type="curve"/>
      <point x="75" y="535" type="line"/>
    </contour>
    <contour>
      <point x="403" y="492" type="line"/>
      <point x="404" y="540"/>
      <point x="380" y="587"/>
      <point x="298" y="587" type="curve" smooth="yes"/>
      <point x="1" y="587" type="line" smooth="yes"/>
      <point x="-17" y="587"/>
      <point x="-34" y="582"/>
      <point x="-34" y="551" type="curve" smooth="yes"/>
      <point x="-34" y="512"/>
      <point x="-17" y="502"/>
      <point x="1" y="502" type="curve" smooth="yes"/>
      <point x="263" y="502" type="line" smooth="yes"/>
      <point x="326" y="502"/>
      <point x="354" y="472"/>
      <point x="354" y="414" type="curve"/>
    </contour>
    <contour>
      <point x="440" y="-12"/>
      <point x="455" y="17"/>
      <point x="455" y="64" type="curve" smooth="yes"/>
      <point x="456" y="335" type="line" smooth="yes"/>
      <point x="456" y="491"/>
      <point x="460" y="513"/>
      <point x="465" y="583" type="curve" smooth="yes"/>
      <point x="466" y="597"/>
      <point x="461" y="609"/>
      <point x="435" y="609" type="curve" smooth="yes"/>
      <point x="369" y="609"/>
      <point x="352" y="492"/>
      <point x="351" y="335" type="curve" smooth="yes"/>
      <point x="349" y="64" type="line" smooth="yes"/>
      <point x="349" y="13"/>
      <point x="371" y="-12"/>
      <point x="404" y="-12" type="curve" smooth="yes"/>
    </contour>
    <contour>
      <point x="571" y="577"/>
      <point x="550" y="587"/>
      <point x="522" y="587" type="curve" smooth="yes"/>
      <point x="498" y="587" type="line" smooth="yes"/>
      <point x="480" y="587"/>
      <point x="467" y="584"/>
      <point x="464" y="594" type="curve"/>
      <point x="450" y="582" type="line"/>
      <point x="450" y="557"/>
      <point x="459" y="502"/>
      <point x="510" y="502" type="curve" smooth="yes"/>
      <point x="522" y="502" type="line" smooth="yes"/>
      <point x="553" y="502"/>
      <point x="571" y="519"/>
      <point x="571" y="546" type="curve" smooth="yes"/>
    </contour>
  </outline>
</glyph>
<glyph name="uni09AF" format="1">
  <advance width="511"/>
  <unicode hex="09AF"/>
  <note>
	uni09AF
  </note>
  <outline>
    <contour>
      <point x="418" y="87" type="line"/>
      <point x="418" y="166"/>
      <point x="229" y="282"/>
      <point x="141" y="282" type="curve"/>
      <point x="138" y="232" type="line"/>
      <point x="259" y="294" type="line" smooth="yes"/>
      <point x="275" y="302"/>
      <point x="304" y="316"/>
      <point x="304" y="347" type="curve" smooth="yes"/>
      <point x="304" y="375"/>
      <point x="285" y="389"/>
      <point x="270" y="397" type="curve" smooth="yes"/>
      <point x="187" y="443" type="line" smooth="yes"/>
      <point x="142" y="468"/>
      <point x="151" y="487"/>
      <point x="151" y="523" type="curve"/>
      <point x="36" y="523" type="line"/>
      <point x="36" y="466"/>
      <point x="48" y="432"/>
      <point x="100" y="404" type="curve" smooth="yes"/>
      <point x="213" y="342" type="line"/>
      <point x="213" y="379" type="line"/>
      <point x="67" y="307" type="line" smooth="yes"/>
      <point x="42" y="295"/>
      <point x="38" y="277"/>
      <point x="38" y="263" type="curve" smooth="yes"/>
      <point x="38" y="246"/>
      <point x="49" y="221"/>
      <point x="78" y="213" type="curve" smooth="yes"/>
      <point x="157" y="192"/>
      <point x="338" y="135"/>
      <point x="338" y="64" type="curve"/>
    </contour>
    <contour>
      <point x="392" y="492" type="line"/>
      <point x="393" y="540"/>
      <point x="369" y="587"/>
      <point x="287" y="587" type="curve" smooth="yes"/>
      <point x="0" y="587" type="line" smooth="yes"/>
      <point x="-18" y="587"/>
      <point x="-45" y="582"/>
      <point x="-45" y="545" type="curve" smooth="yes"/>
      <point x="-45" y="512"/>
      <point x="-18" y="502"/>
      <point x="0" y="502" type="curve" smooth="yes"/>
      <point x="252" y="502" type="line" smooth="yes"/>
      <point x="315" y="502"/>
      <point x="342" y="472"/>
      <point x="342" y="414" type="curve"/>
    </contour>
    <contour>
      <point x="429" y="-12"/>
      <point x="444" y="17"/>
      <point x="444" y="64" type="curve" smooth="yes"/>
      <point x="445" y="335" type="line" smooth="yes"/>
      <point x="445" y="491"/>
      <point x="449" y="513"/>
      <point x="454" y="583" type="curve" smooth="yes"/>
      <point x="455" y="597"/>
      <point x="450" y="609"/>
      <point x="424" y="609" type="curve" smooth="yes"/>
      <point x="358" y="609"/>
      <point x="341" y="492"/>
      <point x="340" y="335" type="curve" smooth="yes"/>
      <point x="338" y="64" type="line" smooth="yes"/>
      <point x="338" y="13"/>
      <point x="360" y="-12"/>
      <point x="393" y="-12" type="curve" smooth="yes"/>
    </contour>
    <contour>
      <point x="560" y="577"/>
      <point x="539" y="587"/>
      <point x="511" y="587" type="curve" smooth="yes"/>
      <point x="487" y="587" type="line" smooth="yes"/>
      <point x="469" y="587"/>
      <point x="456" y="584"/>
      <point x="453" y="594" type="curve"/>
      <point x="439" y="582" type="line"/>
      <point x="439" y="557"/>
      <point x="448" y="502"/>
      <point x="499" y="502" type="curve" smooth="yes"/>
      <point x="511" y="502" type="line" smooth="yes"/>
      <point x="542" y="502"/>
      <point x="560" y="519"/>
      <point x="560" y="546" type="curve" smooth="yes"/>
    </contour>
  </outline>
</glyph>
<glyph name="uni09B0" format="1">
  <advance width="485"/>
  <unicode hex="09B0"/>
  <note>
	uni09B0
  </note>
  <outline>
    <contour>
      <point x="195" y="22"/>
      <point x="239" y="47"/>
      <point x="239" y="99" type="curve" smooth="yes"/>
      <point x="239" y="141"/>
      <point x="206" y="183"/>
      <point x="156" y="183" type="curve" smooth="yes"/>
      <point x="114" y="183"/>
      <point x="78" y="151"/>
      <point x="78" y="105" type="curve" smooth="yes"/>
      <point x="78" y="56"/>
      <point x="118" y="22"/>
      <point x="160" y="22" type="curve" smooth="yes"/>
    </contour>
    <contour>
      <point x="183" y="86"/>
      <point x="170" y="80"/>
      <point x="160" y="80" type="curve" smooth="yes"/>
      <point x="149" y="80"/>
      <point x="135" y="89"/>
      <point x="135" y="104" type="curve" smooth="yes"/>
      <point x="135" y="120"/>
      <point x="148" y="128"/>
      <point x="159" y="128" type="curve" smooth="yes"/>
      <point x="172" y="128"/>
      <point x="183" y="117"/>
      <point x="183" y="102" type="curve" smooth="yes"/>
    </contour>
    <contour>
      <point x="387" y="74" type="line"/>
      <point x="387" y="205"/>
      <point x="195" y="317"/>
      <point x="58" y="317" type="curve"/>
      <point x="68" y="267" type="line"/>
      <point x="213" y="338"/>
      <point x="368" y="391"/>
      <point x="368" y="490" type="curve" smooth="yes"/>
      <point x="368" y="546"/>
      <point x="327" y="587"/>
      <point x="250" y="587" type="curve" smooth="yes"/>
      <point x="0" y="587" type="line" smooth="yes"/>
      <point x="-17" y="587"/>
      <point x="-40" y="575"/>
      <point x="-40" y="546" type="curve" smooth="yes"/>
      <point x="-40" y="517"/>
      <point x="-19" y="502"/>
      <point x="0" y="502" type="curve" smooth="yes"/>
      <point x="222" y="502" type="line" smooth="yes"/>
      <point x="255" y="502"/>
      <point x="288" y="502"/>
      <point x="288" y="492" type="curve" smooth="yes"/>
      <point x="288" y="471"/>
      <point x="162" y="429"/>
      <point x="37" y="358" type="curve" smooth="yes"/>
      <point x="12" y="344"/>
      <point x="0" y="325"/>
      <point x="0" y="306" type="curve" smooth="yes"/>
      <point x="-1" y="267"/>
      <point x="25" y="250"/>
      <point x="64" y="239" type="curve" smooth="yes"/>
      <point x="110" y="226"/>
      <point x="311" y="164"/>
      <point x="311" y="64" type="curve"/>
    </contour>
    <contour>
      <point x="402" y="-12"/>
      <point x="417" y="17"/>
      <point x="417" y="64" type="curve" smooth="yes"/>
      <point x="418" y="335" type="line" smooth="yes"/>
      <point x="418" y="491"/>
      <point x="422" y="513"/>
      <point x="427" y="583" type="curve" smooth="yes"/>
      <point x="428" y="597"/>
      <point x="423" y="609"/>
      <point x="397" y="609" type="curve" smooth="yes"/>
      <point x="331" y="609"/>
      <point x="314" y="492"/>
      <point x="313" y="335" type="curve" smooth="yes"/>
      <point x="311" y="64" type="line" smooth="yes"/>
      <point x="311" y="13"/>
      <point x="333" y="-12"/>
      <point x="366" y="-12" type="curve" smooth="yes"/>
    </contour>
    <contour>
      <point x="533" y="577"/>
      <point x="512" y="587"/>
      <point x="484" y="587" type="curve" smooth="yes"/>
      <point x="460" y="587" type="line" smooth="yes"/>
      <point x="442" y="587"/>
      <point x="429" y="584"/>
      <point x="426" y="594" type="curve"/>
      <point x="412" y="582" type="line"/>
      <point x="412" y="557"/>
      <point x="421" y="502"/>
      <point x="472" y="502" type="curve" smooth="yes"/>
      <point x="484" y="502" type="line" smooth="yes"/>
      <point x="515" y="502"/>
      <point x="533" y="519"/>
      <point x="533" y="546" type="curve" smooth="yes"/>
    </contour>
  </outline>
</glyph>
<glyph name="uni09B2" format="1">
  <advance width="623"/>
  <unicode hex="09B2"/>
  <note>
	uni09B2
  </note>
  <outline>
    <contour>
      <point x="179" y="117"/>
      <point x="170" y="129"/>
      <point x="170" y="141" type="curve" smooth="yes"/>
      <point x="170" y="152"/>
      <point x="178" y="165"/>
      <point x="194" y="165" type="curve" smooth="yes"/>
      <point x="209" y="165"/>
      <point x="218" y="154"/>
      <point x="218" y="141" type="curve" smooth="yes"/>
      <point x="218" y="128"/>
      <point x="208" y="117"/>
      <point x="194" y="117" type="curve" smooth="yes"/>
    </contour>
    <contour>
      <point x="541" y="-12"/>
      <point x="556" y="17"/>
      <point x="556" y="64" type="curve" smooth="yes"/>
      <point x="557" y="335" type="line" smooth="yes"/>
      <point x="557" y="491"/>
      <point x="561" y="513"/>
      <point x="566" y="583" type="curve" smooth="yes"/>
      <point x="567" y="597"/>
      <point x="562" y="609"/>
      <point x="536" y="609" type="curve" smooth="yes"/>
      <point x="470" y="609"/>
      <point x="453" y="492"/>
      <point x="452" y="335" type="curve" smooth="yes"/>
      <point x="450" y="64" type="line" smooth="yes"/>
      <point x="450" y="13"/>
      <point x="472" y="-12"/>
      <point x="505" y="-12" type="curve" smooth="yes"/>
    </contour>
    <contour>
      <point x="672" y="577"/>
      <point x="651" y="587"/>
      <point x="623" y="587" type="curve" smooth="yes"/>
      <point x="599" y="587" type="line" smooth="yes"/>
      <point x="581" y="587"/>
      <point x="568" y="584"/>
      <point x="565" y="594" type="curve"/>
      <point x="551" y="582" type="line"/>
      <point x="551" y="557"/>
      <point x="560" y="502"/>
      <point x="611" y="502" type="curve" smooth="yes"/>
      <point x="623" y="502" type="line" smooth="yes"/>
      <point x="654" y="502"/>
      <point x="672" y="519"/>
      <point x="672" y="546" type="curve" smooth="yes"/>
    </contour>
    <contour>
      <point x="505" y="492" type="line"/>
      <point x="506" y="540"/>
      <point x="482" y="587"/>
      <point x="400" y="587" type="curve" smooth="yes"/>
      <point x="0" y="587" type="line" smooth="yes"/>
      <point x="-18" y="587"/>
      <point x="-45" y="582"/>
      <point x="-45" y="545" type="curve" smooth="yes"/>
      <point x="-45" y="512"/>
      <point x="-18" y="502"/>
      <point x="0" y="502" type="curve" smooth="yes"/>
      <point x="365" y="502" type="line" smooth="yes"/>
      <point x="428" y="502"/>
      <point x="455" y="472"/>
      <point x="455" y="414" type="curve"/>
    </contour>
    <contour>
      <point x="515" y="352" type="line"/>
      <point x="490" y="403"/>
      <point x="446" y="443"/>
      <point x="375" y="443" type="curve" smooth="yes"/>
      <point x="291" y="443"/>
      <point x="209" y="388"/>
      <point x="209" y="310" type="curve" smooth="yes"/>
      <point x="209" y="254"/>
      <point x="250" y="210"/>
      <point x="304" y="210" type="curve" smooth="yes"/>
      <point x="355" y="210"/>
      <point x="392" y="250"/>
      <point x="392" y="304" type="curve" smooth="yes"/>
      <point x="392" y="390"/>
      <point x="300" y="453"/>
      <point x="202" y="453" type="curve" smooth="yes"/>
      <point x="92" y="453"/>
      <point x="8" y="373"/>
      <point x="8" y="260" type="curve" smooth="yes"/>
      <point x="8" y="143"/>
      <point x="98" y="49"/>
      <point x="191" y="49" type="curve" smooth="yes"/>
      <point x="253" y="49"/>
      <point x="291" y="90"/>
      <point x="291" y="142" type="curve" smooth="yes"/>
      <point x="291" y="195"/>
      <point x="250" y="235"/>
      <point x="198" y="235" type="curve" smooth="yes"/>
      <point x="145" y="235"/>
      <point x="107" y="195"/>
      <point x="107" y="144" type="curve"/>
      <point x="151" y="173" type="line"/>
      <point x="136" y="189"/>
      <point x="122" y="221"/>
      <point x="122" y="252" type="curve" smooth="yes"/>
      <point x="122" y="303"/>
      <point x="160" y="351"/>
      <point x="222" y="351" type="curve" smooth="yes"/>
      <point x="262" y="351"/>
      <point x="317" y="331"/>
      <point x="317" y="298" type="curve" smooth="yes"/>
      <point x="317" y="285"/>
      <point x="308" y="275"/>
      <point x="299" y="275" type="curve" smooth="yes"/>
      <point x="289" y="275"/>
      <point x="280" y="285"/>
      <point x="280" y="299" type="curve" smooth="yes"/>
      <point x="280" y="333"/>
      <point x="331" y="360"/>
      <point x="368" y="360" type="curve" smooth="yes"/>
      <point x="406" y="360"/>
      <point x="452" y="335"/>
      <point x="452" y="277" type="curve"/>
    </contour>
  </outline>
</glyph>
<glyph name="uni09B6" format="1">
  <advance width="579"/>
  <unicode hex="09B6"/>
  <note>
	uni09B6
  </note>
  <outline>
    <contour>
      <point x="498" y="382" type="line"/>
      <point x="498" y="495"/>
      <point x="427" y="587"/>
      <point x="329" y="587" type="curve" smooth="yes"/>
      <point x="233" y="587"/>
      <point x="178" y="500"/>
      <point x="178" y="399" type="curve" smooth="yes"/>
      <point x="178" y="326"/>
      <point x="209" y="222"/>
      <point x="295" y="222" type="curve" smooth="yes"/>
      <point x="356" y="222"/>
      <point x="388" y="275"/>
      <point x="388" y="341" type="curve" smooth="yes"/>
      <point x="388" y="413"/>
      <point x="333" y="498"/>
      <point x="204" y="498" type="curve" smooth="yes"/>
      <point x="72" y="498"/>
      <point x="9" y="413"/>
      <point x="9" y="341" type="curve" smooth="yes"/>
      <point x="9" y="274"/>
      <point x="53" y="222"/>
      <point x="111" y="222" type="curve" smooth="yes"/>
      <point x="185" y="222"/>
      <point x="230" y="310"/>
      <point x="230" y="392" type="curve" smooth="yes"/>
      <point x="230" y="502"/>
      <point x="176" y="587"/>
      <point x="76" y="587" type="curve" smooth="yes"/>
      <point x="0" y="587" type="line" smooth="yes"/>
      <point x="-26" y="587"/>
      <point x="-48" y="575"/>
      <point x="-48" y="545" type="curve" smooth="yes"/>
      <point x="-48" y="514"/>
      <point x="-26" y="502"/>
      <point x="0" y="502" type="curve" smooth="yes"/>
      <point x="69" y="502" type="line" smooth="yes"/>
      <point x="138" y="502"/>
      <point x="160" y="457"/>
      <point x="160" y="392" type="curve" smooth="yes"/>
      <point x="160" y="343"/>
      <point x="142" y="329"/>
      <point x="129" y="329" type="curve" smooth="yes"/>
      <point x="112" y="329"/>
      <point x="104" y="340"/>
      <point x="104" y="355" type="curve" smooth="yes"/>
      <point x="104" y="373"/>
      <point x="123" y="412"/>
      <point x="202" y="412" type="curve" smooth="yes"/>
      <point x="276" y="412"/>
      <point x="304" y="377"/>
      <point x="304" y="355" type="curve" smooth="yes"/>
      <point x="304" y="340"/>
      <point x="299" y="329"/>
      <point x="283" y="329" type="curve" smooth="yes"/>
      <point x="266" y="329"/>
      <point x="249" y="345"/>
      <point x="249" y="391" type="curve" smooth="yes"/>
      <point x="249" y="458"/>
      <point x="276" y="499"/>
      <point x="330" y="499" type="curve" smooth="yes"/>
      <point x="370" y="499"/>
      <point x="409" y="456"/>
      <point x="409" y="368" type="curve"/>
    </contour>
    <contour>
      <point x="497" y="-12"/>
      <point x="512" y="17"/>
      <point x="512" y="64" type="curve" smooth="yes"/>
      <point x="513" y="335" type="line" smooth="yes"/>
      <point x="513" y="491"/>
      <point x="517" y="513"/>
      <point x="522" y="583" type="curve" smooth="yes"/>
      <point x="523" y="597"/>
      <point x="518" y="609"/>
      <point x="492" y="609" type="curve" smooth="yes"/>
      <point x="426" y="609"/>
      <point x="409" y="492"/>
      <point x="408" y="335" type="curve" smooth="yes"/>
      <point x="406" y="64" type="line" smooth="yes"/>
      <point x="406" y="13"/>
      <point x="428" y="-12"/>
      <point x="461" y="-12" type="curve" smooth="yes"/>
    </contour>
    <contour>
      <point x="628" y="577"/>
      <point x="607" y="587"/>
      <point x="579" y="587" type="curve" smooth="yes"/>
      <point x="555" y="587" type="line" smooth="yes"/>
      <point x="537" y="587"/>
      <point x="524" y="584"/>
      <point x="521" y="594" type="curve"/>
      <point x="507" y="582" type="line"/>
      <point x="507" y="557"/>
      <point x="516" y="502"/>
      <point x="567" y="502" type="curve" smooth="yes"/>
      <point x="579" y="502" type="line" smooth="yes"/>
      <point x="610" y="502"/>
      <point x="628" y="519"/>
      <point x="628" y="546" type="curve" smooth="yes"/>
    </contour>
  </outline>
</glyph>
<glyph name="uni09B7" format="1">
  <advance width="511"/>
  <unicode hex="09B7"/>
  <note>
	uni09B7
  </note>
  <outline>
    <contour>
      <point x="401" y="324" type="line"/>
      <point x="270" y="397" type="line"/>
      <point x="213" y="342" type="line"/>
      <point x="398" y="237" type="line"/>
    </contour>
    <contour>
      <point x="418" y="87" type="line"/>
      <point x="418" y="166"/>
      <point x="229" y="282"/>
      <point x="141" y="282" type="curve"/>
      <point x="138" y="232" type="line"/>
      <point x="259" y="294" type="line" smooth="yes"/>
      <point x="275" y="302"/>
      <point x="304" y="316"/>
      <point x="304" y="347" type="curve" smooth="yes"/>
      <point x="304" y="375"/>
      <point x="285" y="389"/>
      <point x="270" y="397" type="curve" smooth="yes"/>
      <point x="187" y="443" type="line" smooth="yes"/>
      <point x="142" y="468"/>
      <point x="151" y="487"/>
      <point x="151" y="523" type="curve"/>
      <point x="36" y="523" type="line"/>
      <point x="36" y="466"/>
      <point x="48" y="432"/>
      <point x="100" y="404" type="curve" smooth="yes"/>
      <point x="213" y="342" type="line"/>
      <point x="213" y="379" type="line"/>
      <point x="67" y="307" type="line" smooth="yes"/>
      <point x="42" y="295"/>
      <point x="38" y="277"/>
      <point x="38" y="263" type="curve" smooth="yes"/>
      <point x="38" y="246"/>
      <point x="49" y="221"/>
      <point x="78" y="213" type="curve" smooth="yes"/>
      <point x="157" y="192"/>
      <point x="338" y="135"/>
      <point x="338" y="64" type="curve"/>
    </contour>
    <contour>
      <point x="392" y="492" type="line"/>
      <point x="393" y="540"/>
      <point x="369" y="587"/>
      <point x="287" y="587" type="curve" smooth="yes"/>
      <point x="0" y="587" type="line" smooth="yes"/>
      <point x="-18" y="587"/>
      <point x="-45" y="582"/>
      <point x="-45" y="545" type="curve" smooth="yes"/>
      <point x="-45" y="512"/>
      <point x="-18" y="502"/>
      <point x="0" y="502" type="curve" smooth="yes"/>
      <point x="252" y="502" type="line" smooth="yes"/>
      <point x="315" y="502"/>
      <point x="342" y="472"/>
      <point x="342" y="414" type="curve"/>
    </contour>
    <contour>
      <point x="429" y="-12"/>
      <point x="444" y="17"/>
      <point x="444" y="64" type="curve" smooth="yes"/>
      <point x="445" y="335" type="line" smooth="yes"/>
      <point x="445" y="491"/>
      <point x="449" y="513"/>
      <point x="454" y="583" type="curve" smooth="yes"/>
      <point x="455" y="597"/>
      <point x="450" y="609"/>
      <point x="424" y="609" type="curve" smooth="yes"/>
      <point x="358" y="609"/>
      <point x="341" y="492"/>
      <point x="340" y="335" type="curve" smooth="yes"/>
      <point x="338" y="64" type="line" smooth="yes"/>
      <point x="338" y="13"/>
      <point x="360" y="-12"/>
      <point x="393" y="-12" type="curve" smooth="yes"/>
    </contour>
    <contour>
      <point x="560" y="576"/>
      <point x="539" y="587"/>
      <point x="511" y="587" type="curve" smooth="yes"/>
      <point x="487" y="587" type="line" smooth="yes"/>
      <point x="469" y="587"/>
      <point x="456" y="584"/>
      <point x="453" y="594" type="curve"/>
      <point x="439" y="582" type="line"/>
      <point x="439" y="557"/>
      <point x="448" y="502"/>
      <point x="499" y="502" type="curve" smooth="yes"/>
      <point x="511" y="502" type="line" smooth="yes"/>
      <point x="542" y="502"/>
      <point x="560" y="518"/>
      <point x="560" y="545" type="curve" smooth="yes"/>
    </contour>
  </outline>
</glyph>
<glyph name="uni09B8" format="1">
  <advance width="549"/>
  <unicode hex="09B8"/>
  <note>
	uni09B8
  </note>
  <outline>
    <contour>
      <point x="59" y="577" type="line"/>
      <point x="53" y="557"/>
      <point x="50" y="538"/>
      <point x="50" y="506" type="curve" smooth="yes"/>
      <point x="50" y="371"/>
      <point x="209" y="418"/>
      <point x="209" y="328" type="curve" smooth="yes"/>
      <point x="209" y="292"/>
      <point x="198" y="271"/>
      <point x="185" y="249" type="curve"/>
      <point x="271" y="261" type="line"/>
      <point x="279" y="279"/>
      <point x="291" y="317"/>
      <point x="291" y="346" type="curve" smooth="yes"/>
      <point x="291" y="456"/>
      <point x="167" y="416"/>
      <point x="167" y="497" type="curve" smooth="yes"/>
      <point x="167" y="523"/>
      <point x="171" y="551"/>
      <point x="178" y="570" type="curve"/>
    </contour>
    <contour>
      <point x="433" y="318"/>
      <point x="383" y="368"/>
      <point x="323" y="368" type="curve" smooth="yes"/>
      <point x="216" y="368"/>
      <point x="181" y="192"/>
      <point x="124" y="192" type="curve" smooth="yes"/>
      <point x="89" y="192"/>
      <point x="94" y="232"/>
      <point x="60" y="232" type="curve" smooth="yes"/>
      <point x="43" y="232"/>
      <point x="20" y="221"/>
      <point x="20" y="186" type="curve" smooth="yes"/>
      <point x="20" y="134"/>
      <point x="67" y="83"/>
      <point x="126" y="83" type="curve" smooth="yes"/>
      <point x="231" y="83"/>
      <point x="256" y="273"/>
      <point x="324" y="273" type="curve" smooth="yes"/>
      <point x="368" y="273"/>
      <point x="377" y="234"/>
      <point x="377" y="156" type="curve"/>
      <point x="433" y="213" type="line"/>
    </contour>
    <contour>
      <point x="430" y="492" type="line"/>
      <point x="431" y="540"/>
      <point x="407" y="587"/>
      <point x="325" y="587" type="curve" smooth="yes"/>
      <point x="0" y="587" type="line" smooth="yes"/>
      <point x="-18" y="587"/>
      <point x="-35" y="582"/>
      <point x="-35" y="551" type="curve" smooth="yes"/>
      <point x="-35" y="522"/>
      <point x="-18" y="512"/>
      <point x="0" y="512" type="curve" smooth="yes"/>
      <point x="291" y="512" type="line" smooth="yes"/>
      <point x="373" y="512"/>
      <point x="381" y="482"/>
      <point x="381" y="424" type="curve"/>
    </contour>
    <contour>
      <point x="467" y="-12"/>
      <point x="482" y="17"/>
      <point x="482" y="64" type="curve" smooth="yes"/>
      <point x="483" y="335" type="line" smooth="yes"/>
      <point x="483" y="491"/>
      <point x="487" y="513"/>
      <point x="492" y="583" type="curve" smooth="yes"/>
      <point x="493" y="597"/>
      <point x="488" y="609"/>
      <point x="462" y="609" type="curve" smooth="yes"/>
      <point x="396" y="609"/>
      <point x="379" y="492"/>
      <point x="378" y="335" type="curve" smooth="yes"/>
      <point x="376" y="64" type="line" smooth="yes"/>
      <point x="376" y="13"/>
      <point x="398" y="-12"/>
      <point x="431" y="-12" type="curve" smooth="yes"/>
    </contour>
    <contour>
      <point x="598" y="576"/>
      <point x="577" y="587"/>
      <point x="549" y="587" type="curve" smooth="yes"/>
      <point x="525" y="587" type="line" smooth="yes"/>
      <point x="507" y="587"/>
      <point x="494" y="584"/>
      <point x="491" y="594" type="curve"/>
      <point x="477" y="582" type="line"/>
      <point x="477" y="557"/>
      <point x="486" y="502"/>
      <point x="537" y="502" type="curve" smooth="yes"/>
      <point x="549" y="502" type="line" smooth="yes"/>
      <point x="580" y="502"/>
      <point x="598" y="518"/>
      <point x="598" y="545" type="curve" smooth="yes"/>
    </contour>
  </outline>
</glyph>
<glyph name="uni09B9" format="1">
  <advance width="488"/>
  <unicode hex="09B9"/>
  <note>
	uni09B9
  </note>
  <outline>
    <contour>
      <point x="447" y="-30"/>
      <point x="468" y="-10"/>
      <point x="468" y="7" type="curve" smooth="yes"/>
      <point x="468" y="21"/>
      <point x="460" y="51"/>
      <point x="412" y="51" type="curve" smooth="yes"/>
      <point x="321" y="51"/>
      <point x="286" y="258"/>
      <point x="151" y="258" type="curve" smooth="yes"/>
      <point x="94" y="258"/>
      <point x="56" y="216"/>
      <point x="56" y="169" type="curve" smooth="yes"/>
      <point x="56" y="112"/>
      <point x="103" y="70"/>
      <point x="181" y="70" type="curve" smooth="yes"/>
      <point x="306" y="70"/>
      <point x="416" y="179"/>
      <point x="416" y="293" type="curve" smooth="yes"/>
      <point x="416" y="408"/>
      <point x="332" y="490"/>
      <point x="232" y="490" type="curve" smooth="yes"/>
      <point x="150" y="490"/>
      <point x="62" y="453"/>
      <point x="62" y="369" type="curve" smooth="yes"/>
      <point x="62" y="318"/>
      <point x="102" y="275"/>
      <point x="165" y="275" type="curve" smooth="yes"/>
      <point x="224" y="275"/>
      <point x="257" y="320"/>
      <point x="257" y="366" type="curve" smooth="yes"/>
      <point x="257" y="415"/>
      <point x="224" y="449"/>
      <point x="190" y="449" type="curve"/>
      <point x="205" y="414" type="line"/>
      <point x="260" y="414"/>
      <point x="321" y="375"/>
      <point x="321" y="297" type="curve" smooth="yes"/>
      <point x="321" y="216"/>
      <point x="260" y="154"/>
      <point x="168" y="154" type="curve" smooth="yes"/>
      <point x="150" y="154"/>
      <point x="134" y="159"/>
      <point x="134" y="169" type="curve" smooth="yes"/>
      <point x="134" y="175"/>
      <point x="140" y="179"/>
      <point x="150" y="179" type="curve" smooth="yes"/>
      <point x="196" y="179"/>
      <point x="276" y="-30"/>
      <point x="417" y="-30" type="curve" smooth="yes"/>
    </contour>
    <contour>
      <point x="147" y="344"/>
      <point x="133" y="358"/>
      <point x="133" y="375" type="curve" smooth="yes"/>
      <point x="134" y="394"/>
      <point x="150" y="402"/>
      <point x="163" y="402" type="curve" smooth="yes"/>
      <point x="181" y="402"/>
      <point x="191" y="388"/>
      <point x="191" y="373" type="curve" smooth="yes"/>
      <point x="191" y="353"/>
      <point x="174" y="344"/>
      <point x="163" y="344" type="curve" smooth="yes"/>
    </contour>
    <contour>
      <point x="488" y="502" type="line" smooth="yes"/>
      <point x="499" y="502"/>
      <point x="529" y="509"/>
      <point x="529" y="545" type="curve" smooth="yes"/>
      <point x="529" y="578"/>
      <point x="501" y="587"/>
      <point x="488" y="587" type="curve" smooth="yes"/>
      <point x="0" y="587" type="line" smooth="yes"/>
      <point x="-18" y="587"/>
      <point x="-45" y="578"/>
      <point x="-45" y="545" type="curve" smooth="yes"/>
      <point x="-45" y="509"/>
      <point x="-18" y="502"/>
      <point x="0" y="502" type="curve" smooth="yes"/>
    </contour>
  </outline>
</glyph>
<glyph name="uni09BD" format="1">
  <advance width="502"/>
  <unicode hex="09BD"/>
  <note>
	uni09BD
  </note>
  <outline>
    <contour>
      <point x="447" y="41"/>
      <point x="468" y="61"/>
      <point x="468" y="78" type="curve" smooth="yes"/>
      <point x="468" y="92"/>
      <point x="460" y="122"/>
      <point x="412" y="122" type="curve" smooth="yes"/>
      <point x="321" y="122"/>
      <point x="286" y="329"/>
      <point x="151" y="329" type="curve" smooth="yes"/>
      <point x="94" y="329"/>
      <point x="56" y="287"/>
      <point x="56" y="240" type="curve" smooth="yes"/>
      <point x="56" y="183"/>
      <point x="103" y="141"/>
      <point x="181" y="141" type="curve" smooth="yes"/>
      <point x="306" y="141"/>
      <point x="416" y="250"/>
      <point x="416" y="364" type="curve" smooth="yes"/>
      <point x="416" y="479"/>
      <point x="332" y="561"/>
      <point x="232" y="561" type="curve" smooth="yes"/>
      <point x="150" y="561"/>
      <point x="62" y="524"/>
      <point x="62" y="440" type="curve" smooth="yes"/>
      <point x="62" y="389"/>
      <point x="102" y="346"/>
      <point x="165" y="346" type="curve" smooth="yes"/>
      <point x="224" y="346"/>
      <point x="257" y="391"/>
      <point x="257" y="437" type="curve" smooth="yes"/>
      <point x="257" y="486"/>
      <point x="224" y="520"/>
      <point x="190" y="520" type="curve"/>
      <point x="205" y="485" type="line"/>
      <point x="260" y="485"/>
      <point x="321" y="446"/>
      <point x="321" y="368" type="curve" smooth="yes"/>
      <point x="321" y="287"/>
      <point x="260" y="225"/>
      <point x="168" y="225" type="curve" smooth="yes"/>
      <point x="150" y="225"/>
      <point x="134" y="230"/>
      <point x="134" y="240" type="curve" smooth="yes"/>
      <point x="134" y="246"/>
      <point x="140" y="250"/>
      <point x="150" y="250" type="curve" smooth="yes"/>
      <point x="196" y="250"/>
      <point x="276" y="41"/>
      <point x="417" y="41" type="curve" smooth="yes"/>
    </contour>
    <contour>
      <point x="147" y="415"/>
      <point x="133" y="429"/>
      <point x="133" y="446" type="curve" smooth="yes"/>
      <point x="134" y="465"/>
      <point x="150" y="473"/>
      <point x="163" y="473" type="curve" smooth="yes"/>
      <point x="181" y="473"/>
      <point x="191" y="459"/>
      <point x="191" y="444" type="curve" smooth="yes"/>
      <point x="191" y="424"/>
      <point x="174" y="415"/>
      <point x="163" y="415" type="curve" smooth="yes"/>
    </contour>
  </outline>
</glyph>
<glyph name="uni09BF" format="1">
  <advance width="220"/>
  <unicode hex="09BF"/>
  <note>
	uni09BF
  </note>
  <outline>
    <contour>
      <point x="218" y="587" type="line"/>
      <point x="153" y="587"/>
      <point x="127" y="653"/>
      <point x="127" y="678" type="curve" smooth="yes"/>
      <point x="127" y="724"/>
      <point x="184" y="749"/>
      <point x="257" y="749" type="curve" smooth="yes"/>
      <point x="399" y="749"/>
      <point x="531" y="653"/>
      <point x="588" y="653" type="curve" smooth="yes"/>
      <point x="610" y="653"/>
      <point x="624" y="665"/>
      <point x="624" y="680" type="curve" smooth="yes"/>
      <point x="624" y="692"/>
      <point x="622" y="707"/>
      <point x="597" y="725" type="curve" smooth="yes"/>
      <point x="575" y="741"/>
      <point x="415" y="837"/>
      <point x="261" y="837" type="curve" smooth="yes"/>
      <point x="140" y="837"/>
      <point x="44" y="783"/>
      <point x="44" y="698" type="curve" smooth="yes"/>
      <point x="44" y="636"/>
      <point x="75" y="603"/>
      <point x="75" y="557" type="curve" smooth="yes"/>
      <point x="75" y="552"/>
      <point x="75" y="548"/>
      <point x="74" y="543" type="curve"/>
    </contour>
    <contour>
      <point x="93" y="482" type="line"/>
      <point x="93" y="519"/>
      <point x="86" y="587"/>
      <point x="17" y="587" type="curve" smooth="yes"/>
      <point x="0" y="587" type="line" smooth="yes"/>
      <point x="-16" y="587"/>
      <point x="-45" y="582"/>
      <point x="-45" y="546" type="curve" smooth="yes"/>
      <point x="-45" y="511"/>
      <point x="-18" y="502"/>
      <point x="0" y="502" type="curve" smooth="yes"/>
      <point x="3" y="502" type="line" smooth="yes"/>
      <point x="49" y="502"/>
      <point x="53" y="495"/>
      <point x="53" y="436" type="curve"/>
    </contour>
    <contour>
      <point x="138" y="-12"/>
      <point x="153" y="17"/>
      <point x="153" y="64" type="curve" smooth="yes"/>
      <point x="154" y="335" type="line" smooth="yes"/>
      <point x="154" y="491"/>
      <point x="158" y="513"/>
      <point x="163" y="583" type="curve" smooth="yes"/>
      <point x="164" y="597"/>
      <point x="159" y="609"/>
      <point x="133" y="609" type="curve" smooth="yes"/>
      <point x="67" y="609"/>
      <point x="50" y="492"/>
      <point x="49" y="335" type="curve" smooth="yes"/>
      <point x="47" y="64" type="line" smooth="yes"/>
      <point x="47" y="13"/>
      <point x="69" y="-12"/>
      <point x="102" y="-12" type="curve" smooth="yes"/>
    </contour>
    <contour>
      <point x="269" y="577"/>
      <point x="248" y="587"/>
      <point x="220" y="587" type="curve" smooth="yes"/>
      <point x="196" y="587" type="line" smooth="yes"/>
      <point x="178" y="587"/>
      <point x="165" y="585"/>
      <point x="162" y="595" type="curve"/>
      <point x="148" y="582" type="line"/>
      <point x="148" y="557"/>
      <point x="157" y="502"/>
      <point x="208" y="502" type="curve" smooth="yes"/>
      <point x="220" y="502" type="line" smooth="yes"/>
      <point x="251" y="502"/>
      <point x="269" y="519"/>
      <point x="269" y="546" type="curve" smooth="yes"/>
    </contour>
  </outline>
</glyph>
<glyph name="uni09C0" format="1">
  <advance width="220"/>
  <unicode hex="09C0"/>
  <note>
	uni09C0
  </note>
  <outline>
    <contour>
      <point x="138" y="-12"/>
      <point x="153" y="17"/>
      <point x="153" y="64" type="curve" smooth="yes"/>
      <point x="154" y="335" type="line" smooth="yes"/>
      <point x="154" y="448"/>
      <point x="156" y="491"/>
      <point x="159" y="532" type="curve"/>
      <point x="168" y="515"/>
      <point x="183" y="502"/>
      <point x="208" y="502" type="curve" smooth="yes"/>
      <point x="220" y="502" type="line" smooth="yes"/>
      <point x="251" y="502"/>
      <point x="269" y="519"/>
      <point x="269" y="546" type="curve" smooth="yes"/>
      <point x="269" y="577"/>
      <point x="248" y="587"/>
      <point x="220" y="587" type="curve" smooth="yes"/>
      <point x="196" y="587" type="line" smooth="yes"/>
      <point x="172" y="587"/>
      <point x="163" y="588"/>
      <point x="160" y="616" type="curve" smooth="yes"/>
      <point x="145" y="784"/>
      <point x="5" y="899"/>
      <point x="-185" y="899" type="curve" smooth="yes"/>
      <point x="-364" y="899"/>
      <point x="-464" y="829"/>
      <point x="-464" y="733" type="curve" smooth="yes"/>
      <point x="-464" y="672"/>
      <point x="-420" y="628"/>
      <point x="-350" y="628" type="curve" smooth="yes"/>
      <point x="-303" y="628"/>
      <point x="-227" y="648"/>
      <point x="-179" y="648" type="curve" smooth="yes"/>
      <point x="-162" y="648"/>
      <point x="-149" y="643"/>
      <point x="-134" y="628" type="curve" smooth="yes"/>
      <point x="-117" y="611"/>
      <point x="-101" y="608"/>
      <point x="-89" y="611" type="curve" smooth="yes"/>
      <point x="-67" y="616"/>
      <point x="-60" y="639"/>
      <point x="-62" y="655" type="curve" smooth="yes"/>
      <point x="-64" y="669"/>
      <point x="-81" y="739"/>
      <point x="-181" y="739" type="curve" smooth="yes"/>
      <point x="-231" y="739"/>
      <point x="-296" y="721"/>
      <point x="-327" y="721" type="curve" smooth="yes"/>
      <point x="-352" y="721"/>
      <point x="-362" y="733"/>
      <point x="-362" y="746" type="curve" smooth="yes"/>
      <point x="-362" y="782"/>
      <point x="-288" y="802"/>
      <point x="-186" y="802" type="curve" smooth="yes"/>
      <point x="-71" y="802"/>
      <point x="61" y="752"/>
      <point x="75" y="559" type="curve"/>
      <point x="64" y="575"/>
      <point x="46" y="587"/>
      <point x="17" y="587" type="curve" smooth="yes"/>
      <point x="0" y="587" type="line" smooth="yes"/>
      <point x="-16" y="587"/>
      <point x="-45" y="582"/>
      <point x="-45" y="546" type="curve" smooth="yes"/>
      <point x="-45" y="511"/>
      <point x="-18" y="502"/>
      <point x="0" y="502" type="curve" smooth="yes"/>
      <point x="3" y="502" type="line" smooth="yes"/>
      <point x="56" y="502"/>
      <point x="49" y="473"/>
      <point x="49" y="335" type="curve" smooth="yes"/>
      <point x="47" y="64" type="line" smooth="yes"/>
      <point x="47" y="13"/>
      <point x="69" y="-12"/>
      <point x="102" y="-12" type="curve" smooth="yes"/>
    </contour>
  </outline>
</glyph>
<glyph name="uni09DC" format="1">
  <advance width="593"/>
  <unicode hex="09DC"/>
  <note>
	uni09DC
  </note>
  <outline>
    <contour>
      <point x="375" y="-175"/>
      <point x="419" y="-152"/>
      <point x="419" y="-98" type="curve" smooth="yes"/>
      <point x="419" y="-56"/>
      <point x="386" y="-14"/>
      <point x="336" y="-14" type="curve" smooth="yes"/>
      <point x="294" y="-14"/>
      <point x="258" y="-46"/>
      <point x="258" y="-92" type="curve" smooth="yes"/>
      <point x="258" y="-141"/>
      <point x="298" y="-175"/>
      <point x="340" y="-175" type="curve" smooth="yes"/>
    </contour>
    <contour>
      <point x="363" y="-111"/>
      <point x="350" y="-117"/>
      <point x="340" y="-117" type="curve" smooth="yes"/>
      <point x="329" y="-117"/>
      <point x="315" y="-108"/>
      <point x="315" y="-93" type="curve" smooth="yes"/>
      <point x="315" y="-77"/>
      <point x="328" y="-69"/>
      <point x="339" y="-69" type="curve" smooth="yes"/>
      <point x="352" y="-69"/>
      <point x="363" y="-80"/>
      <point x="363" y="-95" type="curve" smooth="yes"/>
    </contour>
    <contour>
      <point x="475" y="13"/>
      <point x="562" y="102"/>
      <point x="562" y="224" type="curve" smooth="yes"/>
      <point x="562" y="321"/>
      <point x="507" y="405"/>
      <point x="465" y="405" type="curve" smooth="yes"/>
      <point x="416" y="405"/>
      <point x="442" y="307"/>
      <point x="367" y="307" type="curve" smooth="yes"/>
      <point x="326" y="307"/>
      <point x="306" y="341"/>
      <point x="306" y="380" type="curve" smooth="yes"/>
      <point x="306" y="448"/>
      <point x="333" y="502"/>
      <point x="397" y="502" type="curve" smooth="yes"/>
      <point x="593" y="502" type="line" smooth="yes"/>
      <point x="603" y="502"/>
      <point x="630" y="508"/>
      <point x="630" y="545" type="curve" smooth="yes"/>
      <point x="630" y="581"/>
      <point x="600" y="587"/>
      <point x="593" y="587" type="curve" smooth="yes"/>
      <point x="379" y="587" type="line" smooth="yes"/>
      <point x="274" y="587"/>
      <point x="220" y="504"/>
      <point x="220" y="393" type="curve" smooth="yes"/>
      <point x="220" y="284"/>
      <point x="273" y="205"/>
      <point x="363" y="205" type="curve" smooth="yes"/>
      <point x="455" y="205"/>
      <point x="479" y="287"/>
      <point x="479" y="306" type="curve"/>
      <point x="449" y="306" type="line"/>
      <point x="460" y="289"/>
      <point x="470" y="257"/>
      <point x="470" y="228" type="curve" smooth="yes"/>
      <point x="470" y="159"/>
      <point x="423" y="118"/>
      <point x="352" y="118" type="curve" smooth="yes"/>
      <point x="232" y="118"/>
      <point x="144" y="234"/>
      <point x="114" y="422" type="curve" smooth="yes"/>
      <point x="110" y="446"/>
      <point x="97" y="468"/>
      <point x="66" y="468" type="curve" smooth="yes"/>
      <point x="29" y="468"/>
      <point x="25" y="435"/>
      <point x="25" y="412" type="curve" smooth="yes"/>
      <point x="25" y="289"/>
      <point x="142" y="13"/>
      <point x="354" y="13" type="curve" smooth="yes"/>
    </contour>
    <contour>
      <point x="288" y="512" type="line"/>
      <point x="288" y="553"/>
      <point x="237" y="587"/>
      <point x="173" y="587" type="curve" smooth="yes"/>
      <point x="0" y="587" type="line" smooth="yes"/>
      <point x="-7" y="587"/>
      <point x="-38" y="582"/>
      <point x="-38" y="545" type="curve" smooth="yes"/>
      <point x="-38" y="511"/>
      <point x="-9" y="502"/>
      <point x="0" y="502" type="curve" smooth="yes"/>
      <point x="174" y="502" type="line" smooth="yes"/>
      <point x="246" y="502"/>
      <point x="222" y="452"/>
      <point x="222" y="426" type="curve"/>
    </contour>
  </outline>
</glyph>
<glyph name="uni09DD" format="1">
  <advance width="488"/>
  <unicode hex="09DD"/>
  <note>
	uni09DD
  </note>
  <outline>
    <contour>
      <point x="255" y="-192"/>
      <point x="299" y="-169"/>
      <point x="299" y="-115" type="curve" smooth="yes"/>
      <point x="299" y="-73"/>
      <point x="266" y="-31"/>
      <point x="216" y="-31" type="curve" smooth="yes"/>
      <point x="174" y="-31"/>
      <point x="138" y="-63"/>
      <point x="138" y="-109" type="curve" smooth="yes"/>
      <point x="138" y="-158"/>
      <point x="178" y="-192"/>
      <point x="220" y="-192" type="curve" smooth="yes"/>
    </contour>
    <contour>
      <point x="243" y="-128"/>
      <point x="230" y="-134"/>
      <point x="220" y="-134" type="curve" smooth="yes"/>
      <point x="209" y="-134"/>
      <point x="195" y="-125"/>
      <point x="195" y="-110" type="curve" smooth="yes"/>
      <point x="195" y="-94"/>
      <point x="208" y="-86"/>
      <point x="219" y="-86" type="curve" smooth="yes"/>
      <point x="232" y="-86"/>
      <point x="243" y="-97"/>
      <point x="243" y="-112" type="curve" smooth="yes"/>
    </contour>
    <contour>
      <point x="312" y="-12"/>
      <point x="440" y="181"/>
      <point x="440" y="318" type="curve" smooth="yes"/>
      <point x="440" y="374"/>
      <point x="407" y="442"/>
      <point x="325" y="442" type="curve" smooth="yes"/>
      <point x="262" y="442"/>
      <point x="207" y="400"/>
      <point x="207" y="331" type="curve" smooth="yes"/>
      <point x="207" y="247"/>
      <point x="270" y="218"/>
      <point x="331" y="218" type="curve" smooth="yes"/>
      <point x="354" y="218"/>
      <point x="391" y="233"/>
      <point x="403" y="262" type="curve"/>
      <point x="323" y="272" type="line"/>
      <point x="323" y="200"/>
      <point x="257" y="88"/>
      <point x="208" y="88" type="curve" smooth="yes"/>
      <point x="176" y="88"/>
      <point x="171" y="112"/>
      <point x="171" y="164" type="curve" smooth="yes"/>
      <point x="171" y="445" type="line" smooth="yes"/>
      <point x="171" y="501"/>
      <point x="196" y="502"/>
      <point x="221" y="502" type="curve" smooth="yes"/>
      <point x="488" y="502" type="line" smooth="yes"/>
      <point x="499" y="502"/>
      <point x="529" y="508"/>
      <point x="529" y="545" type="curve" smooth="yes"/>
      <point x="529" y="581"/>
      <point x="499" y="587"/>
      <point x="488" y="587" type="curve" smooth="yes"/>
      <point x="152" y="587" type="line" smooth="yes"/>
      <point x="122" y="587"/>
      <point x="91" y="572"/>
      <point x="90" y="539" type="curve"/>
      <point x="97" y="539" type="line"/>
      <point x="97" y="567"/>
      <point x="61" y="587"/>
      <point x="25" y="587" type="curve" smooth="yes"/>
      <point x="0" y="587" type="line" smooth="yes"/>
      <point x="-12" y="587"/>
      <point x="-46" y="582"/>
      <point x="-46" y="545" type="curve" smooth="yes"/>
      <point x="-46" y="508"/>
      <point x="-12" y="502"/>
      <point x="0" y="502" type="curve" smooth="yes"/>
      <point x="25" y="502" type="line" smooth="yes"/>
      <point x="61" y="502"/>
      <point x="66" y="481"/>
      <point x="66" y="434" type="curve" smooth="yes"/>
      <point x="66" y="118" type="line" smooth="yes"/>
      <point x="66" y="74"/>
      <point x="80" y="-12"/>
      <point x="185" y="-12" type="curve" smooth="yes"/>
    </contour>
    <contour>
      <point x="302" y="295"/>
      <point x="289" y="308"/>
      <point x="289" y="323" type="curve" smooth="yes"/>
      <point x="289" y="340"/>
      <point x="300" y="353"/>
      <point x="316" y="353" type="curve" smooth="yes"/>
      <point x="336" y="353"/>
      <point x="347" y="337"/>
      <point x="347" y="322" type="curve" smooth="yes"/>
      <point x="347" y="308"/>
      <point x="338" y="295"/>
      <point x="319" y="295" type="curve" smooth="yes"/>
    </contour>
  </outline>
</glyph>
<glyph name="uni09DF" format="1">
  <advance width="511"/>
  <unicode hex="09DF"/>
  <note>
	uni09DF
  </note>
  <outline>
    <contour>
      <point x="214" y="4"/>
      <point x="258" y="27"/>
      <point x="258" y="81" type="curve" smooth="yes"/>
      <point x="258" y="123"/>
      <point x="225" y="165"/>
      <point x="175" y="165" type="curve" smooth="yes"/>
      <point x="133" y="165"/>
      <point x="97" y="133"/>
      <point x="97" y="87" type="curve" smooth="yes"/>
      <point x="97" y="38"/>
      <point x="137" y="4"/>
      <point x="179" y="4" type="curve" smooth="yes"/>
    </contour>
    <contour>
      <point x="202" y="68"/>
      <point x="189" y="62"/>
      <point x="179" y="62" type="curve" smooth="yes"/>
      <point x="168" y="62"/>
      <point x="154" y="71"/>
      <point x="154" y="86" type="curve" smooth="yes"/>
      <point x="154" y="102"/>
      <point x="167" y="110"/>
      <point x="178" y="110" type="curve" smooth="yes"/>
      <point x="191" y="110"/>
      <point x="202" y="99"/>
      <point x="202" y="84" type="curve" smooth="yes"/>
    </contour>
    <contour>
      <point x="418" y="87" type="line"/>
      <point x="418" y="166"/>
      <point x="229" y="282"/>
      <point x="141" y="282" type="curve"/>
      <point x="138" y="232" type="line"/>
      <point x="259" y="294" type="line" smooth="yes"/>
      <point x="275" y="302"/>
      <point x="304" y="316"/>
      <point x="304" y="347" type="curve" smooth="yes"/>
      <point x="304" y="375"/>
      <point x="285" y="389"/>
      <point x="270" y="397" type="curve" smooth="yes"/>
      <point x="187" y="443" type="line" smooth="yes"/>
      <point x="142" y="468"/>
      <point x="151" y="487"/>
      <point x="151" y="523" type="curve"/>
      <point x="36" y="523" type="line"/>
      <point x="36" y="466"/>
      <point x="48" y="432"/>
      <point x="100" y="404" type="curve" smooth="yes"/>
      <point x="213" y="342" type="line"/>
      <point x="213" y="379" type="line"/>
      <point x="67" y="307" type="line" smooth="yes"/>
      <point x="42" y="295"/>
      <point x="38" y="277"/>
      <point x="38" y="263" type="curve" smooth="yes"/>
      <point x="38" y="246"/>
      <point x="49" y="221"/>
      <point x="78" y="213" type="curve" smooth="yes"/>
      <point x="157" y="192"/>
      <point x="338" y="135"/>
      <point x="338" y="64" type="curve"/>
    </contour>
    <contour>
      <point x="392" y="492" type="line"/>
      <point x="393" y="540"/>
      <point x="369" y="587"/>
      <point x="287" y="587" type="curve" smooth="yes"/>
      <point x="0" y="587" type="line" smooth="yes"/>
      <point x="-18" y="587"/>
      <point x="-45" y="582"/>
      <point x="-45" y="545" type="curve" smooth="yes"/>
      <point x="-45" y="512"/>
      <point x="-18" y="502"/>
      <point x="0" y="502" type="curve" smooth="yes"/>
      <point x="252" y="502" type="line" smooth="yes"/>
      <point x="315" y="502"/>
      <point x="342" y="472"/>
      <point x="342" y="414" type="curve"/>
    </contour>
    <contour>
      <point x="429" y="-12"/>
      <point x="444" y="17"/>
      <point x="444" y="64" type="curve" smooth="yes"/>
      <point x="445" y="335" type="line" smooth="yes"/>
      <point x="445" y="491"/>
      <point x="449" y="513"/>
      <point x="454" y="583" type="curve" smooth="yes"/>
      <point x="455" y="597"/>
      <point x="450" y="609"/>
      <point x="424" y="609" type="curve" smooth="yes"/>
      <point x="358" y="609"/>
      <point x="341" y="492"/>
      <point x="340" y="335" type="curve" smooth="yes"/>
      <point x="338" y="64" type="line" smooth="yes"/>
      <point x="338" y="13"/>
      <point x="360" y="-12"/>
      <point x="393" y="-12" type="curve" smooth="yes"/>
    </contour>
    <contour>
      <point x="560" y="577"/>
      <point x="539" y="587"/>
      <point x="511" y="587" type="curve" smooth="yes"/>
      <point x="487" y="587" type="line" smooth="yes"/>
      <point x="469" y="587"/>
      <point x="456" y="584"/>
      <point x="453" y="594" type="curve"/>
      <point x="439" y="582" type="line"/>
      <point x="439" y="557"/>
      <point x="448" y="502"/>
      <point x="499" y="502" type="curve" smooth="yes"/>
      <point x="511" y="502" type="line" smooth="yes"/>
      <point x="542" y="502"/>
      <point x="560" y="519"/>
      <point x="560" y="546" type="curve" smooth="yes"/>
    </contour>
  </outline>
</glyph>
<glyph name="bBDRa" format="1">
  <advance width="730"/>
  <outline>
    <contour>
      <point x="655" y="-82"/>
      <point x="662" y="-46"/>
      <point x="662" y="-14" type="curve" smooth="yes"/>
      <point x="662" y="73" type="line"/>
      <point x="566" y="73" type="line"/>
      <point x="566" y="-11" type="line"/>
      <point x="579" y="-11" type="line"/>
      <point x="579" y="26"/>
      <point x="510" y="54"/>
      <point x="455" y="54" type="curve" smooth="yes"/>
      <point x="393" y="54"/>
      <point x="321" y="24"/>
      <point x="283" y="24" type="curve" smooth="yes"/>
      <point x="260" y="24"/>
      <point x="244" y="37"/>
      <point x="244" y="51" type="curve" smooth="yes"/>
      <point x="244" y="70"/>
      <point x="251" y="76"/>
      <point x="251" y="95" type="curve" smooth="yes"/>
      <point x="251" y="118"/>
      <point x="236" y="130"/>
      <point x="211" y="130" type="curve" smooth="yes"/>
      <point x="176" y="130"/>
      <point x="157" y="92"/>
      <point x="157" y="51" type="curve" smooth="yes"/>
      <point x="157" y="-10"/>
      <point x="198" y="-68"/>
      <point x="273" y="-68" type="curve" smooth="yes"/>
      <point x="348" y="-68"/>
      <point x="441" y="-34"/>
      <point x="484" y="-34" type="curve" smooth="yes"/>
      <point x="510" y="-34"/>
      <point x="536" y="-37"/>
      <point x="555" y="-50" type="curve" smooth="yes"/>
      <point x="574" y="-63"/>
      <point x="591" y="-82"/>
      <point x="616" y="-82" type="curve" smooth="yes"/>
    </contour>
    <component base="bBDa"/>
  </outline>
</glyph>
<glyph name="bBLa" format="1">
  <advance width="485"/>
  <outline>
    <contour>
      <point x="387" y="104" type="line"/>
      <point x="387" y="224"/>
      <point x="164" y="318"/>
      <point x="81" y="318" type="curve"/>
      <point x="127" y="289" type="line"/>
      <point x="329" y="357"/>
      <point x="368" y="422"/>
      <point x="368" y="476" type="curve" smooth="yes"/>
      <point x="368" y="528"/>
      <point x="331" y="587"/>
      <point x="250" y="587" type="curve" smooth="yes"/>
      <point x="0" y="587" type="line" smooth="yes"/>
      <point x="-17" y="587"/>
      <point x="-40" y="575"/>
      <point x="-40" y="546" type="curve" smooth="yes"/>
      <point x="-40" y="517"/>
      <point x="-19" y="502"/>
      <point x="0" y="502" type="curve" smooth="yes"/>
      <point x="222" y="502" type="line" smooth="yes"/>
      <point x="246" y="502"/>
      <point x="298" y="505"/>
      <point x="298" y="487" type="curve" smooth="yes"/>
      <point x="298" y="460"/>
      <point x="184" y="419"/>
      <point x="46" y="362" type="curve" smooth="yes"/>
      <point x="12" y="348"/>
      <point x="0" y="327"/>
      <point x="0" y="302" type="curve" smooth="yes"/>
      <point x="0" y="262"/>
      <point x="32" y="249"/>
      <point x="64" y="239" type="curve" smooth="yes"/>
      <point x="110" y="226"/>
      <point x="324" y="167"/>
      <point x="324" y="69" type="curve"/>
    </contour>
    <contour>
      <point x="398" y="-82"/>
      <point x="419" y="-58"/>
      <point x="419" y="-26" type="curve" smooth="yes"/>
      <point x="419" y="435" type="line" smooth="yes"/>
      <point x="419" y="491"/>
      <point x="419" y="502"/>
      <point x="453" y="502" type="curve" smooth="yes"/>
      <point x="485" y="502" type="line" smooth="yes"/>
      <point x="511" y="502"/>
      <point x="531" y="520"/>
      <point x="531" y="545" type="curve" smooth="yes"/>
      <point x="531" y="569"/>
      <point x="511" y="587"/>
      <point x="485" y="587" type="curve" smooth="yes"/>
      <point x="430" y="587" type="line" smooth="yes"/>
      <point x="368" y="587"/>
      <point x="324" y="544"/>
      <point x="324" y="457" type="curve" smooth="yes"/>
      <point x="324" y="-26" type="line" smooth="yes"/>
      <point x="324" y="-58"/>
      <point x="344" y="-82"/>
      <point x="371" y="-82" type="curve" smooth="yes"/>
    </contour>
    <contour>
      <point x="52" y="-49"/>
      <point x="42" y="-42"/>
      <point x="42" y="-29" type="curve" smooth="yes"/>
      <point x="42" y="-16"/>
      <point x="52" y="-9"/>
      <point x="63" y="-9" type="curve" smooth="yes"/>
      <point x="73" y="-9"/>
      <point x="82" y="-15"/>
      <point x="82" y="-29" type="curve" smooth="yes"/>
      <point x="82" y="-43"/>
      <point x="73" y="-49"/>
      <point x="63" y="-49" type="curve" smooth="yes"/>
    </contour>
    <contour>
      <point x="114" y="-112"/>
      <point x="142" y="-75"/>
      <point x="142" y="-39" type="curve" smooth="yes"/>
      <point x="142" y="9"/>
      <point x="105" y="40"/>
      <point x="68" y="40" type="curve" smooth="yes"/>
      <point x="21" y="40"/>
      <point x="4" y="-2"/>
      <point x="4" y="-21" type="curve" smooth="yes"/>
      <point x="4" y="-40"/>
      <point x="10" y="-58"/>
      <point x="20" y="-68" type="curve"/>
      <point x="44" y="-61" type="line"/>
      <point x="36" y="-50"/>
      <point x="27" y="-40"/>
      <point x="27" y="-19" type="curve" smooth="yes"/>
      <point x="27" y="32"/>
      <point x="82" y="63"/>
      <point x="129" y="63" type="curve" smooth="yes"/>
      <point x="194" y="63"/>
      <point x="231" y="18"/>
      <point x="231" y="-1" type="curve" smooth="yes"/>
      <point x="231" y="-8"/>
      <point x="229" y="-15"/>
      <point x="223" y="-15" type="curve" smooth="yes"/>
      <point x="217" y="-15"/>
      <point x="214" y="-9"/>
      <point x="214" y="-1" type="curve" smooth="yes"/>
      <point x="214" y="18"/>
      <point x="231" y="35"/>
      <point x="258" y="35" type="curve" smooth="yes"/>
      <point x="288" y="35"/>
      <point x="317" y="10"/>
      <point x="326" y="-43" type="curve"/>
      <point x="376" y="-31" type="line"/>
      <point x="376" y="18"/>
      <point x="332" y="100"/>
      <point x="258" y="100" type="curve" smooth="yes"/>
      <point x="193" y="100"/>
      <point x="150" y="53"/>
      <point x="150" y="-1" type="curve" smooth="yes"/>
      <point x="150" y="-35"/>
      <point x="173" y="-76"/>
      <point x="225" y="-76" type="curve" smooth="yes"/>
      <point x="261" y="-76"/>
      <point x="292" y="-40"/>
      <point x="292" y="-1" type="curve" smooth="yes"/>
      <point x="292" y="80"/>
      <point x="210" y="139"/>
      <point x="121" y="139" type="curve" smooth="yes"/>
      <point x="43" y="139"/>
      <point x="-34" y="85"/>
      <point x="-34" y="-8" type="curve" smooth="yes"/>
      <point x="-34" y="-73"/>
      <point x="20" y="-112"/>
      <point x="65" y="-112" type="curve" smooth="yes"/>
    </contour>
  </outline>
</glyph>
